  0
SECTION
  2
HEADER
  9
$ANGBASE
  50
0.0
  9
$ANGDIR
  70
  1
  9
$MEASUREMENT
  70
0
  0
ENDSEC
  0
SECTION
  2
TABLES
  0
TABLE
  2
LTYPE
  70
1
  0
LTYPE
  2
CONTINUOUS
  70
0
  3
Solid line
  72
65
  73
0
  40
0.0
  0
ENDTAB
  0
TABLE
  2
STYLE
  70
4
  0
STYLE
  2
KICAD
  70
0
  40
0
  41
1
  42
1
  50
0
  71
0
  3
isocp.shx
  0
STYLE
  2
KICADB
  70
0
  40
0
  41
1
  42
1
  50
0
  71
0
  3
isocp.shx
  0
STYLE
  2
KICADI
  70
0
  40
0
  41
1
  42
1
  50
15
  71
0
  3
isocp.shx
  0
STYLE
  2
KICADBI
  70
0
  40
0
  41
1
  42
1
  50
15
  71
0
  3
isocp.shx
  0
ENDTAB
  0
TABLE
  2
LAYER
  70
30
  0
LAYER
  2
BLACK
  70
0
  62
7
  6
CONTINUOUS
  0
LAYER
  2
GRAY1
  70
0
  62
251
  6
CONTINUOUS
  0
LAYER
  2
GRAY2
  70
0
  62
8
  6
CONTINUOUS
  0
LAYER
  2
GRAY3
  70
0
  62
9
  6
CONTINUOUS
  0
LAYER
  2
WHITE
  70
0
  62
7
  6
CONTINUOUS
  0
LAYER
  2
LYELLOW
  70
0
  62
51
  6
CONTINUOUS
  0
LAYER
  2
BLUE1
  70
0
  62
178
  6
CONTINUOUS
  0
LAYER
  2
GREEN1
  70
0
  62
98
  6
CONTINUOUS
  0
LAYER
  2
CYAN1
  70
0
  62
138
  6
CONTINUOUS
  0
LAYER
  2
RED1
  70
0
  62
18
  6
CONTINUOUS
  0
LAYER
  2
MAGENTA1
  70
0
  62
228
  6
CONTINUOUS
  0
LAYER
  2
BROWN1
  70
0
  62
58
  6
CONTINUOUS
  0
LAYER
  2
BLUE2
  70
0
  62
5
  6
CONTINUOUS
  0
LAYER
  2
GREEN2
  70
0
  62
3
  6
CONTINUOUS
  0
LAYER
  2
CYAN2
  70
0
  62
4
  6
CONTINUOUS
  0
LAYER
  2
RED2
  70
0
  62
1
  6
CONTINUOUS
  0
LAYER
  2
MAGENTA2
  70
0
  62
6
  6
CONTINUOUS
  0
LAYER
  2
BROWN2
  70
0
  62
54
  6
CONTINUOUS
  0
LAYER
  2
BLUE3
  70
0
  62
171
  6
CONTINUOUS
  0
LAYER
  2
GREEN3
  70
0
  62
91
  6
CONTINUOUS
  0
LAYER
  2
CYAN3
  70
0
  62
131
  6
CONTINUOUS
  0
LAYER
  2
RED3
  70
0
  62
11
  6
CONTINUOUS
  0
LAYER
  2
MAGENTA3
  70
0
  62
221
  6
CONTINUOUS
  0
LAYER
  2
YELLOW3
  70
0
  62
2
  6
CONTINUOUS
  0
LAYER
  2
BLUE4
  70
0
  62
5
  6
CONTINUOUS
  0
LAYER
  2
GREEN4
  70
0
  62
3
  6
CONTINUOUS
  0
LAYER
  2
CYAN4
  70
0
  62
4
  6
CONTINUOUS
  0
LAYER
  2
RED4
  70
0
  62
1
  6
CONTINUOUS
  0
LAYER
  2
MAGENTA4
  70
0
  62
6
  6
CONTINUOUS
  0
LAYER
  2
YELLOW4
  70
0
  62
2
  6
CONTINUOUS
  0
ENDTAB
  0
ENDSEC
  0
SECTION
  2
ENTITIES
0
LINE
8
Black
10
24
20
-103
11
24
21
-21
0
LINE
8
Black
10
122
20
-103
11
24
21
-103
0
LINE
8
Black
10
122
20
-21
11
122
21
-103
0
LINE
8
Black
10
106
20
-21
11
122
21
-21
0
LINE
8
Black
10
24
20
-21
11
106
21
-21
0
LINE
8
Black
10
54.664
20
-69.65
11
55.064
21
-70.05
0
LINE
8
Black
10
55.064
20
-69.65
11
54.664
21
-70.05
0
LINE
8
Black
10
107.75
20
-30.28
11
108.15
21
-30.68
0
LINE
8
Black
10
108.15
20
-30.28
11
107.75
21
-30.68
0
CIRCLE
8
Black
10
48.26
20
-76.2
40
0.4
0
CIRCLE
8
Black
10
48.26
20
-78.74
40
0.4
0
CIRCLE
8
Black
10
48.26
20
-81.28
40
0.4
0
CIRCLE
8
Black
10
53.34
20
-48.26
40
0.4
0
CIRCLE
8
Black
10
53.34
20
-50.8
40
0.4
0
CIRCLE
8
Black
10
53.34
20
-53.34
40
0.4
0
CIRCLE
8
Black
10
53.34
20
-55.88
40
0.4
0
CIRCLE
8
Black
10
53.34
20
-58.42
40
0.4
0
CIRCLE
8
Black
10
53.34
20
-60.96
40
0.4
0
CIRCLE
8
Black
10
53.34
20
-63.5
40
0.4
0
CIRCLE
8
Black
10
53.34
20
-66.04
40
0.4
0
CIRCLE
8
Black
10
53.34
20
-68.58
40
0.4
0
CIRCLE
8
Black
10
53.34
20
-71.12
40
0.4
0
CIRCLE
8
Black
10
55.88
20
-76.2
40
0.4
0
CIRCLE
8
Black
10
55.88
20
-78.74
40
0.4
0
CIRCLE
8
Black
10
55.88
20
-81.28
40
0.4
0
CIRCLE
8
Black
10
60.96
20
-48.26
40
0.4
0
CIRCLE
8
Black
10
60.96
20
-50.8
40
0.4
0
CIRCLE
8
Black
10
60.96
20
-53.34
40
0.4
0
CIRCLE
8
Black
10
60.96
20
-55.88
40
0.4
0
CIRCLE
8
Black
10
60.96
20
-58.42
40
0.4
0
CIRCLE
8
Black
10
60.96
20
-60.96
40
0.4
0
CIRCLE
8
Black
10
60.96
20
-63.5
40
0.4
0
CIRCLE
8
Black
10
60.96
20
-66.04
40
0.4
0
CIRCLE
8
Black
10
60.96
20
-68.58
40
0.4
0
CIRCLE
8
Black
10
60.96
20
-71.12
40
0.4
0
CIRCLE
8
Black
10
68.58
20
-55.88
40
0.4
0
CIRCLE
8
Black
10
68.58
20
-58.42
40
0.4
0
CIRCLE
8
Black
10
68.58
20
-60.96
40
0.4
0
CIRCLE
8
Black
10
73.66
20
-25.4
40
0.4
0
CIRCLE
8
Black
10
73.66
20
-33.02
40
0.4
0
CIRCLE
8
Black
10
76.2
20
-55.88
40
0.4
0
CIRCLE
8
Black
10
76.2
20
-58.42
40
0.4
0
CIRCLE
8
Black
10
76.2
20
-60.96
40
0.4
0
CIRCLE
8
Black
10
91.44
20
-78.74
40
0.4
0
CIRCLE
8
Black
10
91.44
20
-86.4
40
0.4
0
CIRCLE
8
Black
10
91.44
20
-88.9
40
0.4
0
CIRCLE
8
Black
10
93.94
20
-78.74
40
0.4
0
CIRCLE
8
Black
10
96.52
20
-63.5
40
0.4
0
CIRCLE
8
Black
10
96.52
20
-78.74
40
0.4
0
CIRCLE
8
Black
10
99.02
20
-63.5
40
0.4
0
CIRCLE
8
Black
10
99.02
20
-78.74
40
0.4
0
LINE
8
Black
10
71.12
20
-68.13
11
71.12
21
-69.03
0
LINE
8
Black
10
70.67
20
-68.58
11
71.57
21
-68.58
0
LINE
8
Black
10
73.66
20
-68.13
11
73.66
21
-69.03
0
LINE
8
Black
10
73.21
20
-68.58
11
74.11
21
-68.58
0
LINE
8
Black
10
78.74
20
-68.13
11
78.74
21
-69.03
0
LINE
8
Black
10
78.29
20
-68.58
11
79.19
21
-68.58
0
LINE
8
Black
10
81.28
20
-68.13
11
81.28
21
-69.03
0
LINE
8
Black
10
80.83
20
-68.58
11
81.73
21
-68.58
0
LINE
8
Black
10
86.36
20
-68.13
11
86.36
21
-69.03
0
LINE
8
Black
10
85.91
20
-68.58
11
86.81
21
-68.58
0
LINE
8
Black
10
88.9
20
-68.13
11
88.9
21
-69.03
0
LINE
8
Black
10
88.45
20
-68.58
11
89.35
21
-68.58
0
LINE
8
Black
10
28.2936
20
-25.7536
11
28.2936
21
-25.0464
0
LINE
8
Black
10
28.2936
20
-25.0464
11
27.5864
21
-25.0464
0
LINE
8
Black
10
27.5864
20
-25.0464
11
27.5864
21
-25.7536
0
LINE
8
Black
10
27.5864
20
-25.7536
11
28.2936
21
-25.7536
0
LINE
8
Black
10
28.2936
20
-28.2936
11
28.2936
21
-27.5864
0
LINE
8
Black
10
28.2936
20
-27.5864
11
27.5864
21
-27.5864
0
LINE
8
Black
10
27.5864
20
-27.5864
11
27.5864
21
-28.2936
0
LINE
8
Black
10
27.5864
20
-28.2936
11
28.2936
21
-28.2936
0
LINE
8
Black
10
28.2936
20
-30.8336
11
28.2936
21
-30.1264
0
LINE
8
Black
10
28.2936
20
-30.1264
11
27.5864
21
-30.1264
0
LINE
8
Black
10
27.5864
20
-30.1264
11
27.5864
21
-30.8336
0
LINE
8
Black
10
27.5864
20
-30.8336
11
28.2936
21
-30.8336
0
LINE
8
Black
10
28.2936
20
-33.3736
11
28.2936
21
-32.6664
0
LINE
8
Black
10
28.2936
20
-32.6664
11
27.5864
21
-32.6664
0
LINE
8
Black
10
27.5864
20
-32.6664
11
27.5864
21
-33.3736
0
LINE
8
Black
10
27.5864
20
-33.3736
11
28.2936
21
-33.3736
0
LINE
8
Black
10
28.2936
20
-35.9136
11
28.2936
21
-35.2064
0
LINE
8
Black
10
28.2936
20
-35.2064
11
27.5864
21
-35.2064
0
LINE
8
Black
10
27.5864
20
-35.2064
11
27.5864
21
-35.9136
0
LINE
8
Black
10
27.5864
20
-35.9136
11
28.2936
21
-35.9136
0
LINE
8
Black
10
28.2936
20
-38.4536
11
28.2936
21
-37.7464
0
LINE
8
Black
10
28.2936
20
-37.7464
11
27.5864
21
-37.7464
0
LINE
8
Black
10
27.5864
20
-37.7464
11
27.5864
21
-38.4536
0
LINE
8
Black
10
27.5864
20
-38.4536
11
28.2936
21
-38.4536
0
LINE
8
Black
10
28.2936
20
-40.9936
11
28.2936
21
-40.2864
0
LINE
8
Black
10
28.2936
20
-40.2864
11
27.5864
21
-40.2864
0
LINE
8
Black
10
27.5864
20
-40.2864
11
27.5864
21
-40.9936
0
LINE
8
Black
10
27.5864
20
-40.9936
11
28.2936
21
-40.9936
0
LINE
8
Black
10
28.2936
20
-43.5336
11
28.2936
21
-42.8264
0
LINE
8
Black
10
28.2936
20
-42.8264
11
27.5864
21
-42.8264
0
LINE
8
Black
10
27.5864
20
-42.8264
11
27.5864
21
-43.5336
0
LINE
8
Black
10
27.5864
20
-43.5336
11
28.2936
21
-43.5336
0
LINE
8
Black
10
28.2936
20
-96.8736
11
28.2936
21
-96.1664
0
LINE
8
Black
10
28.2936
20
-96.1664
11
27.5864
21
-96.1664
0
LINE
8
Black
10
27.5864
20
-96.1664
11
27.5864
21
-96.8736
0
LINE
8
Black
10
27.5864
20
-96.8736
11
28.2936
21
-96.8736
0
LINE
8
Black
10
28.2936
20
-99.4136
11
28.2936
21
-98.7064
0
LINE
8
Black
10
28.2936
20
-98.7064
11
27.5864
21
-98.7064
0
LINE
8
Black
10
27.5864
20
-98.7064
11
27.5864
21
-99.4136
0
LINE
8
Black
10
27.5864
20
-99.4136
11
28.2936
21
-99.4136
0
LINE
8
Black
10
40.6136
20
-100.354
11
40.6136
21
-99.6464
0
LINE
8
Black
10
40.6136
20
-99.6464
11
39.9064
21
-99.6464
0
LINE
8
Black
10
39.9064
20
-99.6464
11
39.9064
21
-100.354
0
LINE
8
Black
10
39.9064
20
-100.354
11
40.6136
21
-100.354
0
LINE
8
Black
10
43.1536
20
-100.354
11
43.1536
21
-99.6464
0
LINE
8
Black
10
43.1536
20
-99.6464
11
42.4464
21
-99.6464
0
LINE
8
Black
10
42.4464
20
-99.6464
11
42.4464
21
-100.354
0
LINE
8
Black
10
42.4464
20
-100.354
11
43.1536
21
-100.354
0
LINE
8
Black
10
44.1636
20
-45.8336
11
44.1636
21
-45.1264
0
LINE
8
Black
10
44.1636
20
-45.1264
11
43.4564
21
-45.1264
0
LINE
8
Black
10
43.4564
20
-45.1264
11
43.4564
21
-45.8336
0
LINE
8
Black
10
43.4564
20
-45.8336
11
44.1636
21
-45.8336
0
LINE
8
Black
10
44.1636
20
-48.3736
11
44.1636
21
-47.6664
0
LINE
8
Black
10
44.1636
20
-47.6664
11
43.4564
21
-47.6664
0
LINE
8
Black
10
43.4564
20
-47.6664
11
43.4564
21
-48.3736
0
LINE
8
Black
10
43.4564
20
-48.3736
11
44.1636
21
-48.3736
0
LINE
8
Black
10
44.1636
20
-50.9136
11
44.1636
21
-50.2064
0
LINE
8
Black
10
44.1636
20
-50.2064
11
43.4564
21
-50.2064
0
LINE
8
Black
10
43.4564
20
-50.2064
11
43.4564
21
-50.9136
0
LINE
8
Black
10
43.4564
20
-50.9136
11
44.1636
21
-50.9136
0
LINE
8
Black
10
44.1636
20
-53.4536
11
44.1636
21
-52.7464
0
LINE
8
Black
10
44.1636
20
-52.7464
11
43.4564
21
-52.7464
0
LINE
8
Black
10
43.4564
20
-52.7464
11
43.4564
21
-53.4536
0
LINE
8
Black
10
43.4564
20
-53.4536
11
44.1636
21
-53.4536
0
LINE
8
Black
10
44.1636
20
-55.9936
11
44.1636
21
-55.2864
0
LINE
8
Black
10
44.1636
20
-55.2864
11
43.4564
21
-55.2864
0
LINE
8
Black
10
43.4564
20
-55.2864
11
43.4564
21
-55.9936
0
LINE
8
Black
10
43.4564
20
-55.9936
11
44.1636
21
-55.9936
0
LINE
8
Black
10
44.1636
20
-58.5336
11
44.1636
21
-57.8264
0
LINE
8
Black
10
44.1636
20
-57.8264
11
43.4564
21
-57.8264
0
LINE
8
Black
10
43.4564
20
-57.8264
11
43.4564
21
-58.5336
0
LINE
8
Black
10
43.4564
20
-58.5336
11
44.1636
21
-58.5336
0
LINE
8
Black
10
44.1636
20
-61.0736
11
44.1636
21
-60.3664
0
LINE
8
Black
10
44.1636
20
-60.3664
11
43.4564
21
-60.3664
0
LINE
8
Black
10
43.4564
20
-60.3664
11
43.4564
21
-61.0736
0
LINE
8
Black
10
43.4564
20
-61.0736
11
44.1636
21
-61.0736
0
LINE
8
Black
10
44.1636
20
-63.6136
11
44.1636
21
-62.9064
0
LINE
8
Black
10
44.1636
20
-62.9064
11
43.4564
21
-62.9064
0
LINE
8
Black
10
43.4564
20
-62.9064
11
43.4564
21
-63.6136
0
LINE
8
Black
10
43.4564
20
-63.6136
11
44.1636
21
-63.6136
0
LINE
8
Black
10
44.1636
20
-66.1536
11
44.1636
21
-65.4464
0
LINE
8
Black
10
44.1636
20
-65.4464
11
43.4564
21
-65.4464
0
LINE
8
Black
10
43.4564
20
-65.4464
11
43.4564
21
-66.1536
0
LINE
8
Black
10
43.4564
20
-66.1536
11
44.1636
21
-66.1536
0
LINE
8
Black
10
44.1636
20
-68.6936
11
44.1636
21
-67.9864
0
LINE
8
Black
10
44.1636
20
-67.9864
11
43.4564
21
-67.9864
0
LINE
8
Black
10
43.4564
20
-67.9864
11
43.4564
21
-68.6936
0
LINE
8
Black
10
43.4564
20
-68.6936
11
44.1636
21
-68.6936
0
LINE
8
Black
10
44.2136
20
-73.7536
11
44.2136
21
-73.0464
0
LINE
8
Black
10
44.2136
20
-73.0464
11
43.5064
21
-73.0464
0
LINE
8
Black
10
43.5064
20
-73.0464
11
43.5064
21
-73.7536
0
LINE
8
Black
10
43.5064
20
-73.7536
11
44.2136
21
-73.7536
0
LINE
8
Black
10
44.2136
20
-76.2936
11
44.2136
21
-75.5864
0
LINE
8
Black
10
44.2136
20
-75.5864
11
43.5064
21
-75.5864
0
LINE
8
Black
10
43.5064
20
-75.5864
11
43.5064
21
-76.2936
0
LINE
8
Black
10
43.5064
20
-76.2936
11
44.2136
21
-76.2936
0
LINE
8
Black
10
44.2136
20
-78.8336
11
44.2136
21
-78.1264
0
LINE
8
Black
10
44.2136
20
-78.1264
11
43.5064
21
-78.1264
0
LINE
8
Black
10
43.5064
20
-78.1264
11
43.5064
21
-78.8336
0
LINE
8
Black
10
43.5064
20
-78.8336
11
44.2136
21
-78.8336
0
LINE
8
Black
10
44.2136
20
-81.3736
11
44.2136
21
-80.6664
0
LINE
8
Black
10
44.2136
20
-80.6664
11
43.5064
21
-80.6664
0
LINE
8
Black
10
43.5064
20
-80.6664
11
43.5064
21
-81.3736
0
LINE
8
Black
10
43.5064
20
-81.3736
11
44.2136
21
-81.3736
0
LINE
8
Black
10
44.2136
20
-83.9136
11
44.2136
21
-83.2064
0
LINE
8
Black
10
44.2136
20
-83.2064
11
43.5064
21
-83.2064
0
LINE
8
Black
10
43.5064
20
-83.2064
11
43.5064
21
-83.9136
0
LINE
8
Black
10
43.5064
20
-83.9136
11
44.2136
21
-83.9136
0
LINE
8
Black
10
44.2136
20
-86.4536
11
44.2136
21
-85.7464
0
LINE
8
Black
10
44.2136
20
-85.7464
11
43.5064
21
-85.7464
0
LINE
8
Black
10
43.5064
20
-85.7464
11
43.5064
21
-86.4536
0
LINE
8
Black
10
43.5064
20
-86.4536
11
44.2136
21
-86.4536
0
LINE
8
Black
10
44.2136
20
-88.9936
11
44.2136
21
-88.2864
0
LINE
8
Black
10
44.2136
20
-88.2864
11
43.5064
21
-88.2864
0
LINE
8
Black
10
43.5064
20
-88.2864
11
43.5064
21
-88.9936
0
LINE
8
Black
10
43.5064
20
-88.9936
11
44.2136
21
-88.9936
0
LINE
8
Black
10
44.2136
20
-91.5336
11
44.2136
21
-90.8264
0
LINE
8
Black
10
44.2136
20
-90.8264
11
43.5064
21
-90.8264
0
LINE
8
Black
10
43.5064
20
-90.8264
11
43.5064
21
-91.5336
0
LINE
8
Black
10
43.5064
20
-91.5336
11
44.2136
21
-91.5336
0
LINE
8
Black
10
45.6936
20
-100.354
11
45.6936
21
-99.6464
0
LINE
8
Black
10
45.6936
20
-99.6464
11
44.9864
21
-99.6464
0
LINE
8
Black
10
44.9864
20
-99.6464
11
44.9864
21
-100.354
0
LINE
8
Black
10
44.9864
20
-100.354
11
45.6936
21
-100.354
0
LINE
8
Black
10
48.2336
20
-100.354
11
48.2336
21
-99.6464
0
LINE
8
Black
10
48.2336
20
-99.6464
11
47.5264
21
-99.6464
0
LINE
8
Black
10
47.5264
20
-99.6464
11
47.5264
21
-100.354
0
LINE
8
Black
10
47.5264
20
-100.354
11
48.2336
21
-100.354
0
LINE
8
Black
10
48.6136
20
-58.7736
11
48.6136
21
-58.0664
0
LINE
8
Black
10
48.6136
20
-58.0664
11
47.9064
21
-58.0664
0
LINE
8
Black
10
47.9064
20
-58.0664
11
47.9064
21
-58.7736
0
LINE
8
Black
10
47.9064
20
-58.7736
11
48.6136
21
-58.7736
0
LINE
8
Black
10
48.6136
20
-61.3136
11
48.6136
21
-60.6064
0
LINE
8
Black
10
48.6136
20
-60.6064
11
47.9064
21
-60.6064
0
LINE
8
Black
10
47.9064
20
-60.6064
11
47.9064
21
-61.3136
0
LINE
8
Black
10
47.9064
20
-61.3136
11
48.6136
21
-61.3136
0
LINE
8
Black
10
48.6136
20
-63.8536
11
48.6136
21
-63.1464
0
LINE
8
Black
10
48.6136
20
-63.1464
11
47.9064
21
-63.1464
0
LINE
8
Black
10
47.9064
20
-63.1464
11
47.9064
21
-63.8536
0
LINE
8
Black
10
47.9064
20
-63.8536
11
48.6136
21
-63.8536
0
LINE
8
Black
10
48.6136
20
-66.3936
11
48.6136
21
-65.6864
0
LINE
8
Black
10
48.6136
20
-65.6864
11
47.9064
21
-65.6864
0
LINE
8
Black
10
47.9064
20
-65.6864
11
47.9064
21
-66.3936
0
LINE
8
Black
10
47.9064
20
-66.3936
11
48.6136
21
-66.3936
0
LINE
8
Black
10
48.6136
20
-68.9336
11
48.6136
21
-68.2264
0
LINE
8
Black
10
48.6136
20
-68.2264
11
47.9064
21
-68.2264
0
LINE
8
Black
10
47.9064
20
-68.2264
11
47.9064
21
-68.9336
0
LINE
8
Black
10
47.9064
20
-68.9336
11
48.6136
21
-68.9336
0
LINE
8
Black
10
48.6136
20
-71.4736
11
48.6136
21
-70.7664
0
LINE
8
Black
10
48.6136
20
-70.7664
11
47.9064
21
-70.7664
0
LINE
8
Black
10
47.9064
20
-70.7664
11
47.9064
21
-71.4736
0
LINE
8
Black
10
47.9064
20
-71.4736
11
48.6136
21
-71.4736
0
LINE
8
Black
10
50.7736
20
-100.354
11
50.7736
21
-99.6464
0
LINE
8
Black
10
50.7736
20
-99.6464
11
50.0664
21
-99.6464
0
LINE
8
Black
10
50.0664
20
-99.6464
11
50.0664
21
-100.354
0
LINE
8
Black
10
50.0664
20
-100.354
11
50.7736
21
-100.354
0
LINE
8
Black
10
51.1536
20
-89.2536
11
51.1536
21
-88.5464
0
LINE
8
Black
10
51.1536
20
-88.5464
11
50.4464
21
-88.5464
0
LINE
8
Black
10
50.4464
20
-88.5464
11
50.4464
21
-89.2536
0
LINE
8
Black
10
50.4464
20
-89.2536
11
51.1536
21
-89.2536
0
LINE
8
Black
10
51.1536
20
-91.7936
11
51.1536
21
-91.0864
0
LINE
8
Black
10
51.1536
20
-91.0864
11
50.4464
21
-91.0864
0
LINE
8
Black
10
50.4464
20
-91.0864
11
50.4464
21
-91.7936
0
LINE
8
Black
10
50.4464
20
-91.7936
11
51.1536
21
-91.7936
0
LINE
8
Black
10
53.3136
20
-100.354
11
53.3136
21
-99.6464
0
LINE
8
Black
10
53.3136
20
-99.6464
11
52.6064
21
-99.6464
0
LINE
8
Black
10
52.6064
20
-99.6464
11
52.6064
21
-100.354
0
LINE
8
Black
10
52.6064
20
-100.354
11
53.3136
21
-100.354
0
LINE
8
Black
10
53.6936
20
-89.2536
11
53.6936
21
-88.5464
0
LINE
8
Black
10
53.6936
20
-88.5464
11
52.9864
21
-88.5464
0
LINE
8
Black
10
52.9864
20
-88.5464
11
52.9864
21
-89.2536
0
LINE
8
Black
10
52.9864
20
-89.2536
11
53.6936
21
-89.2536
0
LINE
8
Black
10
53.6936
20
-91.7936
11
53.6936
21
-91.0864
0
LINE
8
Black
10
53.6936
20
-91.0864
11
52.9864
21
-91.0864
0
LINE
8
Black
10
52.9864
20
-91.0864
11
52.9864
21
-91.7936
0
LINE
8
Black
10
52.9864
20
-91.7936
11
53.6936
21
-91.7936
0
LINE
8
Black
10
55.8536
20
-100.354
11
55.8536
21
-99.6464
0
LINE
8
Black
10
55.8536
20
-99.6464
11
55.1464
21
-99.6464
0
LINE
8
Black
10
55.1464
20
-99.6464
11
55.1464
21
-100.354
0
LINE
8
Black
10
55.1464
20
-100.354
11
55.8536
21
-100.354
0
LINE
8
Black
10
65.4336
20
-27.3736
11
65.4336
21
-26.6664
0
LINE
8
Black
10
65.4336
20
-26.6664
11
64.7264
21
-26.6664
0
LINE
8
Black
10
64.7264
20
-26.6664
11
64.7264
21
-27.3736
0
LINE
8
Black
10
64.7264
20
-27.3736
11
65.4336
21
-27.3736
0
LINE
8
Black
10
65.4336
20
-29.9136
11
65.4336
21
-29.2064
0
LINE
8
Black
10
65.4336
20
-29.2064
11
64.7264
21
-29.2064
0
LINE
8
Black
10
64.7264
20
-29.2064
11
64.7264
21
-29.9136
0
LINE
8
Black
10
64.7264
20
-29.9136
11
65.4336
21
-29.9136
0
LINE
8
Black
10
65.4336
20
-32.4536
11
65.4336
21
-31.7464
0
LINE
8
Black
10
65.4336
20
-31.7464
11
64.7264
21
-31.7464
0
LINE
8
Black
10
64.7264
20
-31.7464
11
64.7264
21
-32.4536
0
LINE
8
Black
10
64.7264
20
-32.4536
11
65.4336
21
-32.4536
0
LINE
8
Black
10
65.4336
20
-34.9936
11
65.4336
21
-34.2864
0
LINE
8
Black
10
65.4336
20
-34.2864
11
64.7264
21
-34.2864
0
LINE
8
Black
10
64.7264
20
-34.2864
11
64.7264
21
-34.9936
0
LINE
8
Black
10
64.7264
20
-34.9936
11
65.4336
21
-34.9936
0
LINE
8
Black
10
67.9736
20
-27.3736
11
67.9736
21
-26.6664
0
LINE
8
Black
10
67.9736
20
-26.6664
11
67.2664
21
-26.6664
0
LINE
8
Black
10
67.2664
20
-26.6664
11
67.2664
21
-27.3736
0
LINE
8
Black
10
67.2664
20
-27.3736
11
67.9736
21
-27.3736
0
LINE
8
Black
10
67.9736
20
-29.9136
11
67.9736
21
-29.2064
0
LINE
8
Black
10
67.9736
20
-29.2064
11
67.2664
21
-29.2064
0
LINE
8
Black
10
67.2664
20
-29.2064
11
67.2664
21
-29.9136
0
LINE
8
Black
10
67.2664
20
-29.9136
11
67.9736
21
-29.9136
0
LINE
8
Black
10
67.9736
20
-32.4536
11
67.9736
21
-31.7464
0
LINE
8
Black
10
67.9736
20
-31.7464
11
67.2664
21
-31.7464
0
LINE
8
Black
10
67.2664
20
-31.7464
11
67.2664
21
-32.4536
0
LINE
8
Black
10
67.2664
20
-32.4536
11
67.9736
21
-32.4536
0
LINE
8
Black
10
67.9736
20
-34.9936
11
67.9736
21
-34.2864
0
LINE
8
Black
10
67.9736
20
-34.2864
11
67.2664
21
-34.2864
0
LINE
8
Black
10
67.2664
20
-34.2864
11
67.2664
21
-34.9936
0
LINE
8
Black
10
67.2664
20
-34.9936
11
67.9736
21
-34.9936
0
LINE
8
Black
10
68.9336
20
-48.6136
11
68.9336
21
-47.9064
0
LINE
8
Black
10
68.9336
20
-47.9064
11
68.2264
21
-47.9064
0
LINE
8
Black
10
68.2264
20
-47.9064
11
68.2264
21
-48.6136
0
LINE
8
Black
10
68.2264
20
-48.6136
11
68.9336
21
-48.6136
0
LINE
8
Black
10
71.4736
20
-48.6136
11
71.4736
21
-47.9064
0
LINE
8
Black
10
71.4736
20
-47.9064
11
70.7664
21
-47.9064
0
LINE
8
Black
10
70.7664
20
-47.9064
11
70.7664
21
-48.6136
0
LINE
8
Black
10
70.7664
20
-48.6136
11
71.4736
21
-48.6136
0
LINE
8
Black
10
71.4736
20
-89.2536
11
71.4736
21
-88.5464
0
LINE
8
Black
10
71.4736
20
-88.5464
11
70.7664
21
-88.5464
0
LINE
8
Black
10
70.7664
20
-88.5464
11
70.7664
21
-89.2536
0
LINE
8
Black
10
70.7664
20
-89.2536
11
71.4736
21
-89.2536
0
LINE
8
Black
10
71.4736
20
-91.7936
11
71.4736
21
-91.0864
0
LINE
8
Black
10
71.4736
20
-91.0864
11
70.7664
21
-91.0864
0
LINE
8
Black
10
70.7664
20
-91.0864
11
70.7664
21
-91.7936
0
LINE
8
Black
10
70.7664
20
-91.7936
11
71.4736
21
-91.7936
0
LINE
8
Black
10
74.0136
20
-48.6136
11
74.0136
21
-47.9064
0
LINE
8
Black
10
74.0136
20
-47.9064
11
73.3064
21
-47.9064
0
LINE
8
Black
10
73.3064
20
-47.9064
11
73.3064
21
-48.6136
0
LINE
8
Black
10
73.3064
20
-48.6136
11
74.0136
21
-48.6136
0
LINE
8
Black
10
74.0136
20
-89.2536
11
74.0136
21
-88.5464
0
LINE
8
Black
10
74.0136
20
-88.5464
11
73.3064
21
-88.5464
0
LINE
8
Black
10
73.3064
20
-88.5464
11
73.3064
21
-89.2536
0
LINE
8
Black
10
73.3064
20
-89.2536
11
74.0136
21
-89.2536
0
LINE
8
Black
10
74.0136
20
-91.7936
11
74.0136
21
-91.0864
0
LINE
8
Black
10
74.0136
20
-91.0864
11
73.3064
21
-91.0864
0
LINE
8
Black
10
73.3064
20
-91.0864
11
73.3064
21
-91.7936
0
LINE
8
Black
10
73.3064
20
-91.7936
11
74.0136
21
-91.7936
0
LINE
8
Black
10
80.1636
20
-31.9936
11
80.1636
21
-31.2864
0
LINE
8
Black
10
80.1636
20
-31.2864
11
79.4564
21
-31.2864
0
LINE
8
Black
10
79.4564
20
-31.2864
11
79.4564
21
-31.9936
0
LINE
8
Black
10
79.4564
20
-31.9936
11
80.1636
21
-31.9936
0
LINE
8
Black
10
80.1636
20
-34.5336
11
80.1636
21
-33.8264
0
LINE
8
Black
10
80.1636
20
-33.8264
11
79.4564
21
-33.8264
0
LINE
8
Black
10
79.4564
20
-33.8264
11
79.4564
21
-34.5336
0
LINE
8
Black
10
79.4564
20
-34.5336
11
80.1636
21
-34.5336
0
LINE
8
Black
10
80.1636
20
-37.0736
11
80.1636
21
-36.3664
0
LINE
8
Black
10
80.1636
20
-36.3664
11
79.4564
21
-36.3664
0
LINE
8
Black
10
79.4564
20
-36.3664
11
79.4564
21
-37.0736
0
LINE
8
Black
10
79.4564
20
-37.0736
11
80.1636
21
-37.0736
0
LINE
8
Black
10
80.1636
20
-39.6136
11
80.1636
21
-38.9064
0
LINE
8
Black
10
80.1636
20
-38.9064
11
79.4564
21
-38.9064
0
LINE
8
Black
10
79.4564
20
-38.9064
11
79.4564
21
-39.6136
0
LINE
8
Black
10
79.4564
20
-39.6136
11
80.1636
21
-39.6136
0
LINE
8
Black
10
82.7036
20
-31.9936
11
82.7036
21
-31.2864
0
LINE
8
Black
10
82.7036
20
-31.2864
11
81.9964
21
-31.2864
0
LINE
8
Black
10
81.9964
20
-31.2864
11
81.9964
21
-31.9936
0
LINE
8
Black
10
81.9964
20
-31.9936
11
82.7036
21
-31.9936
0
LINE
8
Black
10
82.7036
20
-34.5336
11
82.7036
21
-33.8264
0
LINE
8
Black
10
82.7036
20
-33.8264
11
81.9964
21
-33.8264
0
LINE
8
Black
10
81.9964
20
-33.8264
11
81.9964
21
-34.5336
0
LINE
8
Black
10
81.9964
20
-34.5336
11
82.7036
21
-34.5336
0
LINE
8
Black
10
82.7036
20
-37.0736
11
82.7036
21
-36.3664
0
LINE
8
Black
10
82.7036
20
-36.3664
11
81.9964
21
-36.3664
0
LINE
8
Black
10
81.9964
20
-36.3664
11
81.9964
21
-37.0736
0
LINE
8
Black
10
81.9964
20
-37.0736
11
82.7036
21
-37.0736
0
LINE
8
Black
10
82.7036
20
-39.6136
11
82.7036
21
-38.9064
0
LINE
8
Black
10
82.7036
20
-38.9064
11
81.9964
21
-38.9064
0
LINE
8
Black
10
81.9964
20
-38.9064
11
81.9964
21
-39.6136
0
LINE
8
Black
10
81.9964
20
-39.6136
11
82.7036
21
-39.6136
0
LINE
8
Black
10
84.1736
20
-46.0736
11
84.1736
21
-45.3664
0
LINE
8
Black
10
84.1736
20
-45.3664
11
83.4664
21
-45.3664
0
LINE
8
Black
10
83.4664
20
-45.3664
11
83.4664
21
-46.0736
0
LINE
8
Black
10
83.4664
20
-46.0736
11
84.1736
21
-46.0736
0
LINE
8
Black
10
84.1736
20
-48.6136
11
84.1736
21
-47.9064
0
LINE
8
Black
10
84.1736
20
-47.9064
11
83.4664
21
-47.9064
0
LINE
8
Black
10
83.4664
20
-47.9064
11
83.4664
21
-48.6136
0
LINE
8
Black
10
83.4664
20
-48.6136
11
84.1736
21
-48.6136
0
LINE
8
Black
10
84.1736
20
-51.1536
11
84.1736
21
-50.4464
0
LINE
8
Black
10
84.1736
20
-50.4464
11
83.4664
21
-50.4464
0
LINE
8
Black
10
83.4664
20
-50.4464
11
83.4664
21
-51.1536
0
LINE
8
Black
10
83.4664
20
-51.1536
11
84.1736
21
-51.1536
0
LINE
8
Black
10
84.1736
20
-53.6936
11
84.1736
21
-52.9864
0
LINE
8
Black
10
84.1736
20
-52.9864
11
83.4664
21
-52.9864
0
LINE
8
Black
10
83.4664
20
-52.9864
11
83.4664
21
-53.6936
0
LINE
8
Black
10
83.4664
20
-53.6936
11
84.1736
21
-53.6936
0
LINE
8
Black
10
84.1736
20
-56.2336
11
84.1736
21
-55.5264
0
LINE
8
Black
10
84.1736
20
-55.5264
11
83.4664
21
-55.5264
0
LINE
8
Black
10
83.4664
20
-55.5264
11
83.4664
21
-56.2336
0
LINE
8
Black
10
83.4664
20
-56.2336
11
84.1736
21
-56.2336
0
LINE
8
Black
10
84.1736
20
-58.7736
11
84.1736
21
-58.0664
0
LINE
8
Black
10
84.1736
20
-58.0664
11
83.4664
21
-58.0664
0
LINE
8
Black
10
83.4664
20
-58.0664
11
83.4664
21
-58.7736
0
LINE
8
Black
10
83.4664
20
-58.7736
11
84.1736
21
-58.7736
0
LINE
8
Black
10
85.2436
20
-31.9936
11
85.2436
21
-31.2864
0
LINE
8
Black
10
85.2436
20
-31.2864
11
84.5364
21
-31.2864
0
LINE
8
Black
10
84.5364
20
-31.2864
11
84.5364
21
-31.9936
0
LINE
8
Black
10
84.5364
20
-31.9936
11
85.2436
21
-31.9936
0
LINE
8
Black
10
85.2436
20
-34.5336
11
85.2436
21
-33.8264
0
LINE
8
Black
10
85.2436
20
-33.8264
11
84.5364
21
-33.8264
0
LINE
8
Black
10
84.5364
20
-33.8264
11
84.5364
21
-34.5336
0
LINE
8
Black
10
84.5364
20
-34.5336
11
85.2436
21
-34.5336
0
LINE
8
Black
10
85.2436
20
-37.0736
11
85.2436
21
-36.3664
0
LINE
8
Black
10
85.2436
20
-36.3664
11
84.5364
21
-36.3664
0
LINE
8
Black
10
84.5364
20
-36.3664
11
84.5364
21
-37.0736
0
LINE
8
Black
10
84.5364
20
-37.0736
11
85.2436
21
-37.0736
0
LINE
8
Black
10
85.2436
20
-39.6136
11
85.2436
21
-38.9064
0
LINE
8
Black
10
85.2436
20
-38.9064
11
84.5364
21
-38.9064
0
LINE
8
Black
10
84.5364
20
-38.9064
11
84.5364
21
-39.6136
0
LINE
8
Black
10
84.5364
20
-39.6136
11
85.2436
21
-39.6136
0
LINE
8
Black
10
90.7536
20
-100.354
11
90.7536
21
-99.6464
0
LINE
8
Black
10
90.7536
20
-99.6464
11
90.0464
21
-99.6464
0
LINE
8
Black
10
90.0464
20
-99.6464
11
90.0464
21
-100.354
0
LINE
8
Black
10
90.0464
20
-100.354
11
90.7536
21
-100.354
0
LINE
8
Black
10
93.2936
20
-100.354
11
93.2936
21
-99.6464
0
LINE
8
Black
10
93.2936
20
-99.6464
11
92.5864
21
-99.6464
0
LINE
8
Black
10
92.5864
20
-99.6464
11
92.5864
21
-100.354
0
LINE
8
Black
10
92.5864
20
-100.354
11
93.2936
21
-100.354
0
LINE
8
Black
10
94.3336
20
-25.7536
11
94.3336
21
-25.0464
0
LINE
8
Black
10
94.3336
20
-25.0464
11
93.6264
21
-25.0464
0
LINE
8
Black
10
93.6264
20
-25.0464
11
93.6264
21
-25.7536
0
LINE
8
Black
10
93.6264
20
-25.7536
11
94.3336
21
-25.7536
0
LINE
8
Black
10
94.3336
20
-28.2936
11
94.3336
21
-27.5864
0
LINE
8
Black
10
94.3336
20
-27.5864
11
93.6264
21
-27.5864
0
LINE
8
Black
10
93.6264
20
-27.5864
11
93.6264
21
-28.2936
0
LINE
8
Black
10
93.6264
20
-28.2936
11
94.3336
21
-28.2936
0
LINE
8
Black
10
95.8336
20
-100.354
11
95.8336
21
-99.6464
0
LINE
8
Black
10
95.8336
20
-99.6464
11
95.1264
21
-99.6464
0
LINE
8
Black
10
95.1264
20
-99.6464
11
95.1264
21
-100.354
0
LINE
8
Black
10
95.1264
20
-100.354
11
95.8336
21
-100.354
0
LINE
8
Black
10
96.8736
20
-46.0736
11
96.8736
21
-45.3664
0
LINE
8
Black
10
96.8736
20
-45.3664
11
96.1664
21
-45.3664
0
LINE
8
Black
10
96.1664
20
-45.3664
11
96.1664
21
-46.0736
0
LINE
8
Black
10
96.1664
20
-46.0736
11
96.8736
21
-46.0736
0
LINE
8
Black
10
96.8736
20
-48.6136
11
96.8736
21
-47.9064
0
LINE
8
Black
10
96.8736
20
-47.9064
11
96.1664
21
-47.9064
0
LINE
8
Black
10
96.1664
20
-47.9064
11
96.1664
21
-48.6136
0
LINE
8
Black
10
96.1664
20
-48.6136
11
96.8736
21
-48.6136
0
LINE
8
Black
10
96.8736
20
-51.1536
11
96.8736
21
-50.4464
0
LINE
8
Black
10
96.8736
20
-50.4464
11
96.1664
21
-50.4464
0
LINE
8
Black
10
96.1664
20
-50.4464
11
96.1664
21
-51.1536
0
LINE
8
Black
10
96.1664
20
-51.1536
11
96.8736
21
-51.1536
0
LINE
8
Black
10
96.8736
20
-53.6936
11
96.8736
21
-52.9864
0
LINE
8
Black
10
96.8736
20
-52.9864
11
96.1664
21
-52.9864
0
LINE
8
Black
10
96.1664
20
-52.9864
11
96.1664
21
-53.6936
0
LINE
8
Black
10
96.1664
20
-53.6936
11
96.8736
21
-53.6936
0
LINE
8
Black
10
96.8736
20
-56.2336
11
96.8736
21
-55.5264
0
LINE
8
Black
10
96.8736
20
-55.5264
11
96.1664
21
-55.5264
0
LINE
8
Black
10
96.1664
20
-55.5264
11
96.1664
21
-56.2336
0
LINE
8
Black
10
96.1664
20
-56.2336
11
96.8736
21
-56.2336
0
LINE
8
Black
10
96.8736
20
-58.7736
11
96.8736
21
-58.0664
0
LINE
8
Black
10
96.8736
20
-58.0664
11
96.1664
21
-58.0664
0
LINE
8
Black
10
96.1664
20
-58.0664
11
96.1664
21
-58.7736
0
LINE
8
Black
10
96.1664
20
-58.7736
11
96.8736
21
-58.7736
0
LINE
8
Black
10
98.3736
20
-100.354
11
98.3736
21
-99.6464
0
LINE
8
Black
10
98.3736
20
-99.6464
11
97.6664
21
-99.6464
0
LINE
8
Black
10
97.6664
20
-99.6464
11
97.6664
21
-100.354
0
LINE
8
Black
10
97.6664
20
-100.354
11
98.3736
21
-100.354
0
LINE
8
Black
10
100.914
20
-100.354
11
100.914
21
-99.6464
0
LINE
8
Black
10
100.914
20
-99.6464
11
100.206
21
-99.6464
0
LINE
8
Black
10
100.206
20
-99.6464
11
100.206
21
-100.354
0
LINE
8
Black
10
100.206
20
-100.354
11
100.914
21
-100.354
0
LINE
8
Black
10
102.544
20
-78.8036
11
102.544
21
-78.0964
0
LINE
8
Black
10
102.544
20
-78.0964
11
101.836
21
-78.0964
0
LINE
8
Black
10
101.836
20
-78.0964
11
101.836
21
-78.8036
0
LINE
8
Black
10
101.836
20
-78.8036
11
102.544
21
-78.8036
0
LINE
8
Black
10
102.544
20
-81.3436
11
102.544
21
-80.6364
0
LINE
8
Black
10
102.544
20
-80.6364
11
101.836
21
-80.6364
0
LINE
8
Black
10
101.836
20
-80.6364
11
101.836
21
-81.3436
0
LINE
8
Black
10
101.836
20
-81.3436
11
102.544
21
-81.3436
0
LINE
8
Black
10
102.544
20
-83.8836
11
102.544
21
-83.1764
0
LINE
8
Black
10
102.544
20
-83.1764
11
101.836
21
-83.1764
0
LINE
8
Black
10
101.836
20
-83.1764
11
101.836
21
-83.8836
0
LINE
8
Black
10
101.836
20
-83.8836
11
102.544
21
-83.8836
0
LINE
8
Black
10
102.544
20
-86.4236
11
102.544
21
-85.7164
0
LINE
8
Black
10
102.544
20
-85.7164
11
101.836
21
-85.7164
0
LINE
8
Black
10
101.836
20
-85.7164
11
101.836
21
-86.4236
0
LINE
8
Black
10
101.836
20
-86.4236
11
102.544
21
-86.4236
0
LINE
8
Black
10
102.544
20
-88.9636
11
102.544
21
-88.2564
0
LINE
8
Black
10
102.544
20
-88.2564
11
101.836
21
-88.2564
0
LINE
8
Black
10
101.836
20
-88.2564
11
101.836
21
-88.9636
0
LINE
8
Black
10
101.836
20
-88.9636
11
102.544
21
-88.9636
0
LINE
8
Black
10
102.544
20
-91.5036
11
102.544
21
-90.7964
0
LINE
8
Black
10
102.544
20
-90.7964
11
101.836
21
-90.7964
0
LINE
8
Black
10
101.836
20
-90.7964
11
101.836
21
-91.5036
0
LINE
8
Black
10
101.836
20
-91.5036
11
102.544
21
-91.5036
0
LINE
8
Black
10
102.574
20
-55.9436
11
102.574
21
-55.2364
0
LINE
8
Black
10
102.574
20
-55.2364
11
101.866
21
-55.2364
0
LINE
8
Black
10
101.866
20
-55.2364
11
101.866
21
-55.9436
0
LINE
8
Black
10
101.866
20
-55.9436
11
102.574
21
-55.9436
0
LINE
8
Black
10
102.574
20
-58.4836
11
102.574
21
-57.7764
0
LINE
8
Black
10
102.574
20
-57.7764
11
101.866
21
-57.7764
0
LINE
8
Black
10
101.866
20
-57.7764
11
101.866
21
-58.4836
0
LINE
8
Black
10
101.866
20
-58.4836
11
102.574
21
-58.4836
0
LINE
8
Black
10
102.574
20
-61.0236
11
102.574
21
-60.3164
0
LINE
8
Black
10
102.574
20
-60.3164
11
101.866
21
-60.3164
0
LINE
8
Black
10
101.866
20
-60.3164
11
101.866
21
-61.0236
0
LINE
8
Black
10
101.866
20
-61.0236
11
102.574
21
-61.0236
0
LINE
8
Black
10
102.574
20
-63.5636
11
102.574
21
-62.8564
0
LINE
8
Black
10
102.574
20
-62.8564
11
101.866
21
-62.8564
0
LINE
8
Black
10
101.866
20
-62.8564
11
101.866
21
-63.5636
0
LINE
8
Black
10
101.866
20
-63.5636
11
102.574
21
-63.5636
0
LINE
8
Black
10
102.574
20
-66.1036
11
102.574
21
-65.3964
0
LINE
8
Black
10
102.574
20
-65.3964
11
101.866
21
-65.3964
0
LINE
8
Black
10
101.866
20
-65.3964
11
101.866
21
-66.1036
0
LINE
8
Black
10
101.866
20
-66.1036
11
102.574
21
-66.1036
0
LINE
8
Black
10
102.574
20
-68.6436
11
102.574
21
-67.9364
0
LINE
8
Black
10
102.574
20
-67.9364
11
101.866
21
-67.9364
0
LINE
8
Black
10
101.866
20
-67.9364
11
101.866
21
-68.6436
0
LINE
8
Black
10
101.866
20
-68.6436
11
102.574
21
-68.6436
0
LINE
8
Black
10
102.574
20
-71.1836
11
102.574
21
-70.4764
0
LINE
8
Black
10
102.574
20
-70.4764
11
101.866
21
-70.4764
0
LINE
8
Black
10
101.866
20
-70.4764
11
101.866
21
-71.1836
0
LINE
8
Black
10
101.866
20
-71.1836
11
102.574
21
-71.1836
0
LINE
8
Black
10
102.574
20
-73.7236
11
102.574
21
-73.0164
0
LINE
8
Black
10
102.574
20
-73.0164
11
101.866
21
-73.0164
0
LINE
8
Black
10
101.866
20
-73.0164
11
101.866
21
-73.7236
0
LINE
8
Black
10
101.866
20
-73.7236
11
102.574
21
-73.7236
0
LINE
8
Black
10
103.454
20
-100.354
11
103.454
21
-99.6464
0
LINE
8
Black
10
103.454
20
-99.6464
11
102.746
21
-99.6464
0
LINE
8
Black
10
102.746
20
-99.6464
11
102.746
21
-100.354
0
LINE
8
Black
10
102.746
20
-100.354
11
103.454
21
-100.354
0
LINE
8
Black
10
105.994
20
-100.354
11
105.994
21
-99.6464
0
LINE
8
Black
10
105.994
20
-99.6464
11
105.286
21
-99.6464
0
LINE
8
Black
10
105.286
20
-99.6464
11
105.286
21
-100.354
0
LINE
8
Black
10
105.286
20
-100.354
11
105.994
21
-100.354
0
LINE
8
Black
10
117.194
20
-25.7536
11
117.194
21
-25.0464
0
LINE
8
Black
10
117.194
20
-25.0464
11
116.486
21
-25.0464
0
LINE
8
Black
10
116.486
20
-25.0464
11
116.486
21
-25.7536
0
LINE
8
Black
10
116.486
20
-25.7536
11
117.194
21
-25.7536
0
LINE
8
Black
10
117.194
20
-28.2936
11
117.194
21
-27.5864
0
LINE
8
Black
10
117.194
20
-27.5864
11
116.486
21
-27.5864
0
LINE
8
Black
10
116.486
20
-27.5864
11
116.486
21
-28.2936
0
LINE
8
Black
10
116.486
20
-28.2936
11
117.194
21
-28.2936
0
LINE
8
Black
10
117.194
20
-30.8336
11
117.194
21
-30.1264
0
LINE
8
Black
10
117.194
20
-30.1264
11
116.486
21
-30.1264
0
LINE
8
Black
10
116.486
20
-30.1264
11
116.486
21
-30.8336
0
LINE
8
Black
10
116.486
20
-30.8336
11
117.194
21
-30.8336
0
LINE
8
Black
10
117.194
20
-33.3736
11
117.194
21
-32.6664
0
LINE
8
Black
10
117.194
20
-32.6664
11
116.486
21
-32.6664
0
LINE
8
Black
10
116.486
20
-32.6664
11
116.486
21
-33.3736
0
LINE
8
Black
10
116.486
20
-33.3736
11
117.194
21
-33.3736
0
LINE
8
Black
10
117.194
20
-91.7936
11
117.194
21
-91.0864
0
LINE
8
Black
10
117.194
20
-91.0864
11
116.486
21
-91.0864
0
LINE
8
Black
10
116.486
20
-91.0864
11
116.486
21
-91.7936
0
LINE
8
Black
10
116.486
20
-91.7936
11
117.194
21
-91.7936
0
LINE
8
Black
10
117.194
20
-94.3336
11
117.194
21
-93.6264
0
LINE
8
Black
10
117.194
20
-93.6264
11
116.486
21
-93.6264
0
LINE
8
Black
10
116.486
20
-93.6264
11
116.486
21
-94.3336
0
LINE
8
Black
10
116.486
20
-94.3336
11
117.194
21
-94.3336
0
LINE
8
Black
10
117.194
20
-96.8736
11
117.194
21
-96.1664
0
LINE
8
Black
10
117.194
20
-96.1664
11
116.486
21
-96.1664
0
LINE
8
Black
10
116.486
20
-96.1664
11
116.486
21
-96.8736
0
LINE
8
Black
10
116.486
20
-96.8736
11
117.194
21
-96.8736
0
LINE
8
Black
10
117.194
20
-99.4136
11
117.194
21
-98.7064
0
LINE
8
Black
10
117.194
20
-98.7064
11
116.486
21
-98.7064
0
LINE
8
Black
10
116.486
20
-98.7064
11
116.486
21
-99.4136
0
LINE
8
Black
10
116.486
20
-99.4136
11
117.194
21
-99.4136
0
LINE
8
Black
10
60.96
20
-76.75
11
61.51
21
-76.2
0
LINE
8
Black
10
61.51
20
-76.2
11
60.96
21
-75.65
0
LINE
8
Black
10
60.96
20
-75.65
11
60.41
21
-76.2
0
LINE
8
Black
10
60.41
20
-76.2
11
60.96
21
-76.75
0
LINE
8
Black
10
60.96
20
-81.25
11
61.51
21
-80.7
0
LINE
8
Black
10
61.51
20
-80.7
11
60.96
21
-80.15
0
LINE
8
Black
10
60.96
20
-80.15
11
60.41
21
-80.7
0
LINE
8
Black
10
60.41
20
-80.7
11
60.96
21
-81.25
0
LINE
8
Black
10
67.46
20
-76.75
11
68.01
21
-76.2
0
LINE
8
Black
10
68.01
20
-76.2
11
67.46
21
-75.65
0
LINE
8
Black
10
67.46
20
-75.65
11
66.91
21
-76.2
0
LINE
8
Black
10
66.91
20
-76.2
11
67.46
21
-76.75
0
LINE
8
Black
10
67.46
20
-81.25
11
68.01
21
-80.7
0
LINE
8
Black
10
68.01
20
-80.7
11
67.46
21
-80.15
0
LINE
8
Black
10
67.46
20
-80.15
11
66.91
21
-80.7
0
LINE
8
Black
10
66.91
20
-80.7
11
67.46
21
-81.25
0
LINE
8
Black
10
71.12
20
-76.75
11
71.67
21
-76.2
0
LINE
8
Black
10
71.67
20
-76.2
11
71.12
21
-75.65
0
LINE
8
Black
10
71.12
20
-75.65
11
70.57
21
-76.2
0
LINE
8
Black
10
70.57
20
-76.2
11
71.12
21
-76.75
0
LINE
8
Black
10
71.12
20
-81.25
11
71.67
21
-80.7
0
LINE
8
Black
10
71.67
20
-80.7
11
71.12
21
-80.15
0
LINE
8
Black
10
71.12
20
-80.15
11
70.57
21
-80.7
0
LINE
8
Black
10
70.57
20
-80.7
11
71.12
21
-81.25
0
LINE
8
Black
10
77.62
20
-76.75
11
78.17
21
-76.2
0
LINE
8
Black
10
78.17
20
-76.2
11
77.62
21
-75.65
0
LINE
8
Black
10
77.62
20
-75.65
11
77.07
21
-76.2
0
LINE
8
Black
10
77.07
20
-76.2
11
77.62
21
-76.75
0
LINE
8
Black
10
77.62
20
-81.25
11
78.17
21
-80.7
0
LINE
8
Black
10
78.17
20
-80.7
11
77.62
21
-80.15
0
LINE
8
Black
10
77.62
20
-80.15
11
77.07
21
-80.7
0
LINE
8
Black
10
77.07
20
-80.7
11
77.62
21
-81.25
0
LINE
8
Black
10
81.28
20
-76.75
11
81.83
21
-76.2
0
LINE
8
Black
10
81.83
20
-76.2
11
81.28
21
-75.65
0
LINE
8
Black
10
81.28
20
-75.65
11
80.73
21
-76.2
0
LINE
8
Black
10
80.73
20
-76.2
11
81.28
21
-76.75
0
LINE
8
Black
10
81.28
20
-81.25
11
81.83
21
-80.7
0
LINE
8
Black
10
81.83
20
-80.7
11
81.28
21
-80.15
0
LINE
8
Black
10
81.28
20
-80.15
11
80.73
21
-80.7
0
LINE
8
Black
10
80.73
20
-80.7
11
81.28
21
-81.25
0
LINE
8
Black
10
87.78
20
-76.75
11
88.33
21
-76.2
0
LINE
8
Black
10
88.33
20
-76.2
11
87.78
21
-75.65
0
LINE
8
Black
10
87.78
20
-75.65
11
87.23
21
-76.2
0
LINE
8
Black
10
87.23
20
-76.2
11
87.78
21
-76.75
0
LINE
8
Black
10
87.78
20
-81.25
11
88.33
21
-80.7
0
LINE
8
Black
10
88.33
20
-80.7
11
87.78
21
-80.15
0
LINE
8
Black
10
87.78
20
-80.15
11
87.23
21
-80.7
0
LINE
8
Black
10
87.23
20
-80.7
11
87.78
21
-81.25
0
LINE
8
Black
10
95.9485
20
-68.0085
11
97.0915
21
-69.1515
0
LINE
8
Black
10
97.0915
20
-68.0085
11
95.9485
21
-69.1515
0
CIRCLE
8
Black
10
96.52
20
-68.58
40
0.5715
0
LINE
8
Black
10
95.9485
20
-70.5485
11
97.0915
21
-71.6915
0
LINE
8
Black
10
97.0915
20
-70.5485
11
95.9485
21
-71.6915
0
CIRCLE
8
Black
10
96.52
20
-71.12
40
0.5715
0
LINE
8
Black
10
95.9485
20
-73.0885
11
97.0915
21
-74.2315
0
LINE
8
Black
10
97.0915
20
-73.0885
11
95.9485
21
-74.2315
0
CIRCLE
8
Black
10
96.52
20
-73.66
40
0.5715
0
LINE
8
Black
10
95.9485
20
-83.2485
11
97.0915
21
-84.3915
0
LINE
8
Black
10
97.0915
20
-83.2485
11
95.9485
21
-84.3915
0
CIRCLE
8
Black
10
96.52
20
-83.82
40
0.5715
0
LINE
8
Black
10
95.9485
20
-85.7885
11
97.0915
21
-86.9315
0
LINE
8
Black
10
97.0915
20
-85.7885
11
95.9485
21
-86.9315
0
CIRCLE
8
Black
10
96.52
20
-86.36
40
0.5715
0
LINE
8
Black
10
95.9485
20
-88.3285
11
97.0915
21
-89.4715
0
LINE
8
Black
10
97.0915
20
-88.3285
11
95.9485
21
-89.4715
0
CIRCLE
8
Black
10
96.52
20
-88.9
40
0.5715
0
LINE
8
Black
10
32.476
20
-91.476
11
35.524
21
-94.524
0
LINE
8
Black
10
35.524
20
-91.476
11
32.476
21
-94.524
0
LINE
8
Black
10
34
20
-91.476
11
34
21
-94.524
0
LINE
8
Black
10
32.476
20
-93
11
35.524
21
-93
0
LINE
8
Black
10
38.476
20
-29.476
11
41.524
21
-32.524
0
LINE
8
Black
10
41.524
20
-29.476
11
38.476
21
-32.524
0
LINE
8
Black
10
40
20
-29.476
11
40
21
-32.524
0
LINE
8
Black
10
38.476
20
-31
11
41.524
21
-31
0
LINE
8
Black
10
110.476
20
-29.476
11
113.524
21
-32.524
0
LINE
8
Black
10
113.524
20
-29.476
11
110.476
21
-32.524
0
LINE
8
Black
10
112
20
-29.476
11
112
21
-32.524
0
LINE
8
Black
10
110.476
20
-31
11
113.524
21
-31
0
LINE
8
Black
10
110.476
20
-91.476
11
113.524
21
-94.524
0
LINE
8
Black
10
113.524
20
-91.476
11
110.476
21
-94.524
0
LINE
8
Black
10
112
20
-91.476
11
112
21
-94.524
0
LINE
8
Black
10
110.476
20
-93
11
113.524
21
-93
0
LINE
8
Black
10
26.6393
20
-107.732
11
26.6393
21
-104.732
0
LINE
8
Black
10
26.6393
20
-104.732
11
27.3536
21
-104.732
0
LINE
8
Black
10
27.3536
20
-104.732
11
27.7821
21
-104.875
0
LINE
8
Black
10
27.7821
20
-104.875
11
28.0679
21
-105.161
0
LINE
8
Black
10
28.0679
20
-105.161
11
28.2107
21
-105.446
0
LINE
8
Black
10
28.2107
20
-105.446
11
28.3536
21
-106.018
0
LINE
8
Black
10
28.3536
20
-106.018
11
28.3536
21
-106.446
0
LINE
8
Black
10
28.3536
20
-106.446
11
28.2107
21
-107.018
0
LINE
8
Black
10
28.2107
20
-107.018
11
28.0679
21
-107.304
0
LINE
8
Black
10
28.0679
20
-107.304
11
27.7821
21
-107.589
0
LINE
8
Black
10
27.7821
20
-107.589
11
27.3536
21
-107.732
0
LINE
8
Black
10
27.3536
20
-107.732
11
26.6393
21
-107.732
0
LINE
8
Black
10
29.6393
20
-107.732
11
29.6393
21
-105.732
0
LINE
8
Black
10
29.6393
20
-106.304
11
29.7821
21
-106.018
0
LINE
8
Black
10
29.7821
20
-106.018
11
29.925
21
-105.875
0
LINE
8
Black
10
29.925
20
-105.875
11
30.2107
21
-105.732
0
LINE
8
Black
10
30.2107
20
-105.732
11
30.4964
21
-105.732
0
LINE
8
Black
10
31.4964
20
-107.732
11
31.4964
21
-105.732
0
LINE
8
Black
10
31.4964
20
-104.732
11
31.3536
21
-104.875
0
LINE
8
Black
10
31.3536
20
-104.875
11
31.4964
21
-105.018
0
LINE
8
Black
10
31.4964
20
-105.018
11
31.6393
21
-104.875
0
LINE
8
Black
10
31.6393
20
-104.875
11
31.4964
21
-104.732
0
LINE
8
Black
10
31.4964
20
-104.732
11
31.4964
21
-105.018
0
LINE
8
Black
10
33.3536
20
-107.732
11
33.0679
21
-107.589
0
LINE
8
Black
10
33.0679
20
-107.589
11
32.925
21
-107.304
0
LINE
8
Black
10
32.925
20
-107.304
11
32.925
21
-104.732
0
LINE
8
Black
10
34.925
20
-107.732
11
34.6393
21
-107.589
0
LINE
8
Black
10
34.6393
20
-107.589
11
34.4964
21
-107.304
0
LINE
8
Black
10
34.4964
20
-107.304
11
34.4964
21
-104.732
0
LINE
8
Black
10
38.3536
20
-107.732
11
38.3536
21
-104.732
0
LINE
8
Black
10
38.3536
20
-104.732
11
39.3536
21
-106.875
0
LINE
8
Black
10
39.3536
20
-106.875
11
40.3536
21
-104.732
0
LINE
8
Black
10
40.3536
20
-104.732
11
40.3536
21
-107.732
0
LINE
8
Black
10
43.0679
20
-107.732
11
43.0679
21
-106.161
0
LINE
8
Black
10
43.0679
20
-106.161
11
42.925
21
-105.875
0
LINE
8
Black
10
42.925
20
-105.875
11
42.6393
21
-105.732
0
LINE
8
Black
10
42.6393
20
-105.732
11
42.0679
21
-105.732
0
LINE
8
Black
10
42.0679
20
-105.732
11
41.7821
21
-105.875
0
LINE
8
Black
10
43.0679
20
-107.589
11
42.7821
21
-107.732
0
LINE
8
Black
10
42.7821
20
-107.732
11
42.0679
21
-107.732
0
LINE
8
Black
10
42.0679
20
-107.732
11
41.7821
21
-107.589
0
LINE
8
Black
10
41.7821
20
-107.589
11
41.6393
21
-107.304
0
LINE
8
Black
10
41.6393
20
-107.304
11
41.6393
21
-107.018
0
LINE
8
Black
10
41.6393
20
-107.018
11
41.7821
21
-106.732
0
LINE
8
Black
10
41.7821
20
-106.732
11
42.0679
21
-106.589
0
LINE
8
Black
10
42.0679
20
-106.589
11
42.7821
21
-106.589
0
LINE
8
Black
10
42.7821
20
-106.589
11
43.0679
21
-106.446
0
LINE
8
Black
10
44.4964
20
-105.732
11
44.4964
21
-108.732
0
LINE
8
Black
10
44.4964
20
-105.875
11
44.7821
21
-105.732
0
LINE
8
Black
10
44.7821
20
-105.732
11
45.3536
21
-105.732
0
LINE
8
Black
10
45.3536
20
-105.732
11
45.6393
21
-105.875
0
LINE
8
Black
10
45.6393
20
-105.875
11
45.7821
21
-106.018
0
LINE
8
Black
10
45.7821
20
-106.018
11
45.925
21
-106.304
0
LINE
8
Black
10
45.925
20
-106.304
11
45.925
21
-107.161
0
LINE
8
Black
10
45.925
20
-107.161
11
45.7821
21
-107.446
0
LINE
8
Black
10
45.7821
20
-107.446
11
45.6393
21
-107.589
0
LINE
8
Black
10
45.6393
20
-107.589
11
45.3536
21
-107.732
0
LINE
8
Black
10
45.3536
20
-107.732
11
44.7821
21
-107.732
0
LINE
8
Black
10
44.7821
20
-107.732
11
44.4964
21
-107.589
0
LINE
8
Black
10
47.2107
20
-107.446
11
47.3536
21
-107.589
0
LINE
8
Black
10
47.3536
20
-107.589
11
47.2107
21
-107.732
0
LINE
8
Black
10
47.2107
20
-107.732
11
47.0679
21
-107.589
0
LINE
8
Black
10
47.0679
20
-107.589
11
47.2107
21
-107.446
0
LINE
8
Black
10
47.2107
20
-107.446
11
47.2107
21
-107.732
0
LINE
8
Black
10
47.2107
20
-105.875
11
47.3536
21
-106.018
0
LINE
8
Black
10
47.3536
20
-106.018
11
47.2107
21
-106.161
0
LINE
8
Black
10
47.2107
20
-106.161
11
47.0679
21
-106.018
0
LINE
8
Black
10
47.0679
20
-106.018
11
47.2107
21
-105.875
0
LINE
8
Black
10
47.2107
20
-105.875
11
47.2107
21
-106.161
0
LINE
8
Black
10
23.525
20
-112.475
11
23.925
21
-112.875
0
LINE
8
Black
10
23.925
20
-112.475
11
23.525
21
-112.875
0
LINE
8
Black
10
27.2107
20
-111.032
11
27.4964
21
-111.032
0
LINE
8
Black
10
27.4964
20
-111.032
11
27.7821
21
-111.175
0
LINE
8
Black
10
27.7821
20
-111.175
11
27.925
21
-111.318
0
LINE
8
Black
10
27.925
20
-111.318
11
28.0679
21
-111.604
0
LINE
8
Black
10
28.0679
20
-111.604
11
28.2107
21
-112.175
0
LINE
8
Black
10
28.2107
20
-112.175
11
28.2107
21
-112.889
0
LINE
8
Black
10
28.2107
20
-112.889
11
28.0679
21
-113.461
0
LINE
8
Black
10
28.0679
20
-113.461
11
27.925
21
-113.746
0
LINE
8
Black
10
27.925
20
-113.746
11
27.7821
21
-113.889
0
LINE
8
Black
10
27.7821
20
-113.889
11
27.4964
21
-114.032
0
LINE
8
Black
10
27.4964
20
-114.032
11
27.2107
21
-114.032
0
LINE
8
Black
10
27.2107
20
-114.032
11
26.925
21
-113.889
0
LINE
8
Black
10
26.925
20
-113.889
11
26.7821
21
-113.746
0
LINE
8
Black
10
26.7821
20
-113.746
11
26.6393
21
-113.461
0
LINE
8
Black
10
26.6393
20
-113.461
11
26.4964
21
-112.889
0
LINE
8
Black
10
26.4964
20
-112.889
11
26.4964
21
-112.175
0
LINE
8
Black
10
26.4964
20
-112.175
11
26.6393
21
-111.604
0
LINE
8
Black
10
26.6393
20
-111.604
11
26.7821
21
-111.318
0
LINE
8
Black
10
26.7821
20
-111.318
11
26.925
21
-111.175
0
LINE
8
Black
10
26.925
20
-111.175
11
27.2107
21
-111.032
0
LINE
8
Black
10
29.4964
20
-113.746
11
29.6393
21
-113.889
0
LINE
8
Black
10
29.6393
20
-113.889
11
29.4964
21
-114.032
0
LINE
8
Black
10
29.4964
20
-114.032
11
29.3536
21
-113.889
0
LINE
8
Black
10
29.3536
20
-113.889
11
29.4964
21
-113.746
0
LINE
8
Black
10
29.4964
20
-113.746
11
29.4964
21
-114.032
0
LINE
8
Black
10
32.2107
20
-112.032
11
32.2107
21
-114.032
0
LINE
8
Black
10
31.4964
20
-110.889
11
30.7821
21
-113.032
0
LINE
8
Black
10
30.7821
20
-113.032
11
32.6393
21
-113.032
0
LINE
8
Black
10
34.3536
20
-111.032
11
34.6393
21
-111.032
0
LINE
8
Black
10
34.6393
20
-111.032
11
34.925
21
-111.175
0
LINE
8
Black
10
34.925
20
-111.175
11
35.0679
21
-111.318
0
LINE
8
Black
10
35.0679
20
-111.318
11
35.2107
21
-111.604
0
LINE
8
Black
10
35.2107
20
-111.604
11
35.3536
21
-112.175
0
LINE
8
Black
10
35.3536
20
-112.175
11
35.3536
21
-112.889
0
LINE
8
Black
10
35.3536
20
-112.889
11
35.2107
21
-113.461
0
LINE
8
Black
10
35.2107
20
-113.461
11
35.0679
21
-113.746
0
LINE
8
Black
10
35.0679
20
-113.746
11
34.925
21
-113.889
0
LINE
8
Black
10
34.925
20
-113.889
11
34.6393
21
-114.032
0
LINE
8
Black
10
34.6393
20
-114.032
11
34.3536
21
-114.032
0
LINE
8
Black
10
34.3536
20
-114.032
11
34.0679
21
-113.889
0
LINE
8
Black
10
34.0679
20
-113.889
11
33.925
21
-113.746
0
LINE
8
Black
10
33.925
20
-113.746
11
33.7821
21
-113.461
0
LINE
8
Black
10
33.7821
20
-113.461
11
33.6393
21
-112.889
0
LINE
8
Black
10
33.6393
20
-112.889
11
33.6393
21
-112.175
0
LINE
8
Black
10
33.6393
20
-112.175
11
33.7821
21
-111.604
0
LINE
8
Black
10
33.7821
20
-111.604
11
33.925
21
-111.318
0
LINE
8
Black
10
33.925
20
-111.318
11
34.0679
21
-111.175
0
LINE
8
Black
10
34.0679
20
-111.175
11
34.3536
21
-111.032
0
LINE
8
Black
10
36.6393
20
-114.032
11
36.6393
21
-112.032
0
LINE
8
Black
10
36.6393
20
-112.318
11
36.7821
21
-112.175
0
LINE
8
Black
10
36.7821
20
-112.175
11
37.0679
21
-112.032
0
LINE
8
Black
10
37.0679
20
-112.032
11
37.4964
21
-112.032
0
LINE
8
Black
10
37.4964
20
-112.032
11
37.7821
21
-112.175
0
LINE
8
Black
10
37.7821
20
-112.175
11
37.925
21
-112.461
0
LINE
8
Black
10
37.925
20
-112.461
11
37.925
21
-114.032
0
LINE
8
Black
10
37.925
20
-112.461
11
38.0679
21
-112.175
0
LINE
8
Black
10
38.0679
20
-112.175
11
38.3536
21
-112.032
0
LINE
8
Black
10
38.3536
20
-112.032
11
38.7821
21
-112.032
0
LINE
8
Black
10
38.7821
20
-112.032
11
39.0679
21
-112.175
0
LINE
8
Black
10
39.0679
20
-112.175
11
39.2107
21
-112.461
0
LINE
8
Black
10
39.2107
20
-112.461
11
39.2107
21
-114.032
0
LINE
8
Black
10
40.6393
20
-114.032
11
40.6393
21
-112.032
0
LINE
8
Black
10
40.6393
20
-112.318
11
40.7821
21
-112.175
0
LINE
8
Black
10
40.7821
20
-112.175
11
41.0679
21
-112.032
0
LINE
8
Black
10
41.0679
20
-112.032
11
41.4964
21
-112.032
0
LINE
8
Black
10
41.4964
20
-112.032
11
41.7821
21
-112.175
0
LINE
8
Black
10
41.7821
20
-112.175
11
41.925
21
-112.461
0
LINE
8
Black
10
41.925
20
-112.461
11
41.925
21
-114.032
0
LINE
8
Black
10
41.925
20
-112.461
11
42.0679
21
-112.175
0
LINE
8
Black
10
42.0679
20
-112.175
11
42.3536
21
-112.032
0
LINE
8
Black
10
42.3536
20
-112.032
11
42.7821
21
-112.032
0
LINE
8
Black
10
42.7821
20
-112.032
11
43.0679
21
-112.175
0
LINE
8
Black
10
43.0679
20
-112.175
11
43.2107
21
-112.461
0
LINE
8
Black
10
43.2107
20
-112.461
11
43.2107
21
-114.032
0
LINE
8
Black
10
49.0679
20
-110.889
11
46.4964
21
-114.746
0
LINE
8
Black
10
52.925
20
-111.032
11
53.2107
21
-111.032
0
LINE
8
Black
10
53.2107
20
-111.032
11
53.4964
21
-111.175
0
LINE
8
Black
10
53.4964
20
-111.175
11
53.6393
21
-111.318
0
LINE
8
Black
10
53.6393
20
-111.318
11
53.7821
21
-111.604
0
LINE
8
Black
10
53.7821
20
-111.604
11
53.925
21
-112.175
0
LINE
8
Black
10
53.925
20
-112.175
11
53.925
21
-112.889
0
LINE
8
Black
10
53.925
20
-112.889
11
53.7821
21
-113.461
0
LINE
8
Black
10
53.7821
20
-113.461
11
53.6393
21
-113.746
0
LINE
8
Black
10
53.6393
20
-113.746
11
53.4964
21
-113.889
0
LINE
8
Black
10
53.4964
20
-113.889
11
53.2107
21
-114.032
0
LINE
8
Black
10
53.2107
20
-114.032
11
52.925
21
-114.032
0
LINE
8
Black
10
52.925
20
-114.032
11
52.6393
21
-113.889
0
LINE
8
Black
10
52.6393
20
-113.889
11
52.4964
21
-113.746
0
LINE
8
Black
10
52.4964
20
-113.746
11
52.3536
21
-113.461
0
LINE
8
Black
10
52.3536
20
-113.461
11
52.2107
21
-112.889
0
LINE
8
Black
10
52.2107
20
-112.889
11
52.2107
21
-112.175
0
LINE
8
Black
10
52.2107
20
-112.175
11
52.3536
21
-111.604
0
LINE
8
Black
10
52.3536
20
-111.604
11
52.4964
21
-111.318
0
LINE
8
Black
10
52.4964
20
-111.318
11
52.6393
21
-111.175
0
LINE
8
Black
10
52.6393
20
-111.175
11
52.925
21
-111.032
0
LINE
8
Black
10
55.2107
20
-113.746
11
55.3536
21
-113.889
0
LINE
8
Black
10
55.3536
20
-113.889
11
55.2107
21
-114.032
0
LINE
8
Black
10
55.2107
20
-114.032
11
55.0679
21
-113.889
0
LINE
8
Black
10
55.0679
20
-113.889
11
55.2107
21
-113.746
0
LINE
8
Black
10
55.2107
20
-113.746
11
55.2107
21
-114.032
0
LINE
8
Black
10
57.2107
20
-111.032
11
57.4964
21
-111.032
0
LINE
8
Black
10
57.4964
20
-111.032
11
57.7821
21
-111.175
0
LINE
8
Black
10
57.7821
20
-111.175
11
57.925
21
-111.318
0
LINE
8
Black
10
57.925
20
-111.318
11
58.0679
21
-111.604
0
LINE
8
Black
10
58.0679
20
-111.604
11
58.2107
21
-112.175
0
LINE
8
Black
10
58.2107
20
-112.175
11
58.2107
21
-112.889
0
LINE
8
Black
10
58.2107
20
-112.889
11
58.0679
21
-113.461
0
LINE
8
Black
10
58.0679
20
-113.461
11
57.925
21
-113.746
0
LINE
8
Black
10
57.925
20
-113.746
11
57.7821
21
-113.889
0
LINE
8
Black
10
57.7821
20
-113.889
11
57.4964
21
-114.032
0
LINE
8
Black
10
57.4964
20
-114.032
11
57.2107
21
-114.032
0
LINE
8
Black
10
57.2107
20
-114.032
11
56.925
21
-113.889
0
LINE
8
Black
10
56.925
20
-113.889
11
56.7821
21
-113.746
0
LINE
8
Black
10
56.7821
20
-113.746
11
56.6393
21
-113.461
0
LINE
8
Black
10
56.6393
20
-113.461
11
56.4964
21
-112.889
0
LINE
8
Black
10
56.4964
20
-112.889
11
56.4964
21
-112.175
0
LINE
8
Black
10
56.4964
20
-112.175
11
56.6393
21
-111.604
0
LINE
8
Black
10
56.6393
20
-111.604
11
56.7821
21
-111.318
0
LINE
8
Black
10
56.7821
20
-111.318
11
56.925
21
-111.175
0
LINE
8
Black
10
56.925
20
-111.175
11
57.2107
21
-111.032
0
LINE
8
Black
10
61.0679
20
-114.032
11
59.3536
21
-114.032
0
LINE
8
Black
10
60.2107
20
-114.032
11
60.2107
21
-111.032
0
LINE
8
Black
10
60.2107
20
-111.032
11
59.925
21
-111.461
0
LINE
8
Black
10
59.925
20
-111.461
11
59.6393
21
-111.746
0
LINE
8
Black
10
59.6393
20
-111.746
11
59.3536
21
-111.889
0
LINE
8
Black
10
63.6393
20
-111.032
11
63.0679
21
-111.032
0
LINE
8
Black
10
63.0679
20
-111.032
11
62.7821
21
-111.175
0
LINE
8
Black
10
62.7821
20
-111.175
11
62.6393
21
-111.318
0
LINE
8
Black
10
62.6393
20
-111.318
11
62.3536
21
-111.746
0
LINE
8
Black
10
62.3536
20
-111.746
11
62.2107
21
-112.318
0
LINE
8
Black
10
62.2107
20
-112.318
11
62.2107
21
-113.461
0
LINE
8
Black
10
62.2107
20
-113.461
11
62.3536
21
-113.746
0
LINE
8
Black
10
62.3536
20
-113.746
11
62.4964
21
-113.889
0
LINE
8
Black
10
62.4964
20
-113.889
11
62.7821
21
-114.032
0
LINE
8
Black
10
62.7821
20
-114.032
11
63.3536
21
-114.032
0
LINE
8
Black
10
63.3536
20
-114.032
11
63.6393
21
-113.889
0
LINE
8
Black
10
63.6393
20
-113.889
11
63.7821
21
-113.746
0
LINE
8
Black
10
63.7821
20
-113.746
11
63.925
21
-113.461
0
LINE
8
Black
10
63.925
20
-113.461
11
63.925
21
-112.746
0
LINE
8
Black
10
63.925
20
-112.746
11
63.7821
21
-112.461
0
LINE
8
Black
10
63.7821
20
-112.461
11
63.6393
21
-112.318
0
LINE
8
Black
10
63.6393
20
-112.318
11
63.3536
21
-112.175
0
LINE
8
Black
10
63.3536
20
-112.175
11
62.7821
21
-112.175
0
LINE
8
Black
10
62.7821
20
-112.175
11
62.4964
21
-112.318
0
LINE
8
Black
10
62.4964
20
-112.318
11
62.3536
21
-112.461
0
LINE
8
Black
10
62.3536
20
-112.461
11
62.2107
21
-112.746
0
LINE
8
Black
10
65.0679
20
-111.032
11
65.0679
21
-111.604
0
LINE
8
Black
10
66.2107
20
-111.032
11
66.2107
21
-111.604
0
LINE
8
Black
10
70.6393
20
-115.175
11
70.4964
21
-115.032
0
LINE
8
Black
10
70.4964
20
-115.032
11
70.2107
21
-114.604
0
LINE
8
Black
10
70.2107
20
-114.604
11
70.0679
21
-114.318
0
LINE
8
Black
10
70.0679
20
-114.318
11
69.925
21
-113.889
0
LINE
8
Black
10
69.925
20
-113.889
11
69.7821
21
-113.175
0
LINE
8
Black
10
69.7821
20
-113.175
11
69.7821
21
-112.604
0
LINE
8
Black
10
69.7821
20
-112.604
11
69.925
21
-111.889
0
LINE
8
Black
10
69.925
20
-111.889
11
70.0679
21
-111.461
0
LINE
8
Black
10
70.0679
20
-111.461
11
70.2107
21
-111.175
0
LINE
8
Black
10
70.2107
20
-111.175
11
70.4964
21
-110.746
0
LINE
8
Black
10
70.4964
20
-110.746
11
70.6393
21
-110.604
0
LINE
8
Black
10
71.6393
20
-111.318
11
71.7821
21
-111.175
0
LINE
8
Black
10
71.7821
20
-111.175
11
72.0679
21
-111.032
0
LINE
8
Black
10
72.0679
20
-111.032
11
72.7821
21
-111.032
0
LINE
8
Black
10
72.7821
20
-111.032
11
73.0679
21
-111.175
0
LINE
8
Black
10
73.0679
20
-111.175
11
73.2107
21
-111.318
0
LINE
8
Black
10
73.2107
20
-111.318
11
73.3536
21
-111.604
0
LINE
8
Black
10
73.3536
20
-111.604
11
73.3536
21
-111.889
0
LINE
8
Black
10
73.3536
20
-111.889
11
73.2107
21
-112.318
0
LINE
8
Black
10
73.2107
20
-112.318
11
71.4964
21
-114.032
0
LINE
8
Black
10
71.4964
20
-114.032
11
73.3536
21
-114.032
0
LINE
8
Black
10
76.925
20
-114.032
11
76.925
21
-111.032
0
LINE
8
Black
10
78.2107
20
-114.032
11
78.2107
21
-112.461
0
LINE
8
Black
10
78.2107
20
-112.461
11
78.0679
21
-112.175
0
LINE
8
Black
10
78.0679
20
-112.175
11
77.7821
21
-112.032
0
LINE
8
Black
10
77.7821
20
-112.032
11
77.3536
21
-112.032
0
LINE
8
Black
10
77.3536
20
-112.032
11
77.0679
21
-112.175
0
LINE
8
Black
10
77.0679
20
-112.175
11
76.925
21
-112.318
0
LINE
8
Black
10
80.0679
20
-114.032
11
79.7821
21
-113.889
0
LINE
8
Black
10
79.7821
20
-113.889
11
79.6393
21
-113.746
0
LINE
8
Black
10
79.6393
20
-113.746
11
79.4964
21
-113.461
0
LINE
8
Black
10
79.4964
20
-113.461
11
79.4964
21
-112.604
0
LINE
8
Black
10
79.4964
20
-112.604
11
79.6393
21
-112.318
0
LINE
8
Black
10
79.6393
20
-112.318
11
79.7821
21
-112.175
0
LINE
8
Black
10
79.7821
20
-112.175
11
80.0679
21
-112.032
0
LINE
8
Black
10
80.0679
20
-112.032
11
80.4964
21
-112.032
0
LINE
8
Black
10
80.4964
20
-112.032
11
80.7821
21
-112.175
0
LINE
8
Black
10
80.7821
20
-112.175
11
80.925
21
-112.318
0
LINE
8
Black
10
80.925
20
-112.318
11
81.0679
21
-112.604
0
LINE
8
Black
10
81.0679
20
-112.604
11
81.0679
21
-113.461
0
LINE
8
Black
10
81.0679
20
-113.461
11
80.925
21
-113.746
0
LINE
8
Black
10
80.925
20
-113.746
11
80.7821
21
-113.889
0
LINE
8
Black
10
80.7821
20
-113.889
11
80.4964
21
-114.032
0
LINE
8
Black
10
80.4964
20
-114.032
11
80.0679
21
-114.032
0
LINE
8
Black
10
82.7821
20
-114.032
11
82.4964
21
-113.889
0
LINE
8
Black
10
82.4964
20
-113.889
11
82.3536
21
-113.604
0
LINE
8
Black
10
82.3536
20
-113.604
11
82.3536
21
-111.032
0
LINE
8
Black
10
85.0679
20
-113.889
11
84.7821
21
-114.032
0
LINE
8
Black
10
84.7821
20
-114.032
11
84.2107
21
-114.032
0
LINE
8
Black
10
84.2107
20
-114.032
11
83.925
21
-113.889
0
LINE
8
Black
10
83.925
20
-113.889
11
83.7821
21
-113.604
0
LINE
8
Black
10
83.7821
20
-113.604
11
83.7821
21
-112.461
0
LINE
8
Black
10
83.7821
20
-112.461
11
83.925
21
-112.175
0
LINE
8
Black
10
83.925
20
-112.175
11
84.2107
21
-112.032
0
LINE
8
Black
10
84.2107
20
-112.032
11
84.7821
21
-112.032
0
LINE
8
Black
10
84.7821
20
-112.032
11
85.0679
21
-112.175
0
LINE
8
Black
10
85.0679
20
-112.175
11
85.2107
21
-112.461
0
LINE
8
Black
10
85.2107
20
-112.461
11
85.2107
21
-112.746
0
LINE
8
Black
10
85.2107
20
-112.746
11
83.7821
21
-113.032
0
LINE
8
Black
10
86.3536
20
-113.889
11
86.6393
21
-114.032
0
LINE
8
Black
10
86.6393
20
-114.032
11
87.2107
21
-114.032
0
LINE
8
Black
10
87.2107
20
-114.032
11
87.4964
21
-113.889
0
LINE
8
Black
10
87.4964
20
-113.889
11
87.6393
21
-113.604
0
LINE
8
Black
10
87.6393
20
-113.604
11
87.6393
21
-113.461
0
LINE
8
Black
10
87.6393
20
-113.461
11
87.4964
21
-113.175
0
LINE
8
Black
10
87.4964
20
-113.175
11
87.2107
21
-113.032
0
LINE
8
Black
10
87.2107
20
-113.032
11
86.7821
21
-113.032
0
LINE
8
Black
10
86.7821
20
-113.032
11
86.4964
21
-112.889
0
LINE
8
Black
10
86.4964
20
-112.889
11
86.3536
21
-112.604
0
LINE
8
Black
10
86.3536
20
-112.604
11
86.3536
21
-112.461
0
LINE
8
Black
10
86.3536
20
-112.461
11
86.4964
21
-112.175
0
LINE
8
Black
10
86.4964
20
-112.175
11
86.7821
21
-112.032
0
LINE
8
Black
10
86.7821
20
-112.032
11
87.2107
21
-112.032
0
LINE
8
Black
10
87.2107
20
-112.032
11
87.4964
21
-112.175
0
LINE
8
Black
10
88.6393
20
-115.175
11
88.7821
21
-115.032
0
LINE
8
Black
10
88.7821
20
-115.032
11
89.0679
21
-114.604
0
LINE
8
Black
10
89.0679
20
-114.604
11
89.2107
21
-114.318
0
LINE
8
Black
10
89.2107
20
-114.318
11
89.3536
21
-113.889
0
LINE
8
Black
10
89.3536
20
-113.889
11
89.4964
21
-113.175
0
LINE
8
Black
10
89.4964
20
-113.175
11
89.4964
21
-112.604
0
LINE
8
Black
10
89.4964
20
-112.604
11
89.3536
21
-111.889
0
LINE
8
Black
10
89.3536
20
-111.889
11
89.2107
21
-111.461
0
LINE
8
Black
10
89.2107
20
-111.461
11
89.0679
21
-111.175
0
LINE
8
Black
10
89.0679
20
-111.175
11
88.7821
21
-110.746
0
LINE
8
Black
10
88.7821
20
-110.746
11
88.6393
21
-110.604
0
CIRCLE
8
Black
10
23.525
20
-116.635
40
0.4
0
LINE
8
Black
10
27.2107
20
-114.992
11
27.4964
21
-114.992
0
LINE
8
Black
10
27.4964
20
-114.992
11
27.7821
21
-115.135
0
LINE
8
Black
10
27.7821
20
-115.135
11
27.925
21
-115.278
0
LINE
8
Black
10
27.925
20
-115.278
11
28.0679
21
-115.564
0
LINE
8
Black
10
28.0679
20
-115.564
11
28.2107
21
-116.135
0
LINE
8
Black
10
28.2107
20
-116.135
11
28.2107
21
-116.849
0
LINE
8
Black
10
28.2107
20
-116.849
11
28.0679
21
-117.421
0
LINE
8
Black
10
28.0679
20
-117.421
11
27.925
21
-117.706
0
LINE
8
Black
10
27.925
20
-117.706
11
27.7821
21
-117.849
0
LINE
8
Black
10
27.7821
20
-117.849
11
27.4964
21
-117.992
0
LINE
8
Black
10
27.4964
20
-117.992
11
27.2107
21
-117.992
0
LINE
8
Black
10
27.2107
20
-117.992
11
26.925
21
-117.849
0
LINE
8
Black
10
26.925
20
-117.849
11
26.7821
21
-117.706
0
LINE
8
Black
10
26.7821
20
-117.706
11
26.6393
21
-117.421
0
LINE
8
Black
10
26.6393
20
-117.421
11
26.4964
21
-116.849
0
LINE
8
Black
10
26.4964
20
-116.849
11
26.4964
21
-116.135
0
LINE
8
Black
10
26.4964
20
-116.135
11
26.6393
21
-115.564
0
LINE
8
Black
10
26.6393
20
-115.564
11
26.7821
21
-115.278
0
LINE
8
Black
10
26.7821
20
-115.278
11
26.925
21
-115.135
0
LINE
8
Black
10
26.925
20
-115.135
11
27.2107
21
-114.992
0
LINE
8
Black
10
29.4964
20
-117.706
11
29.6393
21
-117.849
0
LINE
8
Black
10
29.6393
20
-117.849
11
29.4964
21
-117.992
0
LINE
8
Black
10
29.4964
20
-117.992
11
29.3536
21
-117.849
0
LINE
8
Black
10
29.3536
20
-117.849
11
29.4964
21
-117.706
0
LINE
8
Black
10
29.4964
20
-117.706
11
29.4964
21
-117.992
0
LINE
8
Black
10
31.3536
20
-116.278
11
31.0679
21
-116.135
0
LINE
8
Black
10
31.0679
20
-116.135
11
30.925
21
-115.992
0
LINE
8
Black
10
30.925
20
-115.992
11
30.7821
21
-115.706
0
LINE
8
Black
10
30.7821
20
-115.706
11
30.7821
21
-115.564
0
LINE
8
Black
10
30.7821
20
-115.564
11
30.925
21
-115.278
0
LINE
8
Black
10
30.925
20
-115.278
11
31.0679
21
-115.135
0
LINE
8
Black
10
31.0679
20
-115.135
11
31.3536
21
-114.992
0
LINE
8
Black
10
31.3536
20
-114.992
11
31.925
21
-114.992
0
LINE
8
Black
10
31.925
20
-114.992
11
32.2107
21
-115.135
0
LINE
8
Black
10
32.2107
20
-115.135
11
32.3536
21
-115.278
0
LINE
8
Black
10
32.3536
20
-115.278
11
32.4964
21
-115.564
0
LINE
8
Black
10
32.4964
20
-115.564
11
32.4964
21
-115.706
0
LINE
8
Black
10
32.4964
20
-115.706
11
32.3536
21
-115.992
0
LINE
8
Black
10
32.3536
20
-115.992
11
32.2107
21
-116.135
0
LINE
8
Black
10
32.2107
20
-116.135
11
31.925
21
-116.278
0
LINE
8
Black
10
31.925
20
-116.278
11
31.3536
21
-116.278
0
LINE
8
Black
10
31.3536
20
-116.278
11
31.0679
21
-116.421
0
LINE
8
Black
10
31.0679
20
-116.421
11
30.925
21
-116.564
0
LINE
8
Black
10
30.925
20
-116.564
11
30.7821
21
-116.849
0
LINE
8
Black
10
30.7821
20
-116.849
11
30.7821
21
-117.421
0
LINE
8
Black
10
30.7821
20
-117.421
11
30.925
21
-117.706
0
LINE
8
Black
10
30.925
20
-117.706
11
31.0679
21
-117.849
0
LINE
8
Black
10
31.0679
20
-117.849
11
31.3536
21
-117.992
0
LINE
8
Black
10
31.3536
20
-117.992
11
31.925
21
-117.992
0
LINE
8
Black
10
31.925
20
-117.992
11
32.2107
21
-117.849
0
LINE
8
Black
10
32.2107
20
-117.849
11
32.3536
21
-117.706
0
LINE
8
Black
10
32.3536
20
-117.706
11
32.4964
21
-117.421
0
LINE
8
Black
10
32.4964
20
-117.421
11
32.4964
21
-116.849
0
LINE
8
Black
10
32.4964
20
-116.849
11
32.3536
21
-116.564
0
LINE
8
Black
10
32.3536
20
-116.564
11
32.2107
21
-116.421
0
LINE
8
Black
10
32.2107
20
-116.421
11
31.925
21
-116.278
0
LINE
8
Black
10
34.3536
20
-114.992
11
34.6393
21
-114.992
0
LINE
8
Black
10
34.6393
20
-114.992
11
34.925
21
-115.135
0
LINE
8
Black
10
34.925
20
-115.135
11
35.0679
21
-115.278
0
LINE
8
Black
10
35.0679
20
-115.278
11
35.2107
21
-115.564
0
LINE
8
Black
10
35.2107
20
-115.564
11
35.3536
21
-116.135
0
LINE
8
Black
10
35.3536
20
-116.135
11
35.3536
21
-116.849
0
LINE
8
Black
10
35.3536
20
-116.849
11
35.2107
21
-117.421
0
LINE
8
Black
10
35.2107
20
-117.421
11
35.0679
21
-117.706
0
LINE
8
Black
10
35.0679
20
-117.706
11
34.925
21
-117.849
0
LINE
8
Black
10
34.925
20
-117.849
11
34.6393
21
-117.992
0
LINE
8
Black
10
34.6393
20
-117.992
11
34.3536
21
-117.992
0
LINE
8
Black
10
34.3536
20
-117.992
11
34.0679
21
-117.849
0
LINE
8
Black
10
34.0679
20
-117.849
11
33.925
21
-117.706
0
LINE
8
Black
10
33.925
20
-117.706
11
33.7821
21
-117.421
0
LINE
8
Black
10
33.7821
20
-117.421
11
33.6393
21
-116.849
0
LINE
8
Black
10
33.6393
20
-116.849
11
33.6393
21
-116.135
0
LINE
8
Black
10
33.6393
20
-116.135
11
33.7821
21
-115.564
0
LINE
8
Black
10
33.7821
20
-115.564
11
33.925
21
-115.278
0
LINE
8
Black
10
33.925
20
-115.278
11
34.0679
21
-115.135
0
LINE
8
Black
10
34.0679
20
-115.135
11
34.3536
21
-114.992
0
LINE
8
Black
10
36.6393
20
-117.992
11
36.6393
21
-115.992
0
LINE
8
Black
10
36.6393
20
-116.278
11
36.7821
21
-116.135
0
LINE
8
Black
10
36.7821
20
-116.135
11
37.0679
21
-115.992
0
LINE
8
Black
10
37.0679
20
-115.992
11
37.4964
21
-115.992
0
LINE
8
Black
10
37.4964
20
-115.992
11
37.7821
21
-116.135
0
LINE
8
Black
10
37.7821
20
-116.135
11
37.925
21
-116.421
0
LINE
8
Black
10
37.925
20
-116.421
11
37.925
21
-117.992
0
LINE
8
Black
10
37.925
20
-116.421
11
38.0679
21
-116.135
0
LINE
8
Black
10
38.0679
20
-116.135
11
38.3536
21
-115.992
0
LINE
8
Black
10
38.3536
20
-115.992
11
38.7821
21
-115.992
0
LINE
8
Black
10
38.7821
20
-115.992
11
39.0679
21
-116.135
0
LINE
8
Black
10
39.0679
20
-116.135
11
39.2107
21
-116.421
0
LINE
8
Black
10
39.2107
20
-116.421
11
39.2107
21
-117.992
0
LINE
8
Black
10
40.6393
20
-117.992
11
40.6393
21
-115.992
0
LINE
8
Black
10
40.6393
20
-116.278
11
40.7821
21
-116.135
0
LINE
8
Black
10
40.7821
20
-116.135
11
41.0679
21
-115.992
0
LINE
8
Black
10
41.0679
20
-115.992
11
41.4964
21
-115.992
0
LINE
8
Black
10
41.4964
20
-115.992
11
41.7821
21
-116.135
0
LINE
8
Black
10
41.7821
20
-116.135
11
41.925
21
-116.421
0
LINE
8
Black
10
41.925
20
-116.421
11
41.925
21
-117.992
0
LINE
8
Black
10
41.925
20
-116.421
11
42.0679
21
-116.135
0
LINE
8
Black
10
42.0679
20
-116.135
11
42.3536
21
-115.992
0
LINE
8
Black
10
42.3536
20
-115.992
11
42.7821
21
-115.992
0
LINE
8
Black
10
42.7821
20
-115.992
11
43.0679
21
-116.135
0
LINE
8
Black
10
43.0679
20
-116.135
11
43.2107
21
-116.421
0
LINE
8
Black
10
43.2107
20
-116.421
11
43.2107
21
-117.992
0
LINE
8
Black
10
49.0679
20
-114.849
11
46.4964
21
-118.706
0
LINE
8
Black
10
52.925
20
-114.992
11
53.2107
21
-114.992
0
LINE
8
Black
10
53.2107
20
-114.992
11
53.4964
21
-115.135
0
LINE
8
Black
10
53.4964
20
-115.135
11
53.6393
21
-115.278
0
LINE
8
Black
10
53.6393
20
-115.278
11
53.7821
21
-115.564
0
LINE
8
Black
10
53.7821
20
-115.564
11
53.925
21
-116.135
0
LINE
8
Black
10
53.925
20
-116.135
11
53.925
21
-116.849
0
LINE
8
Black
10
53.925
20
-116.849
11
53.7821
21
-117.421
0
LINE
8
Black
10
53.7821
20
-117.421
11
53.6393
21
-117.706
0
LINE
8
Black
10
53.6393
20
-117.706
11
53.4964
21
-117.849
0
LINE
8
Black
10
53.4964
20
-117.849
11
53.2107
21
-117.992
0
LINE
8
Black
10
53.2107
20
-117.992
11
52.925
21
-117.992
0
LINE
8
Black
10
52.925
20
-117.992
11
52.6393
21
-117.849
0
LINE
8
Black
10
52.6393
20
-117.849
11
52.4964
21
-117.706
0
LINE
8
Black
10
52.4964
20
-117.706
11
52.3536
21
-117.421
0
LINE
8
Black
10
52.3536
20
-117.421
11
52.2107
21
-116.849
0
LINE
8
Black
10
52.2107
20
-116.849
11
52.2107
21
-116.135
0
LINE
8
Black
10
52.2107
20
-116.135
11
52.3536
21
-115.564
0
LINE
8
Black
10
52.3536
20
-115.564
11
52.4964
21
-115.278
0
LINE
8
Black
10
52.4964
20
-115.278
11
52.6393
21
-115.135
0
LINE
8
Black
10
52.6393
20
-115.135
11
52.925
21
-114.992
0
LINE
8
Black
10
55.2107
20
-117.706
11
55.3536
21
-117.849
0
LINE
8
Black
10
55.3536
20
-117.849
11
55.2107
21
-117.992
0
LINE
8
Black
10
55.2107
20
-117.992
11
55.0679
21
-117.849
0
LINE
8
Black
10
55.0679
20
-117.849
11
55.2107
21
-117.706
0
LINE
8
Black
10
55.2107
20
-117.706
11
55.2107
21
-117.992
0
LINE
8
Black
10
57.2107
20
-114.992
11
57.4964
21
-114.992
0
LINE
8
Black
10
57.4964
20
-114.992
11
57.7821
21
-115.135
0
LINE
8
Black
10
57.7821
20
-115.135
11
57.925
21
-115.278
0
LINE
8
Black
10
57.925
20
-115.278
11
58.0679
21
-115.564
0
LINE
8
Black
10
58.0679
20
-115.564
11
58.2107
21
-116.135
0
LINE
8
Black
10
58.2107
20
-116.135
11
58.2107
21
-116.849
0
LINE
8
Black
10
58.2107
20
-116.849
11
58.0679
21
-117.421
0
LINE
8
Black
10
58.0679
20
-117.421
11
57.925
21
-117.706
0
LINE
8
Black
10
57.925
20
-117.706
11
57.7821
21
-117.849
0
LINE
8
Black
10
57.7821
20
-117.849
11
57.4964
21
-117.992
0
LINE
8
Black
10
57.4964
20
-117.992
11
57.2107
21
-117.992
0
LINE
8
Black
10
57.2107
20
-117.992
11
56.925
21
-117.849
0
LINE
8
Black
10
56.925
20
-117.849
11
56.7821
21
-117.706
0
LINE
8
Black
10
56.7821
20
-117.706
11
56.6393
21
-117.421
0
LINE
8
Black
10
56.6393
20
-117.421
11
56.4964
21
-116.849
0
LINE
8
Black
10
56.4964
20
-116.849
11
56.4964
21
-116.135
0
LINE
8
Black
10
56.4964
20
-116.135
11
56.6393
21
-115.564
0
LINE
8
Black
10
56.6393
20
-115.564
11
56.7821
21
-115.278
0
LINE
8
Black
10
56.7821
20
-115.278
11
56.925
21
-115.135
0
LINE
8
Black
10
56.925
20
-115.135
11
57.2107
21
-114.992
0
LINE
8
Black
10
59.2107
20
-114.992
11
61.0679
21
-114.992
0
LINE
8
Black
10
61.0679
20
-114.992
11
60.0679
21
-116.135
0
LINE
8
Black
10
60.0679
20
-116.135
11
60.4964
21
-116.135
0
LINE
8
Black
10
60.4964
20
-116.135
11
60.7821
21
-116.278
0
LINE
8
Black
10
60.7821
20
-116.278
11
60.925
21
-116.421
0
LINE
8
Black
10
60.925
20
-116.421
11
61.0679
21
-116.706
0
LINE
8
Black
10
61.0679
20
-116.706
11
61.0679
21
-117.421
0
LINE
8
Black
10
61.0679
20
-117.421
11
60.925
21
-117.706
0
LINE
8
Black
10
60.925
20
-117.706
11
60.7821
21
-117.849
0
LINE
8
Black
10
60.7821
20
-117.849
11
60.4964
21
-117.992
0
LINE
8
Black
10
60.4964
20
-117.992
11
59.6393
21
-117.992
0
LINE
8
Black
10
59.6393
20
-117.992
11
59.3536
21
-117.849
0
LINE
8
Black
10
59.3536
20
-117.849
11
59.2107
21
-117.706
0
LINE
8
Black
10
63.925
20
-117.992
11
62.2107
21
-117.992
0
LINE
8
Black
10
63.0679
20
-117.992
11
63.0679
21
-114.992
0
LINE
8
Black
10
63.0679
20
-114.992
11
62.7821
21
-115.421
0
LINE
8
Black
10
62.7821
20
-115.421
11
62.4964
21
-115.706
0
LINE
8
Black
10
62.4964
20
-115.706
11
62.2107
21
-115.849
0
LINE
8
Black
10
65.0679
20
-114.992
11
65.0679
21
-115.564
0
LINE
8
Black
10
66.2107
20
-114.992
11
66.2107
21
-115.564
0
LINE
8
Black
10
70.6393
20
-119.135
11
70.4964
21
-118.992
0
LINE
8
Black
10
70.4964
20
-118.992
11
70.2107
21
-118.564
0
LINE
8
Black
10
70.2107
20
-118.564
11
70.0679
21
-118.278
0
LINE
8
Black
10
70.0679
20
-118.278
11
69.925
21
-117.849
0
LINE
8
Black
10
69.925
20
-117.849
11
69.7821
21
-117.135
0
LINE
8
Black
10
69.7821
20
-117.135
11
69.7821
21
-116.564
0
LINE
8
Black
10
69.7821
20
-116.564
11
69.925
21
-115.849
0
LINE
8
Black
10
69.925
20
-115.849
11
70.0679
21
-115.421
0
LINE
8
Black
10
70.0679
20
-115.421
11
70.2107
21
-115.135
0
LINE
8
Black
10
70.2107
20
-115.135
11
70.4964
21
-114.706
0
LINE
8
Black
10
70.4964
20
-114.706
11
70.6393
21
-114.564
0
LINE
8
Black
10
73.0679
20
-115.992
11
73.0679
21
-117.992
0
LINE
8
Black
10
72.3536
20
-114.849
11
71.6393
21
-116.992
0
LINE
8
Black
10
71.6393
20
-116.992
11
73.4964
21
-116.992
0
LINE
8
Black
10
74.4964
20
-115.278
11
74.6393
21
-115.135
0
LINE
8
Black
10
74.6393
20
-115.135
11
74.925
21
-114.992
0
LINE
8
Black
10
74.925
20
-114.992
11
75.6393
21
-114.992
0
LINE
8
Black
10
75.6393
20
-114.992
11
75.925
21
-115.135
0
LINE
8
Black
10
75.925
20
-115.135
11
76.0679
21
-115.278
0
LINE
8
Black
10
76.0679
20
-115.278
11
76.2107
21
-115.564
0
LINE
8
Black
10
76.2107
20
-115.564
11
76.2107
21
-115.849
0
LINE
8
Black
10
76.2107
20
-115.849
11
76.0679
21
-116.278
0
LINE
8
Black
10
76.0679
20
-116.278
11
74.3536
21
-117.992
0
LINE
8
Black
10
74.3536
20
-117.992
11
76.2107
21
-117.992
0
LINE
8
Black
10
79.7821
20
-117.992
11
79.7821
21
-114.992
0
LINE
8
Black
10
81.0679
20
-117.992
11
81.0679
21
-116.421
0
LINE
8
Black
10
81.0679
20
-116.421
11
80.925
21
-116.135
0
LINE
8
Black
10
80.925
20
-116.135
11
80.6393
21
-115.992
0
LINE
8
Black
10
80.6393
20
-115.992
11
80.2107
21
-115.992
0
LINE
8
Black
10
80.2107
20
-115.992
11
79.925
21
-116.135
0
LINE
8
Black
10
79.925
20
-116.135
11
79.7821
21
-116.278
0
LINE
8
Black
10
82.925
20
-117.992
11
82.6393
21
-117.849
0
LINE
8
Black
10
82.6393
20
-117.849
11
82.4964
21
-117.706
0
LINE
8
Black
10
82.4964
20
-117.706
11
82.3536
21
-117.421
0
LINE
8
Black
10
82.3536
20
-117.421
11
82.3536
21
-116.564
0
LINE
8
Black
10
82.3536
20
-116.564
11
82.4964
21
-116.278
0
LINE
8
Black
10
82.4964
20
-116.278
11
82.6393
21
-116.135
0
LINE
8
Black
10
82.6393
20
-116.135
11
82.925
21
-115.992
0
LINE
8
Black
10
82.925
20
-115.992
11
83.3536
21
-115.992
0
LINE
8
Black
10
83.3536
20
-115.992
11
83.6393
21
-116.135
0
LINE
8
Black
10
83.6393
20
-116.135
11
83.7821
21
-116.278
0
LINE
8
Black
10
83.7821
20
-116.278
11
83.925
21
-116.564
0
LINE
8
Black
10
83.925
20
-116.564
11
83.925
21
-117.421
0
LINE
8
Black
10
83.925
20
-117.421
11
83.7821
21
-117.706
0
LINE
8
Black
10
83.7821
20
-117.706
11
83.6393
21
-117.849
0
LINE
8
Black
10
83.6393
20
-117.849
11
83.3536
21
-117.992
0
LINE
8
Black
10
83.3536
20
-117.992
11
82.925
21
-117.992
0
LINE
8
Black
10
85.6393
20
-117.992
11
85.3536
21
-117.849
0
LINE
8
Black
10
85.3536
20
-117.849
11
85.2107
21
-117.564
0
LINE
8
Black
10
85.2107
20
-117.564
11
85.2107
21
-114.992
0
LINE
8
Black
10
87.925
20
-117.849
11
87.6393
21
-117.992
0
LINE
8
Black
10
87.6393
20
-117.992
11
87.0679
21
-117.992
0
LINE
8
Black
10
87.0679
20
-117.992
11
86.7821
21
-117.849
0
LINE
8
Black
10
86.7821
20
-117.849
11
86.6393
21
-117.564
0
LINE
8
Black
10
86.6393
20
-117.564
11
86.6393
21
-116.421
0
LINE
8
Black
10
86.6393
20
-116.421
11
86.7821
21
-116.135
0
LINE
8
Black
10
86.7821
20
-116.135
11
87.0679
21
-115.992
0
LINE
8
Black
10
87.0679
20
-115.992
11
87.6393
21
-115.992
0
LINE
8
Black
10
87.6393
20
-115.992
11
87.925
21
-116.135
0
LINE
8
Black
10
87.925
20
-116.135
11
88.0679
21
-116.421
0
LINE
8
Black
10
88.0679
20
-116.421
11
88.0679
21
-116.706
0
LINE
8
Black
10
88.0679
20
-116.706
11
86.6393
21
-116.992
0
LINE
8
Black
10
89.2107
20
-117.849
11
89.4964
21
-117.992
0
LINE
8
Black
10
89.4964
20
-117.992
11
90.0679
21
-117.992
0
LINE
8
Black
10
90.0679
20
-117.992
11
90.3536
21
-117.849
0
LINE
8
Black
10
90.3536
20
-117.849
11
90.4964
21
-117.564
0
LINE
8
Black
10
90.4964
20
-117.564
11
90.4964
21
-117.421
0
LINE
8
Black
10
90.4964
20
-117.421
11
90.3536
21
-117.135
0
LINE
8
Black
10
90.3536
20
-117.135
11
90.0679
21
-116.992
0
LINE
8
Black
10
90.0679
20
-116.992
11
89.6393
21
-116.992
0
LINE
8
Black
10
89.6393
20
-116.992
11
89.3536
21
-116.849
0
LINE
8
Black
10
89.3536
20
-116.849
11
89.2107
21
-116.564
0
LINE
8
Black
10
89.2107
20
-116.564
11
89.2107
21
-116.421
0
LINE
8
Black
10
89.2107
20
-116.421
11
89.3536
21
-116.135
0
LINE
8
Black
10
89.3536
20
-116.135
11
89.6393
21
-115.992
0
LINE
8
Black
10
89.6393
20
-115.992
11
90.0679
21
-115.992
0
LINE
8
Black
10
90.0679
20
-115.992
11
90.3536
21
-116.135
0
LINE
8
Black
10
91.4964
20
-119.135
11
91.6393
21
-118.992
0
LINE
8
Black
10
91.6393
20
-118.992
11
91.925
21
-118.564
0
LINE
8
Black
10
91.925
20
-118.564
11
92.0679
21
-118.278
0
LINE
8
Black
10
92.0679
20
-118.278
11
92.2107
21
-117.849
0
LINE
8
Black
10
92.2107
20
-117.849
11
92.3536
21
-117.135
0
LINE
8
Black
10
92.3536
20
-117.135
11
92.3536
21
-116.564
0
LINE
8
Black
10
92.3536
20
-116.564
11
92.2107
21
-115.849
0
LINE
8
Black
10
92.2107
20
-115.849
11
92.0679
21
-115.421
0
LINE
8
Black
10
92.0679
20
-115.421
11
91.925
21
-115.135
0
LINE
8
Black
10
91.925
20
-115.135
11
91.6393
21
-114.706
0
LINE
8
Black
10
91.6393
20
-114.706
11
91.4964
21
-114.564
0
LINE
8
Black
10
23.475
20
-120.145
11
23.475
21
-121.045
0
LINE
8
Black
10
23.025
20
-120.595
11
23.925
21
-120.595
0
LINE
8
Black
10
27.2107
20
-118.952
11
27.4964
21
-118.952
0
LINE
8
Black
10
27.4964
20
-118.952
11
27.7821
21
-119.095
0
LINE
8
Black
10
27.7821
20
-119.095
11
27.925
21
-119.238
0
LINE
8
Black
10
27.925
20
-119.238
11
28.0679
21
-119.524
0
LINE
8
Black
10
28.0679
20
-119.524
11
28.2107
21
-120.095
0
LINE
8
Black
10
28.2107
20
-120.095
11
28.2107
21
-120.809
0
LINE
8
Black
10
28.2107
20
-120.809
11
28.0679
21
-121.381
0
LINE
8
Black
10
28.0679
20
-121.381
11
27.925
21
-121.666
0
LINE
8
Black
10
27.925
20
-121.666
11
27.7821
21
-121.809
0
LINE
8
Black
10
27.7821
20
-121.809
11
27.4964
21
-121.952
0
LINE
8
Black
10
27.4964
20
-121.952
11
27.2107
21
-121.952
0
LINE
8
Black
10
27.2107
20
-121.952
11
26.925
21
-121.809
0
LINE
8
Black
10
26.925
20
-121.809
11
26.7821
21
-121.666
0
LINE
8
Black
10
26.7821
20
-121.666
11
26.6393
21
-121.381
0
LINE
8
Black
10
26.6393
20
-121.381
11
26.4964
21
-120.809
0
LINE
8
Black
10
26.4964
20
-120.809
11
26.4964
21
-120.095
0
LINE
8
Black
10
26.4964
20
-120.095
11
26.6393
21
-119.524
0
LINE
8
Black
10
26.6393
20
-119.524
11
26.7821
21
-119.238
0
LINE
8
Black
10
26.7821
20
-119.238
11
26.925
21
-119.095
0
LINE
8
Black
10
26.925
20
-119.095
11
27.2107
21
-118.952
0
LINE
8
Black
10
29.4964
20
-121.666
11
29.6393
21
-121.809
0
LINE
8
Black
10
29.6393
20
-121.809
11
29.4964
21
-121.952
0
LINE
8
Black
10
29.4964
20
-121.952
11
29.3536
21
-121.809
0
LINE
8
Black
10
29.3536
20
-121.809
11
29.4964
21
-121.666
0
LINE
8
Black
10
29.4964
20
-121.666
11
29.4964
21
-121.952
0
LINE
8
Black
10
31.0679
20
-121.952
11
31.6393
21
-121.952
0
LINE
8
Black
10
31.6393
20
-121.952
11
31.925
21
-121.809
0
LINE
8
Black
10
31.925
20
-121.809
11
32.0679
21
-121.666
0
LINE
8
Black
10
32.0679
20
-121.666
11
32.3536
21
-121.238
0
LINE
8
Black
10
32.3536
20
-121.238
11
32.4964
21
-120.666
0
LINE
8
Black
10
32.4964
20
-120.666
11
32.4964
21
-119.524
0
LINE
8
Black
10
32.4964
20
-119.524
11
32.3536
21
-119.238
0
LINE
8
Black
10
32.3536
20
-119.238
11
32.2107
21
-119.095
0
LINE
8
Black
10
32.2107
20
-119.095
11
31.925
21
-118.952
0
LINE
8
Black
10
31.925
20
-118.952
11
31.3536
21
-118.952
0
LINE
8
Black
10
31.3536
20
-118.952
11
31.0679
21
-119.095
0
LINE
8
Black
10
31.0679
20
-119.095
11
30.925
21
-119.238
0
LINE
8
Black
10
30.925
20
-119.238
11
30.7821
21
-119.524
0
LINE
8
Black
10
30.7821
20
-119.524
11
30.7821
21
-120.238
0
LINE
8
Black
10
30.7821
20
-120.238
11
30.925
21
-120.524
0
LINE
8
Black
10
30.925
20
-120.524
11
31.0679
21
-120.666
0
LINE
8
Black
10
31.0679
20
-120.666
11
31.3536
21
-120.809
0
LINE
8
Black
10
31.3536
20
-120.809
11
31.925
21
-120.809
0
LINE
8
Black
10
31.925
20
-120.809
11
32.2107
21
-120.666
0
LINE
8
Black
10
32.2107
20
-120.666
11
32.3536
21
-120.524
0
LINE
8
Black
10
32.3536
20
-120.524
11
32.4964
21
-120.238
0
LINE
8
Black
10
34.3536
20
-118.952
11
34.6393
21
-118.952
0
LINE
8
Black
10
34.6393
20
-118.952
11
34.925
21
-119.095
0
LINE
8
Black
10
34.925
20
-119.095
11
35.0679
21
-119.238
0
LINE
8
Black
10
35.0679
20
-119.238
11
35.2107
21
-119.524
0
LINE
8
Black
10
35.2107
20
-119.524
11
35.3536
21
-120.095
0
LINE
8
Black
10
35.3536
20
-120.095
11
35.3536
21
-120.809
0
LINE
8
Black
10
35.3536
20
-120.809
11
35.2107
21
-121.381
0
LINE
8
Black
10
35.2107
20
-121.381
11
35.0679
21
-121.666
0
LINE
8
Black
10
35.0679
20
-121.666
11
34.925
21
-121.809
0
LINE
8
Black
10
34.925
20
-121.809
11
34.6393
21
-121.952
0
LINE
8
Black
10
34.6393
20
-121.952
11
34.3536
21
-121.952
0
LINE
8
Black
10
34.3536
20
-121.952
11
34.0679
21
-121.809
0
LINE
8
Black
10
34.0679
20
-121.809
11
33.925
21
-121.666
0
LINE
8
Black
10
33.925
20
-121.666
11
33.7821
21
-121.381
0
LINE
8
Black
10
33.7821
20
-121.381
11
33.6393
21
-120.809
0
LINE
8
Black
10
33.6393
20
-120.809
11
33.6393
21
-120.095
0
LINE
8
Black
10
33.6393
20
-120.095
11
33.7821
21
-119.524
0
LINE
8
Black
10
33.7821
20
-119.524
11
33.925
21
-119.238
0
LINE
8
Black
10
33.925
20
-119.238
11
34.0679
21
-119.095
0
LINE
8
Black
10
34.0679
20
-119.095
11
34.3536
21
-118.952
0
LINE
8
Black
10
36.6393
20
-121.952
11
36.6393
21
-119.952
0
LINE
8
Black
10
36.6393
20
-120.238
11
36.7821
21
-120.095
0
LINE
8
Black
10
36.7821
20
-120.095
11
37.0679
21
-119.952
0
LINE
8
Black
10
37.0679
20
-119.952
11
37.4964
21
-119.952
0
LINE
8
Black
10
37.4964
20
-119.952
11
37.7821
21
-120.095
0
LINE
8
Black
10
37.7821
20
-120.095
11
37.925
21
-120.381
0
LINE
8
Black
10
37.925
20
-120.381
11
37.925
21
-121.952
0
LINE
8
Black
10
37.925
20
-120.381
11
38.0679
21
-120.095
0
LINE
8
Black
10
38.0679
20
-120.095
11
38.3536
21
-119.952
0
LINE
8
Black
10
38.3536
20
-119.952
11
38.7821
21
-119.952
0
LINE
8
Black
10
38.7821
20
-119.952
11
39.0679
21
-120.095
0
LINE
8
Black
10
39.0679
20
-120.095
11
39.2107
21
-120.381
0
LINE
8
Black
10
39.2107
20
-120.381
11
39.2107
21
-121.952
0
LINE
8
Black
10
40.6393
20
-121.952
11
40.6393
21
-119.952
0
LINE
8
Black
10
40.6393
20
-120.238
11
40.7821
21
-120.095
0
LINE
8
Black
10
40.7821
20
-120.095
11
41.0679
21
-119.952
0
LINE
8
Black
10
41.0679
20
-119.952
11
41.4964
21
-119.952
0
LINE
8
Black
10
41.4964
20
-119.952
11
41.7821
21
-120.095
0
LINE
8
Black
10
41.7821
20
-120.095
11
41.925
21
-120.381
0
LINE
8
Black
10
41.925
20
-120.381
11
41.925
21
-121.952
0
LINE
8
Black
10
41.925
20
-120.381
11
42.0679
21
-120.095
0
LINE
8
Black
10
42.0679
20
-120.095
11
42.3536
21
-119.952
0
LINE
8
Black
10
42.3536
20
-119.952
11
42.7821
21
-119.952
0
LINE
8
Black
10
42.7821
20
-119.952
11
43.0679
21
-120.095
0
LINE
8
Black
10
43.0679
20
-120.095
11
43.2107
21
-120.381
0
LINE
8
Black
10
43.2107
20
-120.381
11
43.2107
21
-121.952
0
LINE
8
Black
10
49.0679
20
-118.809
11
46.4964
21
-122.666
0
LINE
8
Black
10
52.925
20
-118.952
11
53.2107
21
-118.952
0
LINE
8
Black
10
53.2107
20
-118.952
11
53.4964
21
-119.095
0
LINE
8
Black
10
53.4964
20
-119.095
11
53.6393
21
-119.238
0
LINE
8
Black
10
53.6393
20
-119.238
11
53.7821
21
-119.524
0
LINE
8
Black
10
53.7821
20
-119.524
11
53.925
21
-120.095
0
LINE
8
Black
10
53.925
20
-120.095
11
53.925
21
-120.809
0
LINE
8
Black
10
53.925
20
-120.809
11
53.7821
21
-121.381
0
LINE
8
Black
10
53.7821
20
-121.381
11
53.6393
21
-121.666
0
LINE
8
Black
10
53.6393
20
-121.666
11
53.4964
21
-121.809
0
LINE
8
Black
10
53.4964
20
-121.809
11
53.2107
21
-121.952
0
LINE
8
Black
10
53.2107
20
-121.952
11
52.925
21
-121.952
0
LINE
8
Black
10
52.925
20
-121.952
11
52.6393
21
-121.809
0
LINE
8
Black
10
52.6393
20
-121.809
11
52.4964
21
-121.666
0
LINE
8
Black
10
52.4964
20
-121.666
11
52.3536
21
-121.381
0
LINE
8
Black
10
52.3536
20
-121.381
11
52.2107
21
-120.809
0
LINE
8
Black
10
52.2107
20
-120.809
11
52.2107
21
-120.095
0
LINE
8
Black
10
52.2107
20
-120.095
11
52.3536
21
-119.524
0
LINE
8
Black
10
52.3536
20
-119.524
11
52.4964
21
-119.238
0
LINE
8
Black
10
52.4964
20
-119.238
11
52.6393
21
-119.095
0
LINE
8
Black
10
52.6393
20
-119.095
11
52.925
21
-118.952
0
LINE
8
Black
10
55.2107
20
-121.666
11
55.3536
21
-121.809
0
LINE
8
Black
10
55.3536
20
-121.809
11
55.2107
21
-121.952
0
LINE
8
Black
10
55.2107
20
-121.952
11
55.0679
21
-121.809
0
LINE
8
Black
10
55.0679
20
-121.809
11
55.2107
21
-121.666
0
LINE
8
Black
10
55.2107
20
-121.666
11
55.2107
21
-121.952
0
LINE
8
Black
10
57.2107
20
-118.952
11
57.4964
21
-118.952
0
LINE
8
Black
10
57.4964
20
-118.952
11
57.7821
21
-119.095
0
LINE
8
Black
10
57.7821
20
-119.095
11
57.925
21
-119.238
0
LINE
8
Black
10
57.925
20
-119.238
11
58.0679
21
-119.524
0
LINE
8
Black
10
58.0679
20
-119.524
11
58.2107
21
-120.095
0
LINE
8
Black
10
58.2107
20
-120.095
11
58.2107
21
-120.809
0
LINE
8
Black
10
58.2107
20
-120.809
11
58.0679
21
-121.381
0
LINE
8
Black
10
58.0679
20
-121.381
11
57.925
21
-121.666
0
LINE
8
Black
10
57.925
20
-121.666
11
57.7821
21
-121.809
0
LINE
8
Black
10
57.7821
20
-121.809
11
57.4964
21
-121.952
0
LINE
8
Black
10
57.4964
20
-121.952
11
57.2107
21
-121.952
0
LINE
8
Black
10
57.2107
20
-121.952
11
56.925
21
-121.809
0
LINE
8
Black
10
56.925
20
-121.809
11
56.7821
21
-121.666
0
LINE
8
Black
10
56.7821
20
-121.666
11
56.6393
21
-121.381
0
LINE
8
Black
10
56.6393
20
-121.381
11
56.4964
21
-120.809
0
LINE
8
Black
10
56.4964
20
-120.809
11
56.4964
21
-120.095
0
LINE
8
Black
10
56.4964
20
-120.095
11
56.6393
21
-119.524
0
LINE
8
Black
10
56.6393
20
-119.524
11
56.7821
21
-119.238
0
LINE
8
Black
10
56.7821
20
-119.238
11
56.925
21
-119.095
0
LINE
8
Black
10
56.925
20
-119.095
11
57.2107
21
-118.952
0
LINE
8
Black
10
59.2107
20
-118.952
11
61.0679
21
-118.952
0
LINE
8
Black
10
61.0679
20
-118.952
11
60.0679
21
-120.095
0
LINE
8
Black
10
60.0679
20
-120.095
11
60.4964
21
-120.095
0
LINE
8
Black
10
60.4964
20
-120.095
11
60.7821
21
-120.238
0
LINE
8
Black
10
60.7821
20
-120.238
11
60.925
21
-120.381
0
LINE
8
Black
10
60.925
20
-120.381
11
61.0679
21
-120.666
0
LINE
8
Black
10
61.0679
20
-120.666
11
61.0679
21
-121.381
0
LINE
8
Black
10
61.0679
20
-121.381
11
60.925
21
-121.666
0
LINE
8
Black
10
60.925
20
-121.666
11
60.7821
21
-121.809
0
LINE
8
Black
10
60.7821
20
-121.809
11
60.4964
21
-121.952
0
LINE
8
Black
10
60.4964
20
-121.952
11
59.6393
21
-121.952
0
LINE
8
Black
10
59.6393
20
-121.952
11
59.3536
21
-121.809
0
LINE
8
Black
10
59.3536
20
-121.809
11
59.2107
21
-121.666
0
LINE
8
Black
10
63.7821
20
-118.952
11
62.3536
21
-118.952
0
LINE
8
Black
10
62.3536
20
-118.952
11
62.2107
21
-120.381
0
LINE
8
Black
10
62.2107
20
-120.381
11
62.3536
21
-120.238
0
LINE
8
Black
10
62.3536
20
-120.238
11
62.6393
21
-120.095
0
LINE
8
Black
10
62.6393
20
-120.095
11
63.3536
21
-120.095
0
LINE
8
Black
10
63.3536
20
-120.095
11
63.6393
21
-120.238
0
LINE
8
Black
10
63.6393
20
-120.238
11
63.7821
21
-120.381
0
LINE
8
Black
10
63.7821
20
-120.381
11
63.925
21
-120.666
0
LINE
8
Black
10
63.925
20
-120.666
11
63.925
21
-121.381
0
LINE
8
Black
10
63.925
20
-121.381
11
63.7821
21
-121.666
0
LINE
8
Black
10
63.7821
20
-121.666
11
63.6393
21
-121.809
0
LINE
8
Black
10
63.6393
20
-121.809
11
63.3536
21
-121.952
0
LINE
8
Black
10
63.3536
20
-121.952
11
62.6393
21
-121.952
0
LINE
8
Black
10
62.6393
20
-121.952
11
62.3536
21
-121.809
0
LINE
8
Black
10
62.3536
20
-121.809
11
62.2107
21
-121.666
0
LINE
8
Black
10
65.0679
20
-118.952
11
65.0679
21
-119.524
0
LINE
8
Black
10
66.2107
20
-118.952
11
66.2107
21
-119.524
0
LINE
8
Black
10
70.6393
20
-123.095
11
70.4964
21
-122.952
0
LINE
8
Black
10
70.4964
20
-122.952
11
70.2107
21
-122.524
0
LINE
8
Black
10
70.2107
20
-122.524
11
70.0679
21
-122.238
0
LINE
8
Black
10
70.0679
20
-122.238
11
69.925
21
-121.809
0
LINE
8
Black
10
69.925
20
-121.809
11
69.7821
21
-121.095
0
LINE
8
Black
10
69.7821
20
-121.095
11
69.7821
21
-120.524
0
LINE
8
Black
10
69.7821
20
-120.524
11
69.925
21
-119.809
0
LINE
8
Black
10
69.925
20
-119.809
11
70.0679
21
-119.381
0
LINE
8
Black
10
70.0679
20
-119.381
11
70.2107
21
-119.095
0
LINE
8
Black
10
70.2107
20
-119.095
11
70.4964
21
-118.666
0
LINE
8
Black
10
70.4964
20
-118.666
11
70.6393
21
-118.524
0
LINE
8
Black
10
73.0679
20
-118.952
11
72.4964
21
-118.952
0
LINE
8
Black
10
72.4964
20
-118.952
11
72.2107
21
-119.095
0
LINE
8
Black
10
72.2107
20
-119.095
11
72.0679
21
-119.238
0
LINE
8
Black
10
72.0679
20
-119.238
11
71.7821
21
-119.666
0
LINE
8
Black
10
71.7821
20
-119.666
11
71.6393
21
-120.238
0
LINE
8
Black
10
71.6393
20
-120.238
11
71.6393
21
-121.381
0
LINE
8
Black
10
71.6393
20
-121.381
11
71.7821
21
-121.666
0
LINE
8
Black
10
71.7821
20
-121.666
11
71.925
21
-121.809
0
LINE
8
Black
10
71.925
20
-121.809
11
72.2107
21
-121.952
0
LINE
8
Black
10
72.2107
20
-121.952
11
72.7821
21
-121.952
0
LINE
8
Black
10
72.7821
20
-121.952
11
73.0679
21
-121.809
0
LINE
8
Black
10
73.0679
20
-121.809
11
73.2107
21
-121.666
0
LINE
8
Black
10
73.2107
20
-121.666
11
73.3536
21
-121.381
0
LINE
8
Black
10
73.3536
20
-121.381
11
73.3536
21
-120.666
0
LINE
8
Black
10
73.3536
20
-120.666
11
73.2107
21
-120.381
0
LINE
8
Black
10
73.2107
20
-120.381
11
73.0679
21
-120.238
0
LINE
8
Black
10
73.0679
20
-120.238
11
72.7821
21
-120.095
0
LINE
8
Black
10
72.7821
20
-120.095
11
72.2107
21
-120.095
0
LINE
8
Black
10
72.2107
20
-120.095
11
71.925
21
-120.238
0
LINE
8
Black
10
71.925
20
-120.238
11
71.7821
21
-120.381
0
LINE
8
Black
10
71.7821
20
-120.381
11
71.6393
21
-120.666
0
LINE
8
Black
10
76.925
20
-121.952
11
76.925
21
-118.952
0
LINE
8
Black
10
78.2107
20
-121.952
11
78.2107
21
-120.381
0
LINE
8
Black
10
78.2107
20
-120.381
11
78.0679
21
-120.095
0
LINE
8
Black
10
78.0679
20
-120.095
11
77.7821
21
-119.952
0
LINE
8
Black
10
77.7821
20
-119.952
11
77.3536
21
-119.952
0
LINE
8
Black
10
77.3536
20
-119.952
11
77.0679
21
-120.095
0
LINE
8
Black
10
77.0679
20
-120.095
11
76.925
21
-120.238
0
LINE
8
Black
10
80.0679
20
-121.952
11
79.7821
21
-121.809
0
LINE
8
Black
10
79.7821
20
-121.809
11
79.6393
21
-121.666
0
LINE
8
Black
10
79.6393
20
-121.666
11
79.4964
21
-121.381
0
LINE
8
Black
10
79.4964
20
-121.381
11
79.4964
21
-120.524
0
LINE
8
Black
10
79.4964
20
-120.524
11
79.6393
21
-120.238
0
LINE
8
Black
10
79.6393
20
-120.238
11
79.7821
21
-120.095
0
LINE
8
Black
10
79.7821
20
-120.095
11
80.0679
21
-119.952
0
LINE
8
Black
10
80.0679
20
-119.952
11
80.4964
21
-119.952
0
LINE
8
Black
10
80.4964
20
-119.952
11
80.7821
21
-120.095
0
LINE
8
Black
10
80.7821
20
-120.095
11
80.925
21
-120.238
0
LINE
8
Black
10
80.925
20
-120.238
11
81.0679
21
-120.524
0
LINE
8
Black
10
81.0679
20
-120.524
11
81.0679
21
-121.381
0
LINE
8
Black
10
81.0679
20
-121.381
11
80.925
21
-121.666
0
LINE
8
Black
10
80.925
20
-121.666
11
80.7821
21
-121.809
0
LINE
8
Black
10
80.7821
20
-121.809
11
80.4964
21
-121.952
0
LINE
8
Black
10
80.4964
20
-121.952
11
80.0679
21
-121.952
0
LINE
8
Black
10
82.7821
20
-121.952
11
82.4964
21
-121.809
0
LINE
8
Black
10
82.4964
20
-121.809
11
82.3536
21
-121.524
0
LINE
8
Black
10
82.3536
20
-121.524
11
82.3536
21
-118.952
0
LINE
8
Black
10
85.0679
20
-121.809
11
84.7821
21
-121.952
0
LINE
8
Black
10
84.7821
20
-121.952
11
84.2107
21
-121.952
0
LINE
8
Black
10
84.2107
20
-121.952
11
83.925
21
-121.809
0
LINE
8
Black
10
83.925
20
-121.809
11
83.7821
21
-121.524
0
LINE
8
Black
10
83.7821
20
-121.524
11
83.7821
21
-120.381
0
LINE
8
Black
10
83.7821
20
-120.381
11
83.925
21
-120.095
0
LINE
8
Black
10
83.925
20
-120.095
11
84.2107
21
-119.952
0
LINE
8
Black
10
84.2107
20
-119.952
11
84.7821
21
-119.952
0
LINE
8
Black
10
84.7821
20
-119.952
11
85.0679
21
-120.095
0
LINE
8
Black
10
85.0679
20
-120.095
11
85.2107
21
-120.381
0
LINE
8
Black
10
85.2107
20
-120.381
11
85.2107
21
-120.666
0
LINE
8
Black
10
85.2107
20
-120.666
11
83.7821
21
-120.952
0
LINE
8
Black
10
86.3536
20
-121.809
11
86.6393
21
-121.952
0
LINE
8
Black
10
86.6393
20
-121.952
11
87.2107
21
-121.952
0
LINE
8
Black
10
87.2107
20
-121.952
11
87.4964
21
-121.809
0
LINE
8
Black
10
87.4964
20
-121.809
11
87.6393
21
-121.524
0
LINE
8
Black
10
87.6393
20
-121.524
11
87.6393
21
-121.381
0
LINE
8
Black
10
87.6393
20
-121.381
11
87.4964
21
-121.095
0
LINE
8
Black
10
87.4964
20
-121.095
11
87.2107
21
-120.952
0
LINE
8
Black
10
87.2107
20
-120.952
11
86.7821
21
-120.952
0
LINE
8
Black
10
86.7821
20
-120.952
11
86.4964
21
-120.809
0
LINE
8
Black
10
86.4964
20
-120.809
11
86.3536
21
-120.524
0
LINE
8
Black
10
86.3536
20
-120.524
11
86.3536
21
-120.381
0
LINE
8
Black
10
86.3536
20
-120.381
11
86.4964
21
-120.095
0
LINE
8
Black
10
86.4964
20
-120.095
11
86.7821
21
-119.952
0
LINE
8
Black
10
86.7821
20
-119.952
11
87.2107
21
-119.952
0
LINE
8
Black
10
87.2107
20
-119.952
11
87.4964
21
-120.095
0
LINE
8
Black
10
88.6393
20
-123.095
11
88.7821
21
-122.952
0
LINE
8
Black
10
88.7821
20
-122.952
11
89.0679
21
-122.524
0
LINE
8
Black
10
89.0679
20
-122.524
11
89.2107
21
-122.238
0
LINE
8
Black
10
89.2107
20
-122.238
11
89.3536
21
-121.809
0
LINE
8
Black
10
89.3536
20
-121.809
11
89.4964
21
-121.095
0
LINE
8
Black
10
89.4964
20
-121.095
11
89.4964
21
-120.524
0
LINE
8
Black
10
89.4964
20
-120.524
11
89.3536
21
-119.809
0
LINE
8
Black
10
89.3536
20
-119.809
11
89.2107
21
-119.381
0
LINE
8
Black
10
89.2107
20
-119.381
11
89.0679
21
-119.095
0
LINE
8
Black
10
89.0679
20
-119.095
11
88.7821
21
-118.666
0
LINE
8
Black
10
88.7821
20
-118.666
11
88.6393
21
-118.524
0
LINE
8
Black
10
23.7786
20
-124.909
11
23.7786
21
-124.201
0
LINE
8
Black
10
23.7786
20
-124.201
11
23.0714
21
-124.201
0
LINE
8
Black
10
23.0714
20
-124.201
11
23.0714
21
-124.909
0
LINE
8
Black
10
23.0714
20
-124.909
11
23.7786
21
-124.909
0
LINE
8
Black
10
28.2107
20
-125.912
11
26.4964
21
-125.912
0
LINE
8
Black
10
27.3536
20
-125.912
11
27.3536
21
-122.912
0
LINE
8
Black
10
27.3536
20
-122.912
11
27.0679
21
-123.341
0
LINE
8
Black
10
27.0679
20
-123.341
11
26.7821
21
-123.626
0
LINE
8
Black
10
26.7821
20
-123.626
11
26.4964
21
-123.769
0
LINE
8
Black
10
29.4964
20
-125.626
11
29.6393
21
-125.769
0
LINE
8
Black
10
29.6393
20
-125.769
11
29.4964
21
-125.912
0
LINE
8
Black
10
29.4964
20
-125.912
11
29.3536
21
-125.769
0
LINE
8
Black
10
29.3536
20
-125.769
11
29.4964
21
-125.626
0
LINE
8
Black
10
29.4964
20
-125.626
11
29.4964
21
-125.912
0
LINE
8
Black
10
31.4964
20
-122.912
11
31.7821
21
-122.912
0
LINE
8
Black
10
31.7821
20
-122.912
11
32.0679
21
-123.055
0
LINE
8
Black
10
32.0679
20
-123.055
11
32.2107
21
-123.198
0
LINE
8
Black
10
32.2107
20
-123.198
11
32.3536
21
-123.484
0
LINE
8
Black
10
32.3536
20
-123.484
11
32.4964
21
-124.055
0
LINE
8
Black
10
32.4964
20
-124.055
11
32.4964
21
-124.769
0
LINE
8
Black
10
32.4964
20
-124.769
11
32.3536
21
-125.341
0
LINE
8
Black
10
32.3536
20
-125.341
11
32.2107
21
-125.626
0
LINE
8
Black
10
32.2107
20
-125.626
11
32.0679
21
-125.769
0
LINE
8
Black
10
32.0679
20
-125.769
11
31.7821
21
-125.912
0
LINE
8
Black
10
31.7821
20
-125.912
11
31.4964
21
-125.912
0
LINE
8
Black
10
31.4964
20
-125.912
11
31.2107
21
-125.769
0
LINE
8
Black
10
31.2107
20
-125.769
11
31.0679
21
-125.626
0
LINE
8
Black
10
31.0679
20
-125.626
11
30.925
21
-125.341
0
LINE
8
Black
10
30.925
20
-125.341
11
30.7821
21
-124.769
0
LINE
8
Black
10
30.7821
20
-124.769
11
30.7821
21
-124.055
0
LINE
8
Black
10
30.7821
20
-124.055
11
30.925
21
-123.484
0
LINE
8
Black
10
30.925
20
-123.484
11
31.0679
21
-123.198
0
LINE
8
Black
10
31.0679
20
-123.198
11
31.2107
21
-123.055
0
LINE
8
Black
10
31.2107
20
-123.055
11
31.4964
21
-122.912
0
LINE
8
Black
10
34.3536
20
-122.912
11
34.6393
21
-122.912
0
LINE
8
Black
10
34.6393
20
-122.912
11
34.925
21
-123.055
0
LINE
8
Black
10
34.925
20
-123.055
11
35.0679
21
-123.198
0
LINE
8
Black
10
35.0679
20
-123.198
11
35.2107
21
-123.484
0
LINE
8
Black
10
35.2107
20
-123.484
11
35.3536
21
-124.055
0
LINE
8
Black
10
35.3536
20
-124.055
11
35.3536
21
-124.769
0
LINE
8
Black
10
35.3536
20
-124.769
11
35.2107
21
-125.341
0
LINE
8
Black
10
35.2107
20
-125.341
11
35.0679
21
-125.626
0
LINE
8
Black
10
35.0679
20
-125.626
11
34.925
21
-125.769
0
LINE
8
Black
10
34.925
20
-125.769
11
34.6393
21
-125.912
0
LINE
8
Black
10
34.6393
20
-125.912
11
34.3536
21
-125.912
0
LINE
8
Black
10
34.3536
20
-125.912
11
34.0679
21
-125.769
0
LINE
8
Black
10
34.0679
20
-125.769
11
33.925
21
-125.626
0
LINE
8
Black
10
33.925
20
-125.626
11
33.7821
21
-125.341
0
LINE
8
Black
10
33.7821
20
-125.341
11
33.6393
21
-124.769
0
LINE
8
Black
10
33.6393
20
-124.769
11
33.6393
21
-124.055
0
LINE
8
Black
10
33.6393
20
-124.055
11
33.7821
21
-123.484
0
LINE
8
Black
10
33.7821
20
-123.484
11
33.925
21
-123.198
0
LINE
8
Black
10
33.925
20
-123.198
11
34.0679
21
-123.055
0
LINE
8
Black
10
34.0679
20
-123.055
11
34.3536
21
-122.912
0
LINE
8
Black
10
36.6393
20
-125.912
11
36.6393
21
-123.912
0
LINE
8
Black
10
36.6393
20
-124.198
11
36.7821
21
-124.055
0
LINE
8
Black
10
36.7821
20
-124.055
11
37.0679
21
-123.912
0
LINE
8
Black
10
37.0679
20
-123.912
11
37.4964
21
-123.912
0
LINE
8
Black
10
37.4964
20
-123.912
11
37.7821
21
-124.055
0
LINE
8
Black
10
37.7821
20
-124.055
11
37.925
21
-124.341
0
LINE
8
Black
10
37.925
20
-124.341
11
37.925
21
-125.912
0
LINE
8
Black
10
37.925
20
-124.341
11
38.0679
21
-124.055
0
LINE
8
Black
10
38.0679
20
-124.055
11
38.3536
21
-123.912
0
LINE
8
Black
10
38.3536
20
-123.912
11
38.7821
21
-123.912
0
LINE
8
Black
10
38.7821
20
-123.912
11
39.0679
21
-124.055
0
LINE
8
Black
10
39.0679
20
-124.055
11
39.2107
21
-124.341
0
LINE
8
Black
10
39.2107
20
-124.341
11
39.2107
21
-125.912
0
LINE
8
Black
10
40.6393
20
-125.912
11
40.6393
21
-123.912
0
LINE
8
Black
10
40.6393
20
-124.198
11
40.7821
21
-124.055
0
LINE
8
Black
10
40.7821
20
-124.055
11
41.0679
21
-123.912
0
LINE
8
Black
10
41.0679
20
-123.912
11
41.4964
21
-123.912
0
LINE
8
Black
10
41.4964
20
-123.912
11
41.7821
21
-124.055
0
LINE
8
Black
10
41.7821
20
-124.055
11
41.925
21
-124.341
0
LINE
8
Black
10
41.925
20
-124.341
11
41.925
21
-125.912
0
LINE
8
Black
10
41.925
20
-124.341
11
42.0679
21
-124.055
0
LINE
8
Black
10
42.0679
20
-124.055
11
42.3536
21
-123.912
0
LINE
8
Black
10
42.3536
20
-123.912
11
42.7821
21
-123.912
0
LINE
8
Black
10
42.7821
20
-123.912
11
43.0679
21
-124.055
0
LINE
8
Black
10
43.0679
20
-124.055
11
43.2107
21
-124.341
0
LINE
8
Black
10
43.2107
20
-124.341
11
43.2107
21
-125.912
0
LINE
8
Black
10
49.0679
20
-122.769
11
46.4964
21
-126.626
0
LINE
8
Black
10
52.925
20
-122.912
11
53.2107
21
-122.912
0
LINE
8
Black
10
53.2107
20
-122.912
11
53.4964
21
-123.055
0
LINE
8
Black
10
53.4964
20
-123.055
11
53.6393
21
-123.198
0
LINE
8
Black
10
53.6393
20
-123.198
11
53.7821
21
-123.484
0
LINE
8
Black
10
53.7821
20
-123.484
11
53.925
21
-124.055
0
LINE
8
Black
10
53.925
20
-124.055
11
53.925
21
-124.769
0
LINE
8
Black
10
53.925
20
-124.769
11
53.7821
21
-125.341
0
LINE
8
Black
10
53.7821
20
-125.341
11
53.6393
21
-125.626
0
LINE
8
Black
10
53.6393
20
-125.626
11
53.4964
21
-125.769
0
LINE
8
Black
10
53.4964
20
-125.769
11
53.2107
21
-125.912
0
LINE
8
Black
10
53.2107
20
-125.912
11
52.925
21
-125.912
0
LINE
8
Black
10
52.925
20
-125.912
11
52.6393
21
-125.769
0
LINE
8
Black
10
52.6393
20
-125.769
11
52.4964
21
-125.626
0
LINE
8
Black
10
52.4964
20
-125.626
11
52.3536
21
-125.341
0
LINE
8
Black
10
52.3536
20
-125.341
11
52.2107
21
-124.769
0
LINE
8
Black
10
52.2107
20
-124.769
11
52.2107
21
-124.055
0
LINE
8
Black
10
52.2107
20
-124.055
11
52.3536
21
-123.484
0
LINE
8
Black
10
52.3536
20
-123.484
11
52.4964
21
-123.198
0
LINE
8
Black
10
52.4964
20
-123.198
11
52.6393
21
-123.055
0
LINE
8
Black
10
52.6393
20
-123.055
11
52.925
21
-122.912
0
LINE
8
Black
10
55.2107
20
-125.626
11
55.3536
21
-125.769
0
LINE
8
Black
10
55.3536
20
-125.769
11
55.2107
21
-125.912
0
LINE
8
Black
10
55.2107
20
-125.912
11
55.0679
21
-125.769
0
LINE
8
Black
10
55.0679
20
-125.769
11
55.2107
21
-125.626
0
LINE
8
Black
10
55.2107
20
-125.626
11
55.2107
21
-125.912
0
LINE
8
Black
10
57.2107
20
-122.912
11
57.4964
21
-122.912
0
LINE
8
Black
10
57.4964
20
-122.912
11
57.7821
21
-123.055
0
LINE
8
Black
10
57.7821
20
-123.055
11
57.925
21
-123.198
0
LINE
8
Black
10
57.925
20
-123.198
11
58.0679
21
-123.484
0
LINE
8
Black
10
58.0679
20
-123.484
11
58.2107
21
-124.055
0
LINE
8
Black
10
58.2107
20
-124.055
11
58.2107
21
-124.769
0
LINE
8
Black
10
58.2107
20
-124.769
11
58.0679
21
-125.341
0
LINE
8
Black
10
58.0679
20
-125.341
11
57.925
21
-125.626
0
LINE
8
Black
10
57.925
20
-125.626
11
57.7821
21
-125.769
0
LINE
8
Black
10
57.7821
20
-125.769
11
57.4964
21
-125.912
0
LINE
8
Black
10
57.4964
20
-125.912
11
57.2107
21
-125.912
0
LINE
8
Black
10
57.2107
20
-125.912
11
56.925
21
-125.769
0
LINE
8
Black
10
56.925
20
-125.769
11
56.7821
21
-125.626
0
LINE
8
Black
10
56.7821
20
-125.626
11
56.6393
21
-125.341
0
LINE
8
Black
10
56.6393
20
-125.341
11
56.4964
21
-124.769
0
LINE
8
Black
10
56.4964
20
-124.769
11
56.4964
21
-124.055
0
LINE
8
Black
10
56.4964
20
-124.055
11
56.6393
21
-123.484
0
LINE
8
Black
10
56.6393
20
-123.484
11
56.7821
21
-123.198
0
LINE
8
Black
10
56.7821
20
-123.198
11
56.925
21
-123.055
0
LINE
8
Black
10
56.925
20
-123.055
11
57.2107
21
-122.912
0
LINE
8
Black
10
59.2107
20
-122.912
11
61.0679
21
-122.912
0
LINE
8
Black
10
61.0679
20
-122.912
11
60.0679
21
-124.055
0
LINE
8
Black
10
60.0679
20
-124.055
11
60.4964
21
-124.055
0
LINE
8
Black
10
60.4964
20
-124.055
11
60.7821
21
-124.198
0
LINE
8
Black
10
60.7821
20
-124.198
11
60.925
21
-124.341
0
LINE
8
Black
10
60.925
20
-124.341
11
61.0679
21
-124.626
0
LINE
8
Black
10
61.0679
20
-124.626
11
61.0679
21
-125.341
0
LINE
8
Black
10
61.0679
20
-125.341
11
60.925
21
-125.626
0
LINE
8
Black
10
60.925
20
-125.626
11
60.7821
21
-125.769
0
LINE
8
Black
10
60.7821
20
-125.769
11
60.4964
21
-125.912
0
LINE
8
Black
10
60.4964
20
-125.912
11
59.6393
21
-125.912
0
LINE
8
Black
10
59.6393
20
-125.912
11
59.3536
21
-125.769
0
LINE
8
Black
10
59.3536
20
-125.769
11
59.2107
21
-125.626
0
LINE
8
Black
10
62.4964
20
-125.912
11
63.0679
21
-125.912
0
LINE
8
Black
10
63.0679
20
-125.912
11
63.3536
21
-125.769
0
LINE
8
Black
10
63.3536
20
-125.769
11
63.4964
21
-125.626
0
LINE
8
Black
10
63.4964
20
-125.626
11
63.7821
21
-125.198
0
LINE
8
Black
10
63.7821
20
-125.198
11
63.925
21
-124.626
0
LINE
8
Black
10
63.925
20
-124.626
11
63.925
21
-123.484
0
LINE
8
Black
10
63.925
20
-123.484
11
63.7821
21
-123.198
0
LINE
8
Black
10
63.7821
20
-123.198
11
63.6393
21
-123.055
0
LINE
8
Black
10
63.6393
20
-123.055
11
63.3536
21
-122.912
0
LINE
8
Black
10
63.3536
20
-122.912
11
62.7821
21
-122.912
0
LINE
8
Black
10
62.7821
20
-122.912
11
62.4964
21
-123.055
0
LINE
8
Black
10
62.4964
20
-123.055
11
62.3536
21
-123.198
0
LINE
8
Black
10
62.3536
20
-123.198
11
62.2107
21
-123.484
0
LINE
8
Black
10
62.2107
20
-123.484
11
62.2107
21
-124.198
0
LINE
8
Black
10
62.2107
20
-124.198
11
62.3536
21
-124.484
0
LINE
8
Black
10
62.3536
20
-124.484
11
62.4964
21
-124.626
0
LINE
8
Black
10
62.4964
20
-124.626
11
62.7821
21
-124.769
0
LINE
8
Black
10
62.7821
20
-124.769
11
63.3536
21
-124.769
0
LINE
8
Black
10
63.3536
20
-124.769
11
63.6393
21
-124.626
0
LINE
8
Black
10
63.6393
20
-124.626
11
63.7821
21
-124.484
0
LINE
8
Black
10
63.7821
20
-124.484
11
63.925
21
-124.198
0
LINE
8
Black
10
65.0679
20
-122.912
11
65.0679
21
-123.484
0
LINE
8
Black
10
66.2107
20
-122.912
11
66.2107
21
-123.484
0
LINE
8
Black
10
70.6393
20
-127.055
11
70.4964
21
-126.912
0
LINE
8
Black
10
70.4964
20
-126.912
11
70.2107
21
-126.484
0
LINE
8
Black
10
70.2107
20
-126.484
11
70.0679
21
-126.198
0
LINE
8
Black
10
70.0679
20
-126.198
11
69.925
21
-125.769
0
LINE
8
Black
10
69.925
20
-125.769
11
69.7821
21
-125.055
0
LINE
8
Black
10
69.7821
20
-125.055
11
69.7821
21
-124.484
0
LINE
8
Black
10
69.7821
20
-124.484
11
69.925
21
-123.769
0
LINE
8
Black
10
69.925
20
-123.769
11
70.0679
21
-123.341
0
LINE
8
Black
10
70.0679
20
-123.341
11
70.2107
21
-123.055
0
LINE
8
Black
10
70.2107
20
-123.055
11
70.4964
21
-122.626
0
LINE
8
Black
10
70.4964
20
-122.626
11
70.6393
21
-122.484
0
LINE
8
Black
10
73.3536
20
-125.912
11
71.6393
21
-125.912
0
LINE
8
Black
10
72.4964
20
-125.912
11
72.4964
21
-122.912
0
LINE
8
Black
10
72.4964
20
-122.912
11
72.2107
21
-123.341
0
LINE
8
Black
10
72.2107
20
-123.341
11
71.925
21
-123.626
0
LINE
8
Black
10
71.925
20
-123.626
11
71.6393
21
-123.769
0
LINE
8
Black
10
76.2107
20
-125.912
11
74.4964
21
-125.912
0
LINE
8
Black
10
75.3536
20
-125.912
11
75.3536
21
-122.912
0
LINE
8
Black
10
75.3536
20
-122.912
11
75.0679
21
-123.341
0
LINE
8
Black
10
75.0679
20
-123.341
11
74.7821
21
-123.626
0
LINE
8
Black
10
74.7821
20
-123.626
11
74.4964
21
-123.769
0
LINE
8
Black
10
78.925
20
-122.912
11
77.4964
21
-122.912
0
LINE
8
Black
10
77.4964
20
-122.912
11
77.3536
21
-124.341
0
LINE
8
Black
10
77.3536
20
-124.341
11
77.4964
21
-124.198
0
LINE
8
Black
10
77.4964
20
-124.198
11
77.7821
21
-124.055
0
LINE
8
Black
10
77.7821
20
-124.055
11
78.4964
21
-124.055
0
LINE
8
Black
10
78.4964
20
-124.055
11
78.7821
21
-124.198
0
LINE
8
Black
10
78.7821
20
-124.198
11
78.925
21
-124.341
0
LINE
8
Black
10
78.925
20
-124.341
11
79.0679
21
-124.626
0
LINE
8
Black
10
79.0679
20
-124.626
11
79.0679
21
-125.341
0
LINE
8
Black
10
79.0679
20
-125.341
11
78.925
21
-125.626
0
LINE
8
Black
10
78.925
20
-125.626
11
78.7821
21
-125.769
0
LINE
8
Black
10
78.7821
20
-125.769
11
78.4964
21
-125.912
0
LINE
8
Black
10
78.4964
20
-125.912
11
77.7821
21
-125.912
0
LINE
8
Black
10
77.7821
20
-125.912
11
77.4964
21
-125.769
0
LINE
8
Black
10
77.4964
20
-125.769
11
77.3536
21
-125.626
0
LINE
8
Black
10
82.6393
20
-125.912
11
82.6393
21
-122.912
0
LINE
8
Black
10
83.925
20
-125.912
11
83.925
21
-124.341
0
LINE
8
Black
10
83.925
20
-124.341
11
83.7821
21
-124.055
0
LINE
8
Black
10
83.7821
20
-124.055
11
83.4964
21
-123.912
0
LINE
8
Black
10
83.4964
20
-123.912
11
83.0679
21
-123.912
0
LINE
8
Black
10
83.0679
20
-123.912
11
82.7821
21
-124.055
0
LINE
8
Black
10
82.7821
20
-124.055
11
82.6393
21
-124.198
0
LINE
8
Black
10
85.7821
20
-125.912
11
85.4964
21
-125.769
0
LINE
8
Black
10
85.4964
20
-125.769
11
85.3536
21
-125.626
0
LINE
8
Black
10
85.3536
20
-125.626
11
85.2107
21
-125.341
0
LINE
8
Black
10
85.2107
20
-125.341
11
85.2107
21
-124.484
0
LINE
8
Black
10
85.2107
20
-124.484
11
85.3536
21
-124.198
0
LINE
8
Black
10
85.3536
20
-124.198
11
85.4964
21
-124.055
0
LINE
8
Black
10
85.4964
20
-124.055
11
85.7821
21
-123.912
0
LINE
8
Black
10
85.7821
20
-123.912
11
86.2107
21
-123.912
0
LINE
8
Black
10
86.2107
20
-123.912
11
86.4964
21
-124.055
0
LINE
8
Black
10
86.4964
20
-124.055
11
86.6393
21
-124.198
0
LINE
8
Black
10
86.6393
20
-124.198
11
86.7821
21
-124.484
0
LINE
8
Black
10
86.7821
20
-124.484
11
86.7821
21
-125.341
0
LINE
8
Black
10
86.7821
20
-125.341
11
86.6393
21
-125.626
0
LINE
8
Black
10
86.6393
20
-125.626
11
86.4964
21
-125.769
0
LINE
8
Black
10
86.4964
20
-125.769
11
86.2107
21
-125.912
0
LINE
8
Black
10
86.2107
20
-125.912
11
85.7821
21
-125.912
0
LINE
8
Black
10
88.4964
20
-125.912
11
88.2107
21
-125.769
0
LINE
8
Black
10
88.2107
20
-125.769
11
88.0679
21
-125.484
0
LINE
8
Black
10
88.0679
20
-125.484
11
88.0679
21
-122.912
0
LINE
8
Black
10
90.7821
20
-125.769
11
90.4964
21
-125.912
0
LINE
8
Black
10
90.4964
20
-125.912
11
89.925
21
-125.912
0
LINE
8
Black
10
89.925
20
-125.912
11
89.6393
21
-125.769
0
LINE
8
Black
10
89.6393
20
-125.769
11
89.4964
21
-125.484
0
LINE
8
Black
10
89.4964
20
-125.484
11
89.4964
21
-124.341
0
LINE
8
Black
10
89.4964
20
-124.341
11
89.6393
21
-124.055
0
LINE
8
Black
10
89.6393
20
-124.055
11
89.925
21
-123.912
0
LINE
8
Black
10
89.925
20
-123.912
11
90.4964
21
-123.912
0
LINE
8
Black
10
90.4964
20
-123.912
11
90.7821
21
-124.055
0
LINE
8
Black
10
90.7821
20
-124.055
11
90.925
21
-124.341
0
LINE
8
Black
10
90.925
20
-124.341
11
90.925
21
-124.626
0
LINE
8
Black
10
90.925
20
-124.626
11
89.4964
21
-124.912
0
LINE
8
Black
10
92.0679
20
-125.769
11
92.3536
21
-125.912
0
LINE
8
Black
10
92.3536
20
-125.912
11
92.925
21
-125.912
0
LINE
8
Black
10
92.925
20
-125.912
11
93.2107
21
-125.769
0
LINE
8
Black
10
93.2107
20
-125.769
11
93.3536
21
-125.484
0
LINE
8
Black
10
93.3536
20
-125.484
11
93.3536
21
-125.341
0
LINE
8
Black
10
93.3536
20
-125.341
11
93.2107
21
-125.055
0
LINE
8
Black
10
93.2107
20
-125.055
11
92.925
21
-124.912
0
LINE
8
Black
10
92.925
20
-124.912
11
92.4964
21
-124.912
0
LINE
8
Black
10
92.4964
20
-124.912
11
92.2107
21
-124.769
0
LINE
8
Black
10
92.2107
20
-124.769
11
92.0679
21
-124.484
0
LINE
8
Black
10
92.0679
20
-124.484
11
92.0679
21
-124.341
0
LINE
8
Black
10
92.0679
20
-124.341
11
92.2107
21
-124.055
0
LINE
8
Black
10
92.2107
20
-124.055
11
92.4964
21
-123.912
0
LINE
8
Black
10
92.4964
20
-123.912
11
92.925
21
-123.912
0
LINE
8
Black
10
92.925
20
-123.912
11
93.2107
21
-124.055
0
LINE
8
Black
10
94.3536
20
-127.055
11
94.4964
21
-126.912
0
LINE
8
Black
10
94.4964
20
-126.912
11
94.7821
21
-126.484
0
LINE
8
Black
10
94.7821
20
-126.484
11
94.925
21
-126.198
0
LINE
8
Black
10
94.925
20
-126.198
11
95.0679
21
-125.769
0
LINE
8
Black
10
95.0679
20
-125.769
11
95.2107
21
-125.055
0
LINE
8
Black
10
95.2107
20
-125.055
11
95.2107
21
-124.484
0
LINE
8
Black
10
95.2107
20
-124.484
11
95.0679
21
-123.769
0
LINE
8
Black
10
95.0679
20
-123.769
11
94.925
21
-123.341
0
LINE
8
Black
10
94.925
20
-123.341
11
94.7821
21
-123.055
0
LINE
8
Black
10
94.7821
20
-123.055
11
94.4964
21
-122.626
0
LINE
8
Black
10
94.4964
20
-122.626
11
94.3536
21
-122.484
0
LINE
8
Black
10
23.375
20
-129.065
11
23.925
21
-128.515
0
LINE
8
Black
10
23.925
20
-128.515
11
23.375
21
-127.965
0
LINE
8
Black
10
23.375
20
-127.965
11
22.825
21
-128.515
0
LINE
8
Black
10
22.825
20
-128.515
11
23.375
21
-129.065
0
LINE
8
Black
10
28.2107
20
-129.872
11
26.4964
21
-129.872
0
LINE
8
Black
10
27.3536
20
-129.872
11
27.3536
21
-126.872
0
LINE
8
Black
10
27.3536
20
-126.872
11
27.0679
21
-127.301
0
LINE
8
Black
10
27.0679
20
-127.301
11
26.7821
21
-127.586
0
LINE
8
Black
10
26.7821
20
-127.586
11
26.4964
21
-127.729
0
LINE
8
Black
10
29.4964
20
-129.586
11
29.6393
21
-129.729
0
LINE
8
Black
10
29.6393
20
-129.729
11
29.4964
21
-129.872
0
LINE
8
Black
10
29.4964
20
-129.872
11
29.3536
21
-129.729
0
LINE
8
Black
10
29.3536
20
-129.729
11
29.4964
21
-129.586
0
LINE
8
Black
10
29.4964
20
-129.586
11
29.4964
21
-129.872
0
LINE
8
Black
10
32.4964
20
-129.872
11
30.7821
21
-129.872
0
LINE
8
Black
10
31.6393
20
-129.872
11
31.6393
21
-126.872
0
LINE
8
Black
10
31.6393
20
-126.872
11
31.3536
21
-127.301
0
LINE
8
Black
10
31.3536
20
-127.301
11
31.0679
21
-127.586
0
LINE
8
Black
10
31.0679
20
-127.586
11
30.7821
21
-127.729
0
LINE
8
Black
10
34.3536
20
-126.872
11
34.6393
21
-126.872
0
LINE
8
Black
10
34.6393
20
-126.872
11
34.925
21
-127.015
0
LINE
8
Black
10
34.925
20
-127.015
11
35.0679
21
-127.158
0
LINE
8
Black
10
35.0679
20
-127.158
11
35.2107
21
-127.444
0
LINE
8
Black
10
35.2107
20
-127.444
11
35.3536
21
-128.015
0
LINE
8
Black
10
35.3536
20
-128.015
11
35.3536
21
-128.729
0
LINE
8
Black
10
35.3536
20
-128.729
11
35.2107
21
-129.301
0
LINE
8
Black
10
35.2107
20
-129.301
11
35.0679
21
-129.586
0
LINE
8
Black
10
35.0679
20
-129.586
11
34.925
21
-129.729
0
LINE
8
Black
10
34.925
20
-129.729
11
34.6393
21
-129.872
0
LINE
8
Black
10
34.6393
20
-129.872
11
34.3536
21
-129.872
0
LINE
8
Black
10
34.3536
20
-129.872
11
34.0679
21
-129.729
0
LINE
8
Black
10
34.0679
20
-129.729
11
33.925
21
-129.586
0
LINE
8
Black
10
33.925
20
-129.586
11
33.7821
21
-129.301
0
LINE
8
Black
10
33.7821
20
-129.301
11
33.6393
21
-128.729
0
LINE
8
Black
10
33.6393
20
-128.729
11
33.6393
21
-128.015
0
LINE
8
Black
10
33.6393
20
-128.015
11
33.7821
21
-127.444
0
LINE
8
Black
10
33.7821
20
-127.444
11
33.925
21
-127.158
0
LINE
8
Black
10
33.925
20
-127.158
11
34.0679
21
-127.015
0
LINE
8
Black
10
34.0679
20
-127.015
11
34.3536
21
-126.872
0
LINE
8
Black
10
36.6393
20
-129.872
11
36.6393
21
-127.872
0
LINE
8
Black
10
36.6393
20
-128.158
11
36.7821
21
-128.015
0
LINE
8
Black
10
36.7821
20
-128.015
11
37.0679
21
-127.872
0
LINE
8
Black
10
37.0679
20
-127.872
11
37.4964
21
-127.872
0
LINE
8
Black
10
37.4964
20
-127.872
11
37.7821
21
-128.015
0
LINE
8
Black
10
37.7821
20
-128.015
11
37.925
21
-128.301
0
LINE
8
Black
10
37.925
20
-128.301
11
37.925
21
-129.872
0
LINE
8
Black
10
37.925
20
-128.301
11
38.0679
21
-128.015
0
LINE
8
Black
10
38.0679
20
-128.015
11
38.3536
21
-127.872
0
LINE
8
Black
10
38.3536
20
-127.872
11
38.7821
21
-127.872
0
LINE
8
Black
10
38.7821
20
-127.872
11
39.0679
21
-128.015
0
LINE
8
Black
10
39.0679
20
-128.015
11
39.2107
21
-128.301
0
LINE
8
Black
10
39.2107
20
-128.301
11
39.2107
21
-129.872
0
LINE
8
Black
10
40.6393
20
-129.872
11
40.6393
21
-127.872
0
LINE
8
Black
10
40.6393
20
-128.158
11
40.7821
21
-128.015
0
LINE
8
Black
10
40.7821
20
-128.015
11
41.0679
21
-127.872
0
LINE
8
Black
10
41.0679
20
-127.872
11
41.4964
21
-127.872
0
LINE
8
Black
10
41.4964
20
-127.872
11
41.7821
21
-128.015
0
LINE
8
Black
10
41.7821
20
-128.015
11
41.925
21
-128.301
0
LINE
8
Black
10
41.925
20
-128.301
11
41.925
21
-129.872
0
LINE
8
Black
10
41.925
20
-128.301
11
42.0679
21
-128.015
0
LINE
8
Black
10
42.0679
20
-128.015
11
42.3536
21
-127.872
0
LINE
8
Black
10
42.3536
20
-127.872
11
42.7821
21
-127.872
0
LINE
8
Black
10
42.7821
20
-127.872
11
43.0679
21
-128.015
0
LINE
8
Black
10
43.0679
20
-128.015
11
43.2107
21
-128.301
0
LINE
8
Black
10
43.2107
20
-128.301
11
43.2107
21
-129.872
0
LINE
8
Black
10
49.0679
20
-126.729
11
46.4964
21
-130.586
0
LINE
8
Black
10
52.925
20
-126.872
11
53.2107
21
-126.872
0
LINE
8
Black
10
53.2107
20
-126.872
11
53.4964
21
-127.015
0
LINE
8
Black
10
53.4964
20
-127.015
11
53.6393
21
-127.158
0
LINE
8
Black
10
53.6393
20
-127.158
11
53.7821
21
-127.444
0
LINE
8
Black
10
53.7821
20
-127.444
11
53.925
21
-128.015
0
LINE
8
Black
10
53.925
20
-128.015
11
53.925
21
-128.729
0
LINE
8
Black
10
53.925
20
-128.729
11
53.7821
21
-129.301
0
LINE
8
Black
10
53.7821
20
-129.301
11
53.6393
21
-129.586
0
LINE
8
Black
10
53.6393
20
-129.586
11
53.4964
21
-129.729
0
LINE
8
Black
10
53.4964
20
-129.729
11
53.2107
21
-129.872
0
LINE
8
Black
10
53.2107
20
-129.872
11
52.925
21
-129.872
0
LINE
8
Black
10
52.925
20
-129.872
11
52.6393
21
-129.729
0
LINE
8
Black
10
52.6393
20
-129.729
11
52.4964
21
-129.586
0
LINE
8
Black
10
52.4964
20
-129.586
11
52.3536
21
-129.301
0
LINE
8
Black
10
52.3536
20
-129.301
11
52.2107
21
-128.729
0
LINE
8
Black
10
52.2107
20
-128.729
11
52.2107
21
-128.015
0
LINE
8
Black
10
52.2107
20
-128.015
11
52.3536
21
-127.444
0
LINE
8
Black
10
52.3536
20
-127.444
11
52.4964
21
-127.158
0
LINE
8
Black
10
52.4964
20
-127.158
11
52.6393
21
-127.015
0
LINE
8
Black
10
52.6393
20
-127.015
11
52.925
21
-126.872
0
LINE
8
Black
10
55.2107
20
-129.586
11
55.3536
21
-129.729
0
LINE
8
Black
10
55.3536
20
-129.729
11
55.2107
21
-129.872
0
LINE
8
Black
10
55.2107
20
-129.872
11
55.0679
21
-129.729
0
LINE
8
Black
10
55.0679
20
-129.729
11
55.2107
21
-129.586
0
LINE
8
Black
10
55.2107
20
-129.586
11
55.2107
21
-129.872
0
LINE
8
Black
10
57.2107
20
-126.872
11
57.4964
21
-126.872
0
LINE
8
Black
10
57.4964
20
-126.872
11
57.7821
21
-127.015
0
LINE
8
Black
10
57.7821
20
-127.015
11
57.925
21
-127.158
0
LINE
8
Black
10
57.925
20
-127.158
11
58.0679
21
-127.444
0
LINE
8
Black
10
58.0679
20
-127.444
11
58.2107
21
-128.015
0
LINE
8
Black
10
58.2107
20
-128.015
11
58.2107
21
-128.729
0
LINE
8
Black
10
58.2107
20
-128.729
11
58.0679
21
-129.301
0
LINE
8
Black
10
58.0679
20
-129.301
11
57.925
21
-129.586
0
LINE
8
Black
10
57.925
20
-129.586
11
57.7821
21
-129.729
0
LINE
8
Black
10
57.7821
20
-129.729
11
57.4964
21
-129.872
0
LINE
8
Black
10
57.4964
20
-129.872
11
57.2107
21
-129.872
0
LINE
8
Black
10
57.2107
20
-129.872
11
56.925
21
-129.729
0
LINE
8
Black
10
56.925
20
-129.729
11
56.7821
21
-129.586
0
LINE
8
Black
10
56.7821
20
-129.586
11
56.6393
21
-129.301
0
LINE
8
Black
10
56.6393
20
-129.301
11
56.4964
21
-128.729
0
LINE
8
Black
10
56.4964
20
-128.729
11
56.4964
21
-128.015
0
LINE
8
Black
10
56.4964
20
-128.015
11
56.6393
21
-127.444
0
LINE
8
Black
10
56.6393
20
-127.444
11
56.7821
21
-127.158
0
LINE
8
Black
10
56.7821
20
-127.158
11
56.925
21
-127.015
0
LINE
8
Black
10
56.925
20
-127.015
11
57.2107
21
-126.872
0
LINE
8
Black
10
60.7821
20
-127.872
11
60.7821
21
-129.872
0
LINE
8
Black
10
60.0679
20
-126.729
11
59.3536
21
-128.872
0
LINE
8
Black
10
59.3536
20
-128.872
11
61.2107
21
-128.872
0
LINE
8
Black
10
62.0679
20
-126.872
11
63.925
21
-126.872
0
LINE
8
Black
10
63.925
20
-126.872
11
62.925
21
-128.015
0
LINE
8
Black
10
62.925
20
-128.015
11
63.3536
21
-128.015
0
LINE
8
Black
10
63.3536
20
-128.015
11
63.6393
21
-128.158
0
LINE
8
Black
10
63.6393
20
-128.158
11
63.7821
21
-128.301
0
LINE
8
Black
10
63.7821
20
-128.301
11
63.925
21
-128.586
0
LINE
8
Black
10
63.925
20
-128.586
11
63.925
21
-129.301
0
LINE
8
Black
10
63.925
20
-129.301
11
63.7821
21
-129.586
0
LINE
8
Black
10
63.7821
20
-129.586
11
63.6393
21
-129.729
0
LINE
8
Black
10
63.6393
20
-129.729
11
63.3536
21
-129.872
0
LINE
8
Black
10
63.3536
20
-129.872
11
62.4964
21
-129.872
0
LINE
8
Black
10
62.4964
20
-129.872
11
62.2107
21
-129.729
0
LINE
8
Black
10
62.2107
20
-129.729
11
62.0679
21
-129.586
0
LINE
8
Black
10
65.0679
20
-126.872
11
65.0679
21
-127.444
0
LINE
8
Black
10
66.2107
20
-126.872
11
66.2107
21
-127.444
0
LINE
8
Black
10
70.6393
20
-131.015
11
70.4964
21
-130.872
0
LINE
8
Black
10
70.4964
20
-130.872
11
70.2107
21
-130.444
0
LINE
8
Black
10
70.2107
20
-130.444
11
70.0679
21
-130.158
0
LINE
8
Black
10
70.0679
20
-130.158
11
69.925
21
-129.729
0
LINE
8
Black
10
69.925
20
-129.729
11
69.7821
21
-129.015
0
LINE
8
Black
10
69.7821
20
-129.015
11
69.7821
21
-128.444
0
LINE
8
Black
10
69.7821
20
-128.444
11
69.925
21
-127.729
0
LINE
8
Black
10
69.925
20
-127.729
11
70.0679
21
-127.301
0
LINE
8
Black
10
70.0679
20
-127.301
11
70.2107
21
-127.015
0
LINE
8
Black
10
70.2107
20
-127.015
11
70.4964
21
-126.586
0
LINE
8
Black
10
70.4964
20
-126.586
11
70.6393
21
-126.444
0
LINE
8
Black
10
73.3536
20
-129.872
11
71.6393
21
-129.872
0
LINE
8
Black
10
72.4964
20
-129.872
11
72.4964
21
-126.872
0
LINE
8
Black
10
72.4964
20
-126.872
11
72.2107
21
-127.301
0
LINE
8
Black
10
72.2107
20
-127.301
11
71.925
21
-127.586
0
LINE
8
Black
10
71.925
20
-127.586
11
71.6393
21
-127.729
0
LINE
8
Black
10
74.4964
20
-127.158
11
74.6393
21
-127.015
0
LINE
8
Black
10
74.6393
20
-127.015
11
74.925
21
-126.872
0
LINE
8
Black
10
74.925
20
-126.872
11
75.6393
21
-126.872
0
LINE
8
Black
10
75.6393
20
-126.872
11
75.925
21
-127.015
0
LINE
8
Black
10
75.925
20
-127.015
11
76.0679
21
-127.158
0
LINE
8
Black
10
76.0679
20
-127.158
11
76.2107
21
-127.444
0
LINE
8
Black
10
76.2107
20
-127.444
11
76.2107
21
-127.729
0
LINE
8
Black
10
76.2107
20
-127.729
11
76.0679
21
-128.158
0
LINE
8
Black
10
76.0679
20
-128.158
11
74.3536
21
-129.872
0
LINE
8
Black
10
74.3536
20
-129.872
11
76.2107
21
-129.872
0
LINE
8
Black
10
79.7821
20
-129.872
11
79.7821
21
-126.872
0
LINE
8
Black
10
81.0679
20
-129.872
11
81.0679
21
-128.301
0
LINE
8
Black
10
81.0679
20
-128.301
11
80.925
21
-128.015
0
LINE
8
Black
10
80.925
20
-128.015
11
80.6393
21
-127.872
0
LINE
8
Black
10
80.6393
20
-127.872
11
80.2107
21
-127.872
0
LINE
8
Black
10
80.2107
20
-127.872
11
79.925
21
-128.015
0
LINE
8
Black
10
79.925
20
-128.015
11
79.7821
21
-128.158
0
LINE
8
Black
10
82.925
20
-129.872
11
82.6393
21
-129.729
0
LINE
8
Black
10
82.6393
20
-129.729
11
82.4964
21
-129.586
0
LINE
8
Black
10
82.4964
20
-129.586
11
82.3536
21
-129.301
0
LINE
8
Black
10
82.3536
20
-129.301
11
82.3536
21
-128.444
0
LINE
8
Black
10
82.3536
20
-128.444
11
82.4964
21
-128.158
0
LINE
8
Black
10
82.4964
20
-128.158
11
82.6393
21
-128.015
0
LINE
8
Black
10
82.6393
20
-128.015
11
82.925
21
-127.872
0
LINE
8
Black
10
82.925
20
-127.872
11
83.3536
21
-127.872
0
LINE
8
Black
10
83.3536
20
-127.872
11
83.6393
21
-128.015
0
LINE
8
Black
10
83.6393
20
-128.015
11
83.7821
21
-128.158
0
LINE
8
Black
10
83.7821
20
-128.158
11
83.925
21
-128.444
0
LINE
8
Black
10
83.925
20
-128.444
11
83.925
21
-129.301
0
LINE
8
Black
10
83.925
20
-129.301
11
83.7821
21
-129.586
0
LINE
8
Black
10
83.7821
20
-129.586
11
83.6393
21
-129.729
0
LINE
8
Black
10
83.6393
20
-129.729
11
83.3536
21
-129.872
0
LINE
8
Black
10
83.3536
20
-129.872
11
82.925
21
-129.872
0
LINE
8
Black
10
85.6393
20
-129.872
11
85.3536
21
-129.729
0
LINE
8
Black
10
85.3536
20
-129.729
11
85.2107
21
-129.444
0
LINE
8
Black
10
85.2107
20
-129.444
11
85.2107
21
-126.872
0
LINE
8
Black
10
87.925
20
-129.729
11
87.6393
21
-129.872
0
LINE
8
Black
10
87.6393
20
-129.872
11
87.0679
21
-129.872
0
LINE
8
Black
10
87.0679
20
-129.872
11
86.7821
21
-129.729
0
LINE
8
Black
10
86.7821
20
-129.729
11
86.6393
21
-129.444
0
LINE
8
Black
10
86.6393
20
-129.444
11
86.6393
21
-128.301
0
LINE
8
Black
10
86.6393
20
-128.301
11
86.7821
21
-128.015
0
LINE
8
Black
10
86.7821
20
-128.015
11
87.0679
21
-127.872
0
LINE
8
Black
10
87.0679
20
-127.872
11
87.6393
21
-127.872
0
LINE
8
Black
10
87.6393
20
-127.872
11
87.925
21
-128.015
0
LINE
8
Black
10
87.925
20
-128.015
11
88.0679
21
-128.301
0
LINE
8
Black
10
88.0679
20
-128.301
11
88.0679
21
-128.586
0
LINE
8
Black
10
88.0679
20
-128.586
11
86.6393
21
-128.872
0
LINE
8
Black
10
89.2107
20
-129.729
11
89.4964
21
-129.872
0
LINE
8
Black
10
89.4964
20
-129.872
11
90.0679
21
-129.872
0
LINE
8
Black
10
90.0679
20
-129.872
11
90.3536
21
-129.729
0
LINE
8
Black
10
90.3536
20
-129.729
11
90.4964
21
-129.444
0
LINE
8
Black
10
90.4964
20
-129.444
11
90.4964
21
-129.301
0
LINE
8
Black
10
90.4964
20
-129.301
11
90.3536
21
-129.015
0
LINE
8
Black
10
90.3536
20
-129.015
11
90.0679
21
-128.872
0
LINE
8
Black
10
90.0679
20
-128.872
11
89.6393
21
-128.872
0
LINE
8
Black
10
89.6393
20
-128.872
11
89.3536
21
-128.729
0
LINE
8
Black
10
89.3536
20
-128.729
11
89.2107
21
-128.444
0
LINE
8
Black
10
89.2107
20
-128.444
11
89.2107
21
-128.301
0
LINE
8
Black
10
89.2107
20
-128.301
11
89.3536
21
-128.015
0
LINE
8
Black
10
89.3536
20
-128.015
11
89.6393
21
-127.872
0
LINE
8
Black
10
89.6393
20
-127.872
11
90.0679
21
-127.872
0
LINE
8
Black
10
90.0679
20
-127.872
11
90.3536
21
-128.015
0
LINE
8
Black
10
91.4964
20
-131.015
11
91.6393
21
-130.872
0
LINE
8
Black
10
91.6393
20
-130.872
11
91.925
21
-130.444
0
LINE
8
Black
10
91.925
20
-130.444
11
92.0679
21
-130.158
0
LINE
8
Black
10
92.0679
20
-130.158
11
92.2107
21
-129.729
0
LINE
8
Black
10
92.2107
20
-129.729
11
92.3536
21
-129.015
0
LINE
8
Black
10
92.3536
20
-129.015
11
92.3536
21
-128.444
0
LINE
8
Black
10
92.3536
20
-128.444
11
92.2107
21
-127.729
0
LINE
8
Black
10
92.2107
20
-127.729
11
92.0679
21
-127.301
0
LINE
8
Black
10
92.0679
20
-127.301
11
91.925
21
-127.015
0
LINE
8
Black
10
91.925
20
-127.015
11
91.6393
21
-126.586
0
LINE
8
Black
10
91.6393
20
-126.586
11
91.4964
21
-126.444
0
LINE
8
Black
10
22.782
20
-131.904
11
23.925
21
-133.047
0
LINE
8
Black
10
23.925
20
-131.904
11
22.782
21
-133.047
0
CIRCLE
8
Black
10
23.3535
20
-132.475
40
0.5715
0
LINE
8
Black
10
28.2107
20
-133.832
11
26.4964
21
-133.832
0
LINE
8
Black
10
27.3536
20
-133.832
11
27.3536
21
-130.832
0
LINE
8
Black
10
27.3536
20
-130.832
11
27.0679
21
-131.261
0
LINE
8
Black
10
27.0679
20
-131.261
11
26.7821
21
-131.546
0
LINE
8
Black
10
26.7821
20
-131.546
11
26.4964
21
-131.689
0
LINE
8
Black
10
29.4964
20
-133.546
11
29.6393
21
-133.689
0
LINE
8
Black
10
29.6393
20
-133.689
11
29.4964
21
-133.832
0
LINE
8
Black
10
29.4964
20
-133.832
11
29.3536
21
-133.689
0
LINE
8
Black
10
29.3536
20
-133.689
11
29.4964
21
-133.546
0
LINE
8
Black
10
29.4964
20
-133.546
11
29.4964
21
-133.832
0
LINE
8
Black
10
32.4964
20
-133.832
11
30.7821
21
-133.832
0
LINE
8
Black
10
31.6393
20
-133.832
11
31.6393
21
-130.832
0
LINE
8
Black
10
31.6393
20
-130.832
11
31.3536
21
-131.261
0
LINE
8
Black
10
31.3536
20
-131.261
11
31.0679
21
-131.546
0
LINE
8
Black
10
31.0679
20
-131.546
11
30.7821
21
-131.689
0
LINE
8
Black
10
35.0679
20
-131.832
11
35.0679
21
-133.832
0
LINE
8
Black
10
34.3536
20
-130.689
11
33.6393
21
-132.832
0
LINE
8
Black
10
33.6393
20
-132.832
11
35.4964
21
-132.832
0
LINE
8
Black
10
36.6393
20
-133.832
11
36.6393
21
-131.832
0
LINE
8
Black
10
36.6393
20
-132.118
11
36.7821
21
-131.975
0
LINE
8
Black
10
36.7821
20
-131.975
11
37.0679
21
-131.832
0
LINE
8
Black
10
37.0679
20
-131.832
11
37.4964
21
-131.832
0
LINE
8
Black
10
37.4964
20
-131.832
11
37.7821
21
-131.975
0
LINE
8
Black
10
37.7821
20
-131.975
11
37.925
21
-132.261
0
LINE
8
Black
10
37.925
20
-132.261
11
37.925
21
-133.832
0
LINE
8
Black
10
37.925
20
-132.261
11
38.0679
21
-131.975
0
LINE
8
Black
10
38.0679
20
-131.975
11
38.3536
21
-131.832
0
LINE
8
Black
10
38.3536
20
-131.832
11
38.7821
21
-131.832
0
LINE
8
Black
10
38.7821
20
-131.832
11
39.0679
21
-131.975
0
LINE
8
Black
10
39.0679
20
-131.975
11
39.2107
21
-132.261
0
LINE
8
Black
10
39.2107
20
-132.261
11
39.2107
21
-133.832
0
LINE
8
Black
10
40.6393
20
-133.832
11
40.6393
21
-131.832
0
LINE
8
Black
10
40.6393
20
-132.118
11
40.7821
21
-131.975
0
LINE
8
Black
10
40.7821
20
-131.975
11
41.0679
21
-131.832
0
LINE
8
Black
10
41.0679
20
-131.832
11
41.4964
21
-131.832
0
LINE
8
Black
10
41.4964
20
-131.832
11
41.7821
21
-131.975
0
LINE
8
Black
10
41.7821
20
-131.975
11
41.925
21
-132.261
0
LINE
8
Black
10
41.925
20
-132.261
11
41.925
21
-133.832
0
LINE
8
Black
10
41.925
20
-132.261
11
42.0679
21
-131.975
0
LINE
8
Black
10
42.0679
20
-131.975
11
42.3536
21
-131.832
0
LINE
8
Black
10
42.3536
20
-131.832
11
42.7821
21
-131.832
0
LINE
8
Black
10
42.7821
20
-131.832
11
43.0679
21
-131.975
0
LINE
8
Black
10
43.0679
20
-131.975
11
43.2107
21
-132.261
0
LINE
8
Black
10
43.2107
20
-132.261
11
43.2107
21
-133.832
0
LINE
8
Black
10
49.0679
20
-130.689
11
46.4964
21
-134.546
0
LINE
8
Black
10
52.925
20
-130.832
11
53.2107
21
-130.832
0
LINE
8
Black
10
53.2107
20
-130.832
11
53.4964
21
-130.975
0
LINE
8
Black
10
53.4964
20
-130.975
11
53.6393
21
-131.118
0
LINE
8
Black
10
53.6393
20
-131.118
11
53.7821
21
-131.404
0
LINE
8
Black
10
53.7821
20
-131.404
11
53.925
21
-131.975
0
LINE
8
Black
10
53.925
20
-131.975
11
53.925
21
-132.689
0
LINE
8
Black
10
53.925
20
-132.689
11
53.7821
21
-133.261
0
LINE
8
Black
10
53.7821
20
-133.261
11
53.6393
21
-133.546
0
LINE
8
Black
10
53.6393
20
-133.546
11
53.4964
21
-133.689
0
LINE
8
Black
10
53.4964
20
-133.689
11
53.2107
21
-133.832
0
LINE
8
Black
10
53.2107
20
-133.832
11
52.925
21
-133.832
0
LINE
8
Black
10
52.925
20
-133.832
11
52.6393
21
-133.689
0
LINE
8
Black
10
52.6393
20
-133.689
11
52.4964
21
-133.546
0
LINE
8
Black
10
52.4964
20
-133.546
11
52.3536
21
-133.261
0
LINE
8
Black
10
52.3536
20
-133.261
11
52.2107
21
-132.689
0
LINE
8
Black
10
52.2107
20
-132.689
11
52.2107
21
-131.975
0
LINE
8
Black
10
52.2107
20
-131.975
11
52.3536
21
-131.404
0
LINE
8
Black
10
52.3536
20
-131.404
11
52.4964
21
-131.118
0
LINE
8
Black
10
52.4964
20
-131.118
11
52.6393
21
-130.975
0
LINE
8
Black
10
52.6393
20
-130.975
11
52.925
21
-130.832
0
LINE
8
Black
10
55.2107
20
-133.546
11
55.3536
21
-133.689
0
LINE
8
Black
10
55.3536
20
-133.689
11
55.2107
21
-133.832
0
LINE
8
Black
10
55.2107
20
-133.832
11
55.0679
21
-133.689
0
LINE
8
Black
10
55.0679
20
-133.689
11
55.2107
21
-133.546
0
LINE
8
Black
10
55.2107
20
-133.546
11
55.2107
21
-133.832
0
LINE
8
Black
10
57.2107
20
-130.832
11
57.4964
21
-130.832
0
LINE
8
Black
10
57.4964
20
-130.832
11
57.7821
21
-130.975
0
LINE
8
Black
10
57.7821
20
-130.975
11
57.925
21
-131.118
0
LINE
8
Black
10
57.925
20
-131.118
11
58.0679
21
-131.404
0
LINE
8
Black
10
58.0679
20
-131.404
11
58.2107
21
-131.975
0
LINE
8
Black
10
58.2107
20
-131.975
11
58.2107
21
-132.689
0
LINE
8
Black
10
58.2107
20
-132.689
11
58.0679
21
-133.261
0
LINE
8
Black
10
58.0679
20
-133.261
11
57.925
21
-133.546
0
LINE
8
Black
10
57.925
20
-133.546
11
57.7821
21
-133.689
0
LINE
8
Black
10
57.7821
20
-133.689
11
57.4964
21
-133.832
0
LINE
8
Black
10
57.4964
20
-133.832
11
57.2107
21
-133.832
0
LINE
8
Black
10
57.2107
20
-133.832
11
56.925
21
-133.689
0
LINE
8
Black
10
56.925
20
-133.689
11
56.7821
21
-133.546
0
LINE
8
Black
10
56.7821
20
-133.546
11
56.6393
21
-133.261
0
LINE
8
Black
10
56.6393
20
-133.261
11
56.4964
21
-132.689
0
LINE
8
Black
10
56.4964
20
-132.689
11
56.4964
21
-131.975
0
LINE
8
Black
10
56.4964
20
-131.975
11
56.6393
21
-131.404
0
LINE
8
Black
10
56.6393
20
-131.404
11
56.7821
21
-131.118
0
LINE
8
Black
10
56.7821
20
-131.118
11
56.925
21
-130.975
0
LINE
8
Black
10
56.925
20
-130.975
11
57.2107
21
-130.832
0
LINE
8
Black
10
60.7821
20
-131.832
11
60.7821
21
-133.832
0
LINE
8
Black
10
60.0679
20
-130.689
11
59.3536
21
-132.832
0
LINE
8
Black
10
59.3536
20
-132.832
11
61.2107
21
-132.832
0
LINE
8
Black
10
63.7821
20
-130.832
11
62.3536
21
-130.832
0
LINE
8
Black
10
62.3536
20
-130.832
11
62.2107
21
-132.261
0
LINE
8
Black
10
62.2107
20
-132.261
11
62.3536
21
-132.118
0
LINE
8
Black
10
62.3536
20
-132.118
11
62.6393
21
-131.975
0
LINE
8
Black
10
62.6393
20
-131.975
11
63.3536
21
-131.975
0
LINE
8
Black
10
63.3536
20
-131.975
11
63.6393
21
-132.118
0
LINE
8
Black
10
63.6393
20
-132.118
11
63.7821
21
-132.261
0
LINE
8
Black
10
63.7821
20
-132.261
11
63.925
21
-132.546
0
LINE
8
Black
10
63.925
20
-132.546
11
63.925
21
-133.261
0
LINE
8
Black
10
63.925
20
-133.261
11
63.7821
21
-133.546
0
LINE
8
Black
10
63.7821
20
-133.546
11
63.6393
21
-133.689
0
LINE
8
Black
10
63.6393
20
-133.689
11
63.3536
21
-133.832
0
LINE
8
Black
10
63.3536
20
-133.832
11
62.6393
21
-133.832
0
LINE
8
Black
10
62.6393
20
-133.832
11
62.3536
21
-133.689
0
LINE
8
Black
10
62.3536
20
-133.689
11
62.2107
21
-133.546
0
LINE
8
Black
10
65.0679
20
-130.832
11
65.0679
21
-131.404
0
LINE
8
Black
10
66.2107
20
-130.832
11
66.2107
21
-131.404
0
LINE
8
Black
10
70.6393
20
-134.975
11
70.4964
21
-134.832
0
LINE
8
Black
10
70.4964
20
-134.832
11
70.2107
21
-134.404
0
LINE
8
Black
10
70.2107
20
-134.404
11
70.0679
21
-134.118
0
LINE
8
Black
10
70.0679
20
-134.118
11
69.925
21
-133.689
0
LINE
8
Black
10
69.925
20
-133.689
11
69.7821
21
-132.975
0
LINE
8
Black
10
69.7821
20
-132.975
11
69.7821
21
-132.404
0
LINE
8
Black
10
69.7821
20
-132.404
11
69.925
21
-131.689
0
LINE
8
Black
10
69.925
20
-131.689
11
70.0679
21
-131.261
0
LINE
8
Black
10
70.0679
20
-131.261
11
70.2107
21
-130.975
0
LINE
8
Black
10
70.2107
20
-130.975
11
70.4964
21
-130.546
0
LINE
8
Black
10
70.4964
20
-130.546
11
70.6393
21
-130.404
0
LINE
8
Black
10
73.0679
20
-130.832
11
72.4964
21
-130.832
0
LINE
8
Black
10
72.4964
20
-130.832
11
72.2107
21
-130.975
0
LINE
8
Black
10
72.2107
20
-130.975
11
72.0679
21
-131.118
0
LINE
8
Black
10
72.0679
20
-131.118
11
71.7821
21
-131.546
0
LINE
8
Black
10
71.7821
20
-131.546
11
71.6393
21
-132.118
0
LINE
8
Black
10
71.6393
20
-132.118
11
71.6393
21
-133.261
0
LINE
8
Black
10
71.6393
20
-133.261
11
71.7821
21
-133.546
0
LINE
8
Black
10
71.7821
20
-133.546
11
71.925
21
-133.689
0
LINE
8
Black
10
71.925
20
-133.689
11
72.2107
21
-133.832
0
LINE
8
Black
10
72.2107
20
-133.832
11
72.7821
21
-133.832
0
LINE
8
Black
10
72.7821
20
-133.832
11
73.0679
21
-133.689
0
LINE
8
Black
10
73.0679
20
-133.689
11
73.2107
21
-133.546
0
LINE
8
Black
10
73.2107
20
-133.546
11
73.3536
21
-133.261
0
LINE
8
Black
10
73.3536
20
-133.261
11
73.3536
21
-132.546
0
LINE
8
Black
10
73.3536
20
-132.546
11
73.2107
21
-132.261
0
LINE
8
Black
10
73.2107
20
-132.261
11
73.0679
21
-132.118
0
LINE
8
Black
10
73.0679
20
-132.118
11
72.7821
21
-131.975
0
LINE
8
Black
10
72.7821
20
-131.975
11
72.2107
21
-131.975
0
LINE
8
Black
10
72.2107
20
-131.975
11
71.925
21
-132.118
0
LINE
8
Black
10
71.925
20
-132.118
11
71.7821
21
-132.261
0
LINE
8
Black
10
71.7821
20
-132.261
11
71.6393
21
-132.546
0
LINE
8
Black
10
76.925
20
-133.832
11
76.925
21
-130.832
0
LINE
8
Black
10
78.2107
20
-133.832
11
78.2107
21
-132.261
0
LINE
8
Black
10
78.2107
20
-132.261
11
78.0679
21
-131.975
0
LINE
8
Black
10
78.0679
20
-131.975
11
77.7821
21
-131.832
0
LINE
8
Black
10
77.7821
20
-131.832
11
77.3536
21
-131.832
0
LINE
8
Black
10
77.3536
20
-131.832
11
77.0679
21
-131.975
0
LINE
8
Black
10
77.0679
20
-131.975
11
76.925
21
-132.118
0
LINE
8
Black
10
80.0679
20
-133.832
11
79.7821
21
-133.689
0
LINE
8
Black
10
79.7821
20
-133.689
11
79.6393
21
-133.546
0
LINE
8
Black
10
79.6393
20
-133.546
11
79.4964
21
-133.261
0
LINE
8
Black
10
79.4964
20
-133.261
11
79.4964
21
-132.404
0
LINE
8
Black
10
79.4964
20
-132.404
11
79.6393
21
-132.118
0
LINE
8
Black
10
79.6393
20
-132.118
11
79.7821
21
-131.975
0
LINE
8
Black
10
79.7821
20
-131.975
11
80.0679
21
-131.832
0
LINE
8
Black
10
80.0679
20
-131.832
11
80.4964
21
-131.832
0
LINE
8
Black
10
80.4964
20
-131.832
11
80.7821
21
-131.975
0
LINE
8
Black
10
80.7821
20
-131.975
11
80.925
21
-132.118
0
LINE
8
Black
10
80.925
20
-132.118
11
81.0679
21
-132.404
0
LINE
8
Black
10
81.0679
20
-132.404
11
81.0679
21
-133.261
0
LINE
8
Black
10
81.0679
20
-133.261
11
80.925
21
-133.546
0
LINE
8
Black
10
80.925
20
-133.546
11
80.7821
21
-133.689
0
LINE
8
Black
10
80.7821
20
-133.689
11
80.4964
21
-133.832
0
LINE
8
Black
10
80.4964
20
-133.832
11
80.0679
21
-133.832
0
LINE
8
Black
10
82.7821
20
-133.832
11
82.4964
21
-133.689
0
LINE
8
Black
10
82.4964
20
-133.689
11
82.3536
21
-133.404
0
LINE
8
Black
10
82.3536
20
-133.404
11
82.3536
21
-130.832
0
LINE
8
Black
10
85.0679
20
-133.689
11
84.7821
21
-133.832
0
LINE
8
Black
10
84.7821
20
-133.832
11
84.2107
21
-133.832
0
LINE
8
Black
10
84.2107
20
-133.832
11
83.925
21
-133.689
0
LINE
8
Black
10
83.925
20
-133.689
11
83.7821
21
-133.404
0
LINE
8
Black
10
83.7821
20
-133.404
11
83.7821
21
-132.261
0
LINE
8
Black
10
83.7821
20
-132.261
11
83.925
21
-131.975
0
LINE
8
Black
10
83.925
20
-131.975
11
84.2107
21
-131.832
0
LINE
8
Black
10
84.2107
20
-131.832
11
84.7821
21
-131.832
0
LINE
8
Black
10
84.7821
20
-131.832
11
85.0679
21
-131.975
0
LINE
8
Black
10
85.0679
20
-131.975
11
85.2107
21
-132.261
0
LINE
8
Black
10
85.2107
20
-132.261
11
85.2107
21
-132.546
0
LINE
8
Black
10
85.2107
20
-132.546
11
83.7821
21
-132.832
0
LINE
8
Black
10
86.3536
20
-133.689
11
86.6393
21
-133.832
0
LINE
8
Black
10
86.6393
20
-133.832
11
87.2107
21
-133.832
0
LINE
8
Black
10
87.2107
20
-133.832
11
87.4964
21
-133.689
0
LINE
8
Black
10
87.4964
20
-133.689
11
87.6393
21
-133.404
0
LINE
8
Black
10
87.6393
20
-133.404
11
87.6393
21
-133.261
0
LINE
8
Black
10
87.6393
20
-133.261
11
87.4964
21
-132.975
0
LINE
8
Black
10
87.4964
20
-132.975
11
87.2107
21
-132.832
0
LINE
8
Black
10
87.2107
20
-132.832
11
86.7821
21
-132.832
0
LINE
8
Black
10
86.7821
20
-132.832
11
86.4964
21
-132.689
0
LINE
8
Black
10
86.4964
20
-132.689
11
86.3536
21
-132.404
0
LINE
8
Black
10
86.3536
20
-132.404
11
86.3536
21
-132.261
0
LINE
8
Black
10
86.3536
20
-132.261
11
86.4964
21
-131.975
0
LINE
8
Black
10
86.4964
20
-131.975
11
86.7821
21
-131.832
0
LINE
8
Black
10
86.7821
20
-131.832
11
87.2107
21
-131.832
0
LINE
8
Black
10
87.2107
20
-131.832
11
87.4964
21
-131.975
0
LINE
8
Black
10
88.6393
20
-134.975
11
88.7821
21
-134.832
0
LINE
8
Black
10
88.7821
20
-134.832
11
89.0679
21
-134.404
0
LINE
8
Black
10
89.0679
20
-134.404
11
89.2107
21
-134.118
0
LINE
8
Black
10
89.2107
20
-134.118
11
89.3536
21
-133.689
0
LINE
8
Black
10
89.3536
20
-133.689
11
89.4964
21
-132.975
0
LINE
8
Black
10
89.4964
20
-132.975
11
89.4964
21
-132.404
0
LINE
8
Black
10
89.4964
20
-132.404
11
89.3536
21
-131.689
0
LINE
8
Black
10
89.3536
20
-131.689
11
89.2107
21
-131.261
0
LINE
8
Black
10
89.2107
20
-131.261
11
89.0679
21
-130.975
0
LINE
8
Black
10
89.0679
20
-130.975
11
88.7821
21
-130.546
0
LINE
8
Black
10
88.7821
20
-130.546
11
88.6393
21
-130.404
0
LINE
8
Black
10
20.877
20
-134.911
11
23.925
21
-137.959
0
LINE
8
Black
10
23.925
20
-134.911
11
20.877
21
-137.959
0
LINE
8
Black
10
22.401
20
-134.911
11
22.401
21
-137.959
0
LINE
8
Black
10
20.877
20
-136.435
11
23.925
21
-136.435
0
LINE
8
Black
10
26.3536
20
-134.792
11
28.2107
21
-134.792
0
LINE
8
Black
10
28.2107
20
-134.792
11
27.2107
21
-135.935
0
LINE
8
Black
10
27.2107
20
-135.935
11
27.6393
21
-135.935
0
LINE
8
Black
10
27.6393
20
-135.935
11
27.925
21
-136.078
0
LINE
8
Black
10
27.925
20
-136.078
11
28.0679
21
-136.221
0
LINE
8
Black
10
28.0679
20
-136.221
11
28.2107
21
-136.506
0
LINE
8
Black
10
28.2107
20
-136.506
11
28.2107
21
-137.221
0
LINE
8
Black
10
28.2107
20
-137.221
11
28.0679
21
-137.506
0
LINE
8
Black
10
28.0679
20
-137.506
11
27.925
21
-137.649
0
LINE
8
Black
10
27.925
20
-137.649
11
27.6393
21
-137.792
0
LINE
8
Black
10
27.6393
20
-137.792
11
26.7821
21
-137.792
0
LINE
8
Black
10
26.7821
20
-137.792
11
26.4964
21
-137.649
0
LINE
8
Black
10
26.4964
20
-137.649
11
26.3536
21
-137.506
0
LINE
8
Black
10
29.4964
20
-137.506
11
29.6393
21
-137.649
0
LINE
8
Black
10
29.6393
20
-137.649
11
29.4964
21
-137.792
0
LINE
8
Black
10
29.4964
20
-137.792
11
29.3536
21
-137.649
0
LINE
8
Black
10
29.3536
20
-137.649
11
29.4964
21
-137.506
0
LINE
8
Black
10
29.4964
20
-137.506
11
29.4964
21
-137.792
0
LINE
8
Black
10
31.4964
20
-134.792
11
31.7821
21
-134.792
0
LINE
8
Black
10
31.7821
20
-134.792
11
32.0679
21
-134.935
0
LINE
8
Black
10
32.0679
20
-134.935
11
32.2107
21
-135.078
0
LINE
8
Black
10
32.2107
20
-135.078
11
32.3536
21
-135.364
0
LINE
8
Black
10
32.3536
20
-135.364
11
32.4964
21
-135.935
0
LINE
8
Black
10
32.4964
20
-135.935
11
32.4964
21
-136.649
0
LINE
8
Black
10
32.4964
20
-136.649
11
32.3536
21
-137.221
0
LINE
8
Black
10
32.3536
20
-137.221
11
32.2107
21
-137.506
0
LINE
8
Black
10
32.2107
20
-137.506
11
32.0679
21
-137.649
0
LINE
8
Black
10
32.0679
20
-137.649
11
31.7821
21
-137.792
0
LINE
8
Black
10
31.7821
20
-137.792
11
31.4964
21
-137.792
0
LINE
8
Black
10
31.4964
20
-137.792
11
31.2107
21
-137.649
0
LINE
8
Black
10
31.2107
20
-137.649
11
31.0679
21
-137.506
0
LINE
8
Black
10
31.0679
20
-137.506
11
30.925
21
-137.221
0
LINE
8
Black
10
30.925
20
-137.221
11
30.7821
21
-136.649
0
LINE
8
Black
10
30.7821
20
-136.649
11
30.7821
21
-135.935
0
LINE
8
Black
10
30.7821
20
-135.935
11
30.925
21
-135.364
0
LINE
8
Black
10
30.925
20
-135.364
11
31.0679
21
-135.078
0
LINE
8
Black
10
31.0679
20
-135.078
11
31.2107
21
-134.935
0
LINE
8
Black
10
31.2107
20
-134.935
11
31.4964
21
-134.792
0
LINE
8
Black
10
35.2107
20
-134.792
11
33.7821
21
-134.792
0
LINE
8
Black
10
33.7821
20
-134.792
11
33.6393
21
-136.221
0
LINE
8
Black
10
33.6393
20
-136.221
11
33.7821
21
-136.078
0
LINE
8
Black
10
33.7821
20
-136.078
11
34.0679
21
-135.935
0
LINE
8
Black
10
34.0679
20
-135.935
11
34.7821
21
-135.935
0
LINE
8
Black
10
34.7821
20
-135.935
11
35.0679
21
-136.078
0
LINE
8
Black
10
35.0679
20
-136.078
11
35.2107
21
-136.221
0
LINE
8
Black
10
35.2107
20
-136.221
11
35.3536
21
-136.506
0
LINE
8
Black
10
35.3536
20
-136.506
11
35.3536
21
-137.221
0
LINE
8
Black
10
35.3536
20
-137.221
11
35.2107
21
-137.506
0
LINE
8
Black
10
35.2107
20
-137.506
11
35.0679
21
-137.649
0
LINE
8
Black
10
35.0679
20
-137.649
11
34.7821
21
-137.792
0
LINE
8
Black
10
34.7821
20
-137.792
11
34.0679
21
-137.792
0
LINE
8
Black
10
34.0679
20
-137.792
11
33.7821
21
-137.649
0
LINE
8
Black
10
33.7821
20
-137.649
11
33.6393
21
-137.506
0
LINE
8
Black
10
36.6393
20
-137.792
11
36.6393
21
-135.792
0
LINE
8
Black
10
36.6393
20
-136.078
11
36.7821
21
-135.935
0
LINE
8
Black
10
36.7821
20
-135.935
11
37.0679
21
-135.792
0
LINE
8
Black
10
37.0679
20
-135.792
11
37.4964
21
-135.792
0
LINE
8
Black
10
37.4964
20
-135.792
11
37.7821
21
-135.935
0
LINE
8
Black
10
37.7821
20
-135.935
11
37.925
21
-136.221
0
LINE
8
Black
10
37.925
20
-136.221
11
37.925
21
-137.792
0
LINE
8
Black
10
37.925
20
-136.221
11
38.0679
21
-135.935
0
LINE
8
Black
10
38.0679
20
-135.935
11
38.3536
21
-135.792
0
LINE
8
Black
10
38.3536
20
-135.792
11
38.7821
21
-135.792
0
LINE
8
Black
10
38.7821
20
-135.792
11
39.0679
21
-135.935
0
LINE
8
Black
10
39.0679
20
-135.935
11
39.2107
21
-136.221
0
LINE
8
Black
10
39.2107
20
-136.221
11
39.2107
21
-137.792
0
LINE
8
Black
10
40.6393
20
-137.792
11
40.6393
21
-135.792
0
LINE
8
Black
10
40.6393
20
-136.078
11
40.7821
21
-135.935
0
LINE
8
Black
10
40.7821
20
-135.935
11
41.0679
21
-135.792
0
LINE
8
Black
10
41.0679
20
-135.792
11
41.4964
21
-135.792
0
LINE
8
Black
10
41.4964
20
-135.792
11
41.7821
21
-135.935
0
LINE
8
Black
10
41.7821
20
-135.935
11
41.925
21
-136.221
0
LINE
8
Black
10
41.925
20
-136.221
11
41.925
21
-137.792
0
LINE
8
Black
10
41.925
20
-136.221
11
42.0679
21
-135.935
0
LINE
8
Black
10
42.0679
20
-135.935
11
42.3536
21
-135.792
0
LINE
8
Black
10
42.3536
20
-135.792
11
42.7821
21
-135.792
0
LINE
8
Black
10
42.7821
20
-135.792
11
43.0679
21
-135.935
0
LINE
8
Black
10
43.0679
20
-135.935
11
43.2107
21
-136.221
0
LINE
8
Black
10
43.2107
20
-136.221
11
43.2107
21
-137.792
0
LINE
8
Black
10
49.0679
20
-134.649
11
46.4964
21
-138.506
0
LINE
8
Black
10
52.925
20
-134.792
11
53.2107
21
-134.792
0
LINE
8
Black
10
53.2107
20
-134.792
11
53.4964
21
-134.935
0
LINE
8
Black
10
53.4964
20
-134.935
11
53.6393
21
-135.078
0
LINE
8
Black
10
53.6393
20
-135.078
11
53.7821
21
-135.364
0
LINE
8
Black
10
53.7821
20
-135.364
11
53.925
21
-135.935
0
LINE
8
Black
10
53.925
20
-135.935
11
53.925
21
-136.649
0
LINE
8
Black
10
53.925
20
-136.649
11
53.7821
21
-137.221
0
LINE
8
Black
10
53.7821
20
-137.221
11
53.6393
21
-137.506
0
LINE
8
Black
10
53.6393
20
-137.506
11
53.4964
21
-137.649
0
LINE
8
Black
10
53.4964
20
-137.649
11
53.2107
21
-137.792
0
LINE
8
Black
10
53.2107
20
-137.792
11
52.925
21
-137.792
0
LINE
8
Black
10
52.925
20
-137.792
11
52.6393
21
-137.649
0
LINE
8
Black
10
52.6393
20
-137.649
11
52.4964
21
-137.506
0
LINE
8
Black
10
52.4964
20
-137.506
11
52.3536
21
-137.221
0
LINE
8
Black
10
52.3536
20
-137.221
11
52.2107
21
-136.649
0
LINE
8
Black
10
52.2107
20
-136.649
11
52.2107
21
-135.935
0
LINE
8
Black
10
52.2107
20
-135.935
11
52.3536
21
-135.364
0
LINE
8
Black
10
52.3536
20
-135.364
11
52.4964
21
-135.078
0
LINE
8
Black
10
52.4964
20
-135.078
11
52.6393
21
-134.935
0
LINE
8
Black
10
52.6393
20
-134.935
11
52.925
21
-134.792
0
LINE
8
Black
10
55.2107
20
-137.506
11
55.3536
21
-137.649
0
LINE
8
Black
10
55.3536
20
-137.649
11
55.2107
21
-137.792
0
LINE
8
Black
10
55.2107
20
-137.792
11
55.0679
21
-137.649
0
LINE
8
Black
10
55.0679
20
-137.649
11
55.2107
21
-137.506
0
LINE
8
Black
10
55.2107
20
-137.506
11
55.2107
21
-137.792
0
LINE
8
Black
10
58.2107
20
-137.792
11
56.4964
21
-137.792
0
LINE
8
Black
10
57.3536
20
-137.792
11
57.3536
21
-134.792
0
LINE
8
Black
10
57.3536
20
-134.792
11
57.0679
21
-135.221
0
LINE
8
Black
10
57.0679
20
-135.221
11
56.7821
21
-135.506
0
LINE
8
Black
10
56.7821
20
-135.506
11
56.4964
21
-135.649
0
LINE
8
Black
10
59.3536
20
-135.078
11
59.4964
21
-134.935
0
LINE
8
Black
10
59.4964
20
-134.935
11
59.7821
21
-134.792
0
LINE
8
Black
10
59.7821
20
-134.792
11
60.4964
21
-134.792
0
LINE
8
Black
10
60.4964
20
-134.792
11
60.7821
21
-134.935
0
LINE
8
Black
10
60.7821
20
-134.935
11
60.925
21
-135.078
0
LINE
8
Black
10
60.925
20
-135.078
11
61.0679
21
-135.364
0
LINE
8
Black
10
61.0679
20
-135.364
11
61.0679
21
-135.649
0
LINE
8
Black
10
61.0679
20
-135.649
11
60.925
21
-136.078
0
LINE
8
Black
10
60.925
20
-136.078
11
59.2107
21
-137.792
0
LINE
8
Black
10
59.2107
20
-137.792
11
61.0679
21
-137.792
0
LINE
8
Black
10
62.925
20
-134.792
11
63.2107
21
-134.792
0
LINE
8
Black
10
63.2107
20
-134.792
11
63.4964
21
-134.935
0
LINE
8
Black
10
63.4964
20
-134.935
11
63.6393
21
-135.078
0
LINE
8
Black
10
63.6393
20
-135.078
11
63.7821
21
-135.364
0
LINE
8
Black
10
63.7821
20
-135.364
11
63.925
21
-135.935
0
LINE
8
Black
10
63.925
20
-135.935
11
63.925
21
-136.649
0
LINE
8
Black
10
63.925
20
-136.649
11
63.7821
21
-137.221
0
LINE
8
Black
10
63.7821
20
-137.221
11
63.6393
21
-137.506
0
LINE
8
Black
10
63.6393
20
-137.506
11
63.4964
21
-137.649
0
LINE
8
Black
10
63.4964
20
-137.649
11
63.2107
21
-137.792
0
LINE
8
Black
10
63.2107
20
-137.792
11
62.925
21
-137.792
0
LINE
8
Black
10
62.925
20
-137.792
11
62.6393
21
-137.649
0
LINE
8
Black
10
62.6393
20
-137.649
11
62.4964
21
-137.506
0
LINE
8
Black
10
62.4964
20
-137.506
11
62.3536
21
-137.221
0
LINE
8
Black
10
62.3536
20
-137.221
11
62.2107
21
-136.649
0
LINE
8
Black
10
62.2107
20
-136.649
11
62.2107
21
-135.935
0
LINE
8
Black
10
62.2107
20
-135.935
11
62.3536
21
-135.364
0
LINE
8
Black
10
62.3536
20
-135.364
11
62.4964
21
-135.078
0
LINE
8
Black
10
62.4964
20
-135.078
11
62.6393
21
-134.935
0
LINE
8
Black
10
62.6393
20
-134.935
11
62.925
21
-134.792
0
LINE
8
Black
10
65.0679
20
-134.792
11
65.0679
21
-135.364
0
LINE
8
Black
10
66.2107
20
-134.792
11
66.2107
21
-135.364
0
LINE
8
Black
10
70.6393
20
-138.935
11
70.4964
21
-138.792
0
LINE
8
Black
10
70.4964
20
-138.792
11
70.2107
21
-138.364
0
LINE
8
Black
10
70.2107
20
-138.364
11
70.0679
21
-138.078
0
LINE
8
Black
10
70.0679
20
-138.078
11
69.925
21
-137.649
0
LINE
8
Black
10
69.925
20
-137.649
11
69.7821
21
-136.935
0
LINE
8
Black
10
69.7821
20
-136.935
11
69.7821
21
-136.364
0
LINE
8
Black
10
69.7821
20
-136.364
11
69.925
21
-135.649
0
LINE
8
Black
10
69.925
20
-135.649
11
70.0679
21
-135.221
0
LINE
8
Black
10
70.0679
20
-135.221
11
70.2107
21
-134.935
0
LINE
8
Black
10
70.2107
20
-134.935
11
70.4964
21
-134.506
0
LINE
8
Black
10
70.4964
20
-134.506
11
70.6393
21
-134.364
0
LINE
8
Black
10
73.0679
20
-135.792
11
73.0679
21
-137.792
0
LINE
8
Black
10
72.3536
20
-134.649
11
71.6393
21
-136.792
0
LINE
8
Black
10
71.6393
20
-136.792
11
73.4964
21
-136.792
0
LINE
8
Black
10
76.925
20
-137.792
11
76.925
21
-134.792
0
LINE
8
Black
10
78.2107
20
-137.792
11
78.2107
21
-136.221
0
LINE
8
Black
10
78.2107
20
-136.221
11
78.0679
21
-135.935
0
LINE
8
Black
10
78.0679
20
-135.935
11
77.7821
21
-135.792
0
LINE
8
Black
10
77.7821
20
-135.792
11
77.3536
21
-135.792
0
LINE
8
Black
10
77.3536
20
-135.792
11
77.0679
21
-135.935
0
LINE
8
Black
10
77.0679
20
-135.935
11
76.925
21
-136.078
0
LINE
8
Black
10
80.0679
20
-137.792
11
79.7821
21
-137.649
0
LINE
8
Black
10
79.7821
20
-137.649
11
79.6393
21
-137.506
0
LINE
8
Black
10
79.6393
20
-137.506
11
79.4964
21
-137.221
0
LINE
8
Black
10
79.4964
20
-137.221
11
79.4964
21
-136.364
0
LINE
8
Black
10
79.4964
20
-136.364
11
79.6393
21
-136.078
0
LINE
8
Black
10
79.6393
20
-136.078
11
79.7821
21
-135.935
0
LINE
8
Black
10
79.7821
20
-135.935
11
80.0679
21
-135.792
0
LINE
8
Black
10
80.0679
20
-135.792
11
80.4964
21
-135.792
0
LINE
8
Black
10
80.4964
20
-135.792
11
80.7821
21
-135.935
0
LINE
8
Black
10
80.7821
20
-135.935
11
80.925
21
-136.078
0
LINE
8
Black
10
80.925
20
-136.078
11
81.0679
21
-136.364
0
LINE
8
Black
10
81.0679
20
-136.364
11
81.0679
21
-137.221
0
LINE
8
Black
10
81.0679
20
-137.221
11
80.925
21
-137.506
0
LINE
8
Black
10
80.925
20
-137.506
11
80.7821
21
-137.649
0
LINE
8
Black
10
80.7821
20
-137.649
11
80.4964
21
-137.792
0
LINE
8
Black
10
80.4964
20
-137.792
11
80.0679
21
-137.792
0
LINE
8
Black
10
82.7821
20
-137.792
11
82.4964
21
-137.649
0
LINE
8
Black
10
82.4964
20
-137.649
11
82.3536
21
-137.364
0
LINE
8
Black
10
82.3536
20
-137.364
11
82.3536
21
-134.792
0
LINE
8
Black
10
85.0679
20
-137.649
11
84.7821
21
-137.792
0
LINE
8
Black
10
84.7821
20
-137.792
11
84.2107
21
-137.792
0
LINE
8
Black
10
84.2107
20
-137.792
11
83.925
21
-137.649
0
LINE
8
Black
10
83.925
20
-137.649
11
83.7821
21
-137.364
0
LINE
8
Black
10
83.7821
20
-137.364
11
83.7821
21
-136.221
0
LINE
8
Black
10
83.7821
20
-136.221
11
83.925
21
-135.935
0
LINE
8
Black
10
83.925
20
-135.935
11
84.2107
21
-135.792
0
LINE
8
Black
10
84.2107
20
-135.792
11
84.7821
21
-135.792
0
LINE
8
Black
10
84.7821
20
-135.792
11
85.0679
21
-135.935
0
LINE
8
Black
10
85.0679
20
-135.935
11
85.2107
21
-136.221
0
LINE
8
Black
10
85.2107
20
-136.221
11
85.2107
21
-136.506
0
LINE
8
Black
10
85.2107
20
-136.506
11
83.7821
21
-136.792
0
LINE
8
Black
10
86.3536
20
-137.649
11
86.6393
21
-137.792
0
LINE
8
Black
10
86.6393
20
-137.792
11
87.2107
21
-137.792
0
LINE
8
Black
10
87.2107
20
-137.792
11
87.4964
21
-137.649
0
LINE
8
Black
10
87.4964
20
-137.649
11
87.6393
21
-137.364
0
LINE
8
Black
10
87.6393
20
-137.364
11
87.6393
21
-137.221
0
LINE
8
Black
10
87.6393
20
-137.221
11
87.4964
21
-136.935
0
LINE
8
Black
10
87.4964
20
-136.935
11
87.2107
21
-136.792
0
LINE
8
Black
10
87.2107
20
-136.792
11
86.7821
21
-136.792
0
LINE
8
Black
10
86.7821
20
-136.792
11
86.4964
21
-136.649
0
LINE
8
Black
10
86.4964
20
-136.649
11
86.3536
21
-136.364
0
LINE
8
Black
10
86.3536
20
-136.364
11
86.3536
21
-136.221
0
LINE
8
Black
10
86.3536
20
-136.221
11
86.4964
21
-135.935
0
LINE
8
Black
10
86.4964
20
-135.935
11
86.7821
21
-135.792
0
LINE
8
Black
10
86.7821
20
-135.792
11
87.2107
21
-135.792
0
LINE
8
Black
10
87.2107
20
-135.792
11
87.4964
21
-135.935
0
LINE
8
Black
10
88.6393
20
-138.935
11
88.7821
21
-138.792
0
LINE
8
Black
10
88.7821
20
-138.792
11
89.0679
21
-138.364
0
LINE
8
Black
10
89.0679
20
-138.364
11
89.2107
21
-138.078
0
LINE
8
Black
10
89.2107
20
-138.078
11
89.3536
21
-137.649
0
LINE
8
Black
10
89.3536
20
-137.649
11
89.4964
21
-136.935
0
LINE
8
Black
10
89.4964
20
-136.935
11
89.4964
21
-136.364
0
LINE
8
Black
10
89.4964
20
-136.364
11
89.3536
21
-135.649
0
LINE
8
Black
10
89.3536
20
-135.649
11
89.2107
21
-135.221
0
LINE
8
Black
10
89.2107
20
-135.221
11
89.0679
21
-134.935
0
LINE
8
Black
10
89.0679
20
-134.935
11
88.7821
21
-134.506
0
LINE
8
Black
10
88.7821
20
-134.506
11
88.6393
21
-134.364
  0
ENDSEC
  0
EOF
