%FSLAX45Y45*%
G04 Gerber Fmt 4.5, Leading zero omitted, Abs format (unit mm)*
G04 Created by KiCad (PCBNEW 4.0.7) date 03/14/18 00:25:23*
%MOMM*%
%LPD*%
G01*
G04 APERTURE LIST*
%ADD10C,0.127000*%
%ADD11C,0.150000*%
%ADD12C,0.200000*%
%ADD13C,0.300000*%
G04 APERTURE END LIST*
D10*
D11*
X2400000Y-10300000D02*
X2400000Y-2100000D01*
X12200000Y-10300000D02*
X2400000Y-10300000D01*
X12200000Y-2100000D02*
X12200000Y-10300000D01*
X10600000Y-2100000D02*
X12200000Y-2100000D01*
X2400000Y-2100000D02*
X10600000Y-2100000D01*
D12*
X5466400Y-6965000D02*
X5506400Y-7005000D01*
X5506400Y-6965000D02*
X5466400Y-7005000D01*
X10775000Y-3028000D02*
X10815000Y-3068000D01*
X10815000Y-3028000D02*
X10775000Y-3068000D01*
X4866000Y-7620000D02*
G75*
G03X4866000Y-7620000I-40000J0D01*
G01*
X4866000Y-7874000D02*
G75*
G03X4866000Y-7874000I-40000J0D01*
G01*
X4866000Y-8128000D02*
G75*
G03X4866000Y-8128000I-40000J0D01*
G01*
X5374000Y-4826000D02*
G75*
G03X5374000Y-4826000I-40000J0D01*
G01*
X5374000Y-5080000D02*
G75*
G03X5374000Y-5080000I-40000J0D01*
G01*
X5374000Y-5334000D02*
G75*
G03X5374000Y-5334000I-40000J0D01*
G01*
X5374000Y-5588000D02*
G75*
G03X5374000Y-5588000I-40000J0D01*
G01*
X5374000Y-5842000D02*
G75*
G03X5374000Y-5842000I-40000J0D01*
G01*
X5374000Y-6096000D02*
G75*
G03X5374000Y-6096000I-40000J0D01*
G01*
X5374000Y-6350000D02*
G75*
G03X5374000Y-6350000I-40000J0D01*
G01*
X5374000Y-6604000D02*
G75*
G03X5374000Y-6604000I-40000J0D01*
G01*
X5374000Y-6858000D02*
G75*
G03X5374000Y-6858000I-40000J0D01*
G01*
X5374000Y-7112000D02*
G75*
G03X5374000Y-7112000I-40000J0D01*
G01*
X5628000Y-7620000D02*
G75*
G03X5628000Y-7620000I-40000J0D01*
G01*
X5628000Y-7874000D02*
G75*
G03X5628000Y-7874000I-40000J0D01*
G01*
X5628000Y-8128000D02*
G75*
G03X5628000Y-8128000I-40000J0D01*
G01*
X6136000Y-4826000D02*
G75*
G03X6136000Y-4826000I-40000J0D01*
G01*
X6136000Y-5080000D02*
G75*
G03X6136000Y-5080000I-40000J0D01*
G01*
X6136000Y-5334000D02*
G75*
G03X6136000Y-5334000I-40000J0D01*
G01*
X6136000Y-5588000D02*
G75*
G03X6136000Y-5588000I-40000J0D01*
G01*
X6136000Y-5842000D02*
G75*
G03X6136000Y-5842000I-40000J0D01*
G01*
X6136000Y-6096000D02*
G75*
G03X6136000Y-6096000I-40000J0D01*
G01*
X6136000Y-6350000D02*
G75*
G03X6136000Y-6350000I-40000J0D01*
G01*
X6136000Y-6604000D02*
G75*
G03X6136000Y-6604000I-40000J0D01*
G01*
X6136000Y-6858000D02*
G75*
G03X6136000Y-6858000I-40000J0D01*
G01*
X6136000Y-7112000D02*
G75*
G03X6136000Y-7112000I-40000J0D01*
G01*
X6898000Y-5588000D02*
G75*
G03X6898000Y-5588000I-40000J0D01*
G01*
X6898000Y-5842000D02*
G75*
G03X6898000Y-5842000I-40000J0D01*
G01*
X6898000Y-6096000D02*
G75*
G03X6898000Y-6096000I-40000J0D01*
G01*
X7406000Y-2540000D02*
G75*
G03X7406000Y-2540000I-40000J0D01*
G01*
X7406000Y-3302000D02*
G75*
G03X7406000Y-3302000I-40000J0D01*
G01*
X7660000Y-5588000D02*
G75*
G03X7660000Y-5588000I-40000J0D01*
G01*
X7660000Y-5842000D02*
G75*
G03X7660000Y-5842000I-40000J0D01*
G01*
X7660000Y-6096000D02*
G75*
G03X7660000Y-6096000I-40000J0D01*
G01*
X9184000Y-7874000D02*
G75*
G03X9184000Y-7874000I-40000J0D01*
G01*
X9184000Y-8640000D02*
G75*
G03X9184000Y-8640000I-40000J0D01*
G01*
X9184000Y-8890000D02*
G75*
G03X9184000Y-8890000I-40000J0D01*
G01*
X9434000Y-7874000D02*
G75*
G03X9434000Y-7874000I-40000J0D01*
G01*
X9692000Y-6350000D02*
G75*
G03X9692000Y-6350000I-40000J0D01*
G01*
X9692000Y-7874000D02*
G75*
G03X9692000Y-7874000I-40000J0D01*
G01*
X9942000Y-6350000D02*
G75*
G03X9942000Y-6350000I-40000J0D01*
G01*
X9942000Y-7874000D02*
G75*
G03X9942000Y-7874000I-40000J0D01*
G01*
X7112000Y-6813000D02*
X7112000Y-6903000D01*
X7067000Y-6858000D02*
X7157000Y-6858000D01*
X7366000Y-6813000D02*
X7366000Y-6903000D01*
X7321000Y-6858000D02*
X7411000Y-6858000D01*
X7874000Y-6813000D02*
X7874000Y-6903000D01*
X7829000Y-6858000D02*
X7919000Y-6858000D01*
X8128000Y-6813000D02*
X8128000Y-6903000D01*
X8083000Y-6858000D02*
X8173000Y-6858000D01*
X8636000Y-6813000D02*
X8636000Y-6903000D01*
X8591000Y-6858000D02*
X8681000Y-6858000D01*
X8890000Y-6813000D02*
X8890000Y-6903000D01*
X8845000Y-6858000D02*
X8935000Y-6858000D01*
X2829356Y-2575356D02*
X2829356Y-2504644D01*
X2758644Y-2504644D01*
X2758644Y-2575356D01*
X2829356Y-2575356D01*
X2829356Y-2829356D02*
X2829356Y-2758644D01*
X2758644Y-2758644D01*
X2758644Y-2829356D01*
X2829356Y-2829356D01*
X2829356Y-3083356D02*
X2829356Y-3012644D01*
X2758644Y-3012644D01*
X2758644Y-3083356D01*
X2829356Y-3083356D01*
X2829356Y-3337356D02*
X2829356Y-3266644D01*
X2758644Y-3266644D01*
X2758644Y-3337356D01*
X2829356Y-3337356D01*
X2829356Y-3591356D02*
X2829356Y-3520644D01*
X2758644Y-3520644D01*
X2758644Y-3591356D01*
X2829356Y-3591356D01*
X2829356Y-3845356D02*
X2829356Y-3774644D01*
X2758644Y-3774644D01*
X2758644Y-3845356D01*
X2829356Y-3845356D01*
X2829356Y-4099356D02*
X2829356Y-4028644D01*
X2758644Y-4028644D01*
X2758644Y-4099356D01*
X2829356Y-4099356D01*
X2829356Y-4353356D02*
X2829356Y-4282644D01*
X2758644Y-4282644D01*
X2758644Y-4353356D01*
X2829356Y-4353356D01*
X2829356Y-9687356D02*
X2829356Y-9616644D01*
X2758644Y-9616644D01*
X2758644Y-9687356D01*
X2829356Y-9687356D01*
X2829356Y-9941356D02*
X2829356Y-9870644D01*
X2758644Y-9870644D01*
X2758644Y-9941356D01*
X2829356Y-9941356D01*
X4061356Y-10035356D02*
X4061356Y-9964644D01*
X3990644Y-9964644D01*
X3990644Y-10035356D01*
X4061356Y-10035356D01*
X4315356Y-10035356D02*
X4315356Y-9964644D01*
X4244644Y-9964644D01*
X4244644Y-10035356D01*
X4315356Y-10035356D01*
X4416356Y-4583356D02*
X4416356Y-4512644D01*
X4345644Y-4512644D01*
X4345644Y-4583356D01*
X4416356Y-4583356D01*
X4416356Y-4837356D02*
X4416356Y-4766644D01*
X4345644Y-4766644D01*
X4345644Y-4837356D01*
X4416356Y-4837356D01*
X4416356Y-5091356D02*
X4416356Y-5020644D01*
X4345644Y-5020644D01*
X4345644Y-5091356D01*
X4416356Y-5091356D01*
X4416356Y-5345356D02*
X4416356Y-5274644D01*
X4345644Y-5274644D01*
X4345644Y-5345356D01*
X4416356Y-5345356D01*
X4416356Y-5599356D02*
X4416356Y-5528644D01*
X4345644Y-5528644D01*
X4345644Y-5599356D01*
X4416356Y-5599356D01*
X4416356Y-5853356D02*
X4416356Y-5782644D01*
X4345644Y-5782644D01*
X4345644Y-5853356D01*
X4416356Y-5853356D01*
X4416356Y-6107356D02*
X4416356Y-6036644D01*
X4345644Y-6036644D01*
X4345644Y-6107356D01*
X4416356Y-6107356D01*
X4416356Y-6361356D02*
X4416356Y-6290644D01*
X4345644Y-6290644D01*
X4345644Y-6361356D01*
X4416356Y-6361356D01*
X4416356Y-6615356D02*
X4416356Y-6544644D01*
X4345644Y-6544644D01*
X4345644Y-6615356D01*
X4416356Y-6615356D01*
X4416356Y-6869356D02*
X4416356Y-6798644D01*
X4345644Y-6798644D01*
X4345644Y-6869356D01*
X4416356Y-6869356D01*
X4421356Y-7375356D02*
X4421356Y-7304644D01*
X4350644Y-7304644D01*
X4350644Y-7375356D01*
X4421356Y-7375356D01*
X4421356Y-7629356D02*
X4421356Y-7558644D01*
X4350644Y-7558644D01*
X4350644Y-7629356D01*
X4421356Y-7629356D01*
X4421356Y-7883356D02*
X4421356Y-7812644D01*
X4350644Y-7812644D01*
X4350644Y-7883356D01*
X4421356Y-7883356D01*
X4421356Y-8137356D02*
X4421356Y-8066644D01*
X4350644Y-8066644D01*
X4350644Y-8137356D01*
X4421356Y-8137356D01*
X4421356Y-8391356D02*
X4421356Y-8320644D01*
X4350644Y-8320644D01*
X4350644Y-8391356D01*
X4421356Y-8391356D01*
X4421356Y-8645356D02*
X4421356Y-8574644D01*
X4350644Y-8574644D01*
X4350644Y-8645356D01*
X4421356Y-8645356D01*
X4421356Y-8899356D02*
X4421356Y-8828644D01*
X4350644Y-8828644D01*
X4350644Y-8899356D01*
X4421356Y-8899356D01*
X4421356Y-9153356D02*
X4421356Y-9082644D01*
X4350644Y-9082644D01*
X4350644Y-9153356D01*
X4421356Y-9153356D01*
X4569356Y-10035356D02*
X4569356Y-9964644D01*
X4498644Y-9964644D01*
X4498644Y-10035356D01*
X4569356Y-10035356D01*
X4823356Y-10035356D02*
X4823356Y-9964644D01*
X4752644Y-9964644D01*
X4752644Y-10035356D01*
X4823356Y-10035356D01*
X4861356Y-5877356D02*
X4861356Y-5806644D01*
X4790644Y-5806644D01*
X4790644Y-5877356D01*
X4861356Y-5877356D01*
X4861356Y-6131356D02*
X4861356Y-6060644D01*
X4790644Y-6060644D01*
X4790644Y-6131356D01*
X4861356Y-6131356D01*
X4861356Y-6385356D02*
X4861356Y-6314644D01*
X4790644Y-6314644D01*
X4790644Y-6385356D01*
X4861356Y-6385356D01*
X4861356Y-6639356D02*
X4861356Y-6568644D01*
X4790644Y-6568644D01*
X4790644Y-6639356D01*
X4861356Y-6639356D01*
X4861356Y-6893356D02*
X4861356Y-6822644D01*
X4790644Y-6822644D01*
X4790644Y-6893356D01*
X4861356Y-6893356D01*
X4861356Y-7147356D02*
X4861356Y-7076644D01*
X4790644Y-7076644D01*
X4790644Y-7147356D01*
X4861356Y-7147356D01*
X5077356Y-10035356D02*
X5077356Y-9964644D01*
X5006644Y-9964644D01*
X5006644Y-10035356D01*
X5077356Y-10035356D01*
X5115356Y-8925356D02*
X5115356Y-8854644D01*
X5044644Y-8854644D01*
X5044644Y-8925356D01*
X5115356Y-8925356D01*
X5115356Y-9179356D02*
X5115356Y-9108644D01*
X5044644Y-9108644D01*
X5044644Y-9179356D01*
X5115356Y-9179356D01*
X5331356Y-10035356D02*
X5331356Y-9964644D01*
X5260644Y-9964644D01*
X5260644Y-10035356D01*
X5331356Y-10035356D01*
X5369356Y-8925356D02*
X5369356Y-8854644D01*
X5298644Y-8854644D01*
X5298644Y-8925356D01*
X5369356Y-8925356D01*
X5369356Y-9179356D02*
X5369356Y-9108644D01*
X5298644Y-9108644D01*
X5298644Y-9179356D01*
X5369356Y-9179356D01*
X5585356Y-10035356D02*
X5585356Y-9964644D01*
X5514644Y-9964644D01*
X5514644Y-10035356D01*
X5585356Y-10035356D01*
X6543356Y-2737356D02*
X6543356Y-2666644D01*
X6472644Y-2666644D01*
X6472644Y-2737356D01*
X6543356Y-2737356D01*
X6543356Y-2991356D02*
X6543356Y-2920644D01*
X6472644Y-2920644D01*
X6472644Y-2991356D01*
X6543356Y-2991356D01*
X6543356Y-3245356D02*
X6543356Y-3174644D01*
X6472644Y-3174644D01*
X6472644Y-3245356D01*
X6543356Y-3245356D01*
X6543356Y-3499356D02*
X6543356Y-3428644D01*
X6472644Y-3428644D01*
X6472644Y-3499356D01*
X6543356Y-3499356D01*
X6797356Y-2737356D02*
X6797356Y-2666644D01*
X6726644Y-2666644D01*
X6726644Y-2737356D01*
X6797356Y-2737356D01*
X6797356Y-2991356D02*
X6797356Y-2920644D01*
X6726644Y-2920644D01*
X6726644Y-2991356D01*
X6797356Y-2991356D01*
X6797356Y-3245356D02*
X6797356Y-3174644D01*
X6726644Y-3174644D01*
X6726644Y-3245356D01*
X6797356Y-3245356D01*
X6797356Y-3499356D02*
X6797356Y-3428644D01*
X6726644Y-3428644D01*
X6726644Y-3499356D01*
X6797356Y-3499356D01*
X6893356Y-4861356D02*
X6893356Y-4790644D01*
X6822644Y-4790644D01*
X6822644Y-4861356D01*
X6893356Y-4861356D01*
X7147356Y-4861356D02*
X7147356Y-4790644D01*
X7076644Y-4790644D01*
X7076644Y-4861356D01*
X7147356Y-4861356D01*
X7147356Y-8925356D02*
X7147356Y-8854644D01*
X7076644Y-8854644D01*
X7076644Y-8925356D01*
X7147356Y-8925356D01*
X7147356Y-9179356D02*
X7147356Y-9108644D01*
X7076644Y-9108644D01*
X7076644Y-9179356D01*
X7147356Y-9179356D01*
X7401356Y-4861356D02*
X7401356Y-4790644D01*
X7330644Y-4790644D01*
X7330644Y-4861356D01*
X7401356Y-4861356D01*
X7401356Y-8925356D02*
X7401356Y-8854644D01*
X7330644Y-8854644D01*
X7330644Y-8925356D01*
X7401356Y-8925356D01*
X7401356Y-9179356D02*
X7401356Y-9108644D01*
X7330644Y-9108644D01*
X7330644Y-9179356D01*
X7401356Y-9179356D01*
X8016356Y-3199356D02*
X8016356Y-3128644D01*
X7945644Y-3128644D01*
X7945644Y-3199356D01*
X8016356Y-3199356D01*
X8016356Y-3453356D02*
X8016356Y-3382644D01*
X7945644Y-3382644D01*
X7945644Y-3453356D01*
X8016356Y-3453356D01*
X8016356Y-3707356D02*
X8016356Y-3636644D01*
X7945644Y-3636644D01*
X7945644Y-3707356D01*
X8016356Y-3707356D01*
X8016356Y-3961356D02*
X8016356Y-3890644D01*
X7945644Y-3890644D01*
X7945644Y-3961356D01*
X8016356Y-3961356D01*
X8270356Y-3199356D02*
X8270356Y-3128644D01*
X8199644Y-3128644D01*
X8199644Y-3199356D01*
X8270356Y-3199356D01*
X8270356Y-3453356D02*
X8270356Y-3382644D01*
X8199644Y-3382644D01*
X8199644Y-3453356D01*
X8270356Y-3453356D01*
X8270356Y-3707356D02*
X8270356Y-3636644D01*
X8199644Y-3636644D01*
X8199644Y-3707356D01*
X8270356Y-3707356D01*
X8270356Y-3961356D02*
X8270356Y-3890644D01*
X8199644Y-3890644D01*
X8199644Y-3961356D01*
X8270356Y-3961356D01*
X8417356Y-4607356D02*
X8417356Y-4536644D01*
X8346644Y-4536644D01*
X8346644Y-4607356D01*
X8417356Y-4607356D01*
X8417356Y-4861356D02*
X8417356Y-4790644D01*
X8346644Y-4790644D01*
X8346644Y-4861356D01*
X8417356Y-4861356D01*
X8417356Y-5115356D02*
X8417356Y-5044644D01*
X8346644Y-5044644D01*
X8346644Y-5115356D01*
X8417356Y-5115356D01*
X8417356Y-5369356D02*
X8417356Y-5298644D01*
X8346644Y-5298644D01*
X8346644Y-5369356D01*
X8417356Y-5369356D01*
X8417356Y-5623356D02*
X8417356Y-5552644D01*
X8346644Y-5552644D01*
X8346644Y-5623356D01*
X8417356Y-5623356D01*
X8417356Y-5877356D02*
X8417356Y-5806644D01*
X8346644Y-5806644D01*
X8346644Y-5877356D01*
X8417356Y-5877356D01*
X8524356Y-3199356D02*
X8524356Y-3128644D01*
X8453644Y-3128644D01*
X8453644Y-3199356D01*
X8524356Y-3199356D01*
X8524356Y-3453356D02*
X8524356Y-3382644D01*
X8453644Y-3382644D01*
X8453644Y-3453356D01*
X8524356Y-3453356D01*
X8524356Y-3707356D02*
X8524356Y-3636644D01*
X8453644Y-3636644D01*
X8453644Y-3707356D01*
X8524356Y-3707356D01*
X8524356Y-3961356D02*
X8524356Y-3890644D01*
X8453644Y-3890644D01*
X8453644Y-3961356D01*
X8524356Y-3961356D01*
X9075356Y-10035356D02*
X9075356Y-9964644D01*
X9004644Y-9964644D01*
X9004644Y-10035356D01*
X9075356Y-10035356D01*
X9329356Y-10035356D02*
X9329356Y-9964644D01*
X9258644Y-9964644D01*
X9258644Y-10035356D01*
X9329356Y-10035356D01*
X9433356Y-2575356D02*
X9433356Y-2504644D01*
X9362644Y-2504644D01*
X9362644Y-2575356D01*
X9433356Y-2575356D01*
X9433356Y-2829356D02*
X9433356Y-2758644D01*
X9362644Y-2758644D01*
X9362644Y-2829356D01*
X9433356Y-2829356D01*
X9583356Y-10035356D02*
X9583356Y-9964644D01*
X9512644Y-9964644D01*
X9512644Y-10035356D01*
X9583356Y-10035356D01*
X9687356Y-4607356D02*
X9687356Y-4536644D01*
X9616644Y-4536644D01*
X9616644Y-4607356D01*
X9687356Y-4607356D01*
X9687356Y-4861356D02*
X9687356Y-4790644D01*
X9616644Y-4790644D01*
X9616644Y-4861356D01*
X9687356Y-4861356D01*
X9687356Y-5115356D02*
X9687356Y-5044644D01*
X9616644Y-5044644D01*
X9616644Y-5115356D01*
X9687356Y-5115356D01*
X9687356Y-5369356D02*
X9687356Y-5298644D01*
X9616644Y-5298644D01*
X9616644Y-5369356D01*
X9687356Y-5369356D01*
X9687356Y-5623356D02*
X9687356Y-5552644D01*
X9616644Y-5552644D01*
X9616644Y-5623356D01*
X9687356Y-5623356D01*
X9687356Y-5877356D02*
X9687356Y-5806644D01*
X9616644Y-5806644D01*
X9616644Y-5877356D01*
X9687356Y-5877356D01*
X9837356Y-10035356D02*
X9837356Y-9964644D01*
X9766644Y-9964644D01*
X9766644Y-10035356D01*
X9837356Y-10035356D01*
X10091356Y-10035356D02*
X10091356Y-9964644D01*
X10020644Y-9964644D01*
X10020644Y-10035356D01*
X10091356Y-10035356D01*
X10254356Y-7880356D02*
X10254356Y-7809644D01*
X10183644Y-7809644D01*
X10183644Y-7880356D01*
X10254356Y-7880356D01*
X10254356Y-8134356D02*
X10254356Y-8063644D01*
X10183644Y-8063644D01*
X10183644Y-8134356D01*
X10254356Y-8134356D01*
X10254356Y-8388356D02*
X10254356Y-8317644D01*
X10183644Y-8317644D01*
X10183644Y-8388356D01*
X10254356Y-8388356D01*
X10254356Y-8642356D02*
X10254356Y-8571644D01*
X10183644Y-8571644D01*
X10183644Y-8642356D01*
X10254356Y-8642356D01*
X10254356Y-8896356D02*
X10254356Y-8825644D01*
X10183644Y-8825644D01*
X10183644Y-8896356D01*
X10254356Y-8896356D01*
X10254356Y-9150356D02*
X10254356Y-9079644D01*
X10183644Y-9079644D01*
X10183644Y-9150356D01*
X10254356Y-9150356D01*
X10257356Y-5594356D02*
X10257356Y-5523644D01*
X10186644Y-5523644D01*
X10186644Y-5594356D01*
X10257356Y-5594356D01*
X10257356Y-5848356D02*
X10257356Y-5777644D01*
X10186644Y-5777644D01*
X10186644Y-5848356D01*
X10257356Y-5848356D01*
X10257356Y-6102356D02*
X10257356Y-6031644D01*
X10186644Y-6031644D01*
X10186644Y-6102356D01*
X10257356Y-6102356D01*
X10257356Y-6356356D02*
X10257356Y-6285644D01*
X10186644Y-6285644D01*
X10186644Y-6356356D01*
X10257356Y-6356356D01*
X10257356Y-6610356D02*
X10257356Y-6539644D01*
X10186644Y-6539644D01*
X10186644Y-6610356D01*
X10257356Y-6610356D01*
X10257356Y-6864356D02*
X10257356Y-6793644D01*
X10186644Y-6793644D01*
X10186644Y-6864356D01*
X10257356Y-6864356D01*
X10257356Y-7118356D02*
X10257356Y-7047644D01*
X10186644Y-7047644D01*
X10186644Y-7118356D01*
X10257356Y-7118356D01*
X10257356Y-7372356D02*
X10257356Y-7301644D01*
X10186644Y-7301644D01*
X10186644Y-7372356D01*
X10257356Y-7372356D01*
X10345356Y-10035356D02*
X10345356Y-9964644D01*
X10274644Y-9964644D01*
X10274644Y-10035356D01*
X10345356Y-10035356D01*
X10599356Y-10035356D02*
X10599356Y-9964644D01*
X10528644Y-9964644D01*
X10528644Y-10035356D01*
X10599356Y-10035356D01*
X11719356Y-2575356D02*
X11719356Y-2504644D01*
X11648644Y-2504644D01*
X11648644Y-2575356D01*
X11719356Y-2575356D01*
X11719356Y-2829356D02*
X11719356Y-2758644D01*
X11648644Y-2758644D01*
X11648644Y-2829356D01*
X11719356Y-2829356D01*
X11719356Y-3083356D02*
X11719356Y-3012644D01*
X11648644Y-3012644D01*
X11648644Y-3083356D01*
X11719356Y-3083356D01*
X11719356Y-3337356D02*
X11719356Y-3266644D01*
X11648644Y-3266644D01*
X11648644Y-3337356D01*
X11719356Y-3337356D01*
X11719356Y-9179356D02*
X11719356Y-9108644D01*
X11648644Y-9108644D01*
X11648644Y-9179356D01*
X11719356Y-9179356D01*
X11719356Y-9433356D02*
X11719356Y-9362644D01*
X11648644Y-9362644D01*
X11648644Y-9433356D01*
X11719356Y-9433356D01*
X11719356Y-9687356D02*
X11719356Y-9616644D01*
X11648644Y-9616644D01*
X11648644Y-9687356D01*
X11719356Y-9687356D01*
X11719356Y-9941356D02*
X11719356Y-9870644D01*
X11648644Y-9870644D01*
X11648644Y-9941356D01*
X11719356Y-9941356D01*
X6096000Y-7675000D02*
X6151000Y-7620000D01*
X6096000Y-7565000D01*
X6041000Y-7620000D01*
X6096000Y-7675000D01*
X6096000Y-8125000D02*
X6151000Y-8070000D01*
X6096000Y-8015000D01*
X6041000Y-8070000D01*
X6096000Y-8125000D01*
X6746000Y-7675000D02*
X6801000Y-7620000D01*
X6746000Y-7565000D01*
X6691000Y-7620000D01*
X6746000Y-7675000D01*
X6746000Y-8125000D02*
X6801000Y-8070000D01*
X6746000Y-8015000D01*
X6691000Y-8070000D01*
X6746000Y-8125000D01*
X7112000Y-7675000D02*
X7167000Y-7620000D01*
X7112000Y-7565000D01*
X7057000Y-7620000D01*
X7112000Y-7675000D01*
X7112000Y-8125000D02*
X7167000Y-8070000D01*
X7112000Y-8015000D01*
X7057000Y-8070000D01*
X7112000Y-8125000D01*
X7762000Y-7675000D02*
X7817000Y-7620000D01*
X7762000Y-7565000D01*
X7707000Y-7620000D01*
X7762000Y-7675000D01*
X7762000Y-8125000D02*
X7817000Y-8070000D01*
X7762000Y-8015000D01*
X7707000Y-8070000D01*
X7762000Y-8125000D01*
X8128000Y-7675000D02*
X8183000Y-7620000D01*
X8128000Y-7565000D01*
X8073000Y-7620000D01*
X8128000Y-7675000D01*
X8128000Y-8125000D02*
X8183000Y-8070000D01*
X8128000Y-8015000D01*
X8073000Y-8070000D01*
X8128000Y-8125000D01*
X8778000Y-7675000D02*
X8833000Y-7620000D01*
X8778000Y-7565000D01*
X8723000Y-7620000D01*
X8778000Y-7675000D01*
X8778000Y-8125000D02*
X8833000Y-8070000D01*
X8778000Y-8015000D01*
X8723000Y-8070000D01*
X8778000Y-8125000D01*
X9594850Y-6800850D02*
X9709150Y-6915150D01*
X9709150Y-6800850D02*
X9594850Y-6915150D01*
X9709150Y-6858000D02*
G75*
G03X9709150Y-6858000I-57150J0D01*
G01*
X9594850Y-7054850D02*
X9709150Y-7169150D01*
X9709150Y-7054850D02*
X9594850Y-7169150D01*
X9709150Y-7112000D02*
G75*
G03X9709150Y-7112000I-57150J0D01*
G01*
X9594850Y-7308850D02*
X9709150Y-7423150D01*
X9709150Y-7308850D02*
X9594850Y-7423150D01*
X9709150Y-7366000D02*
G75*
G03X9709150Y-7366000I-57150J0D01*
G01*
X9594850Y-8324850D02*
X9709150Y-8439150D01*
X9709150Y-8324850D02*
X9594850Y-8439150D01*
X9709150Y-8382000D02*
G75*
G03X9709150Y-8382000I-57150J0D01*
G01*
X9594850Y-8578850D02*
X9709150Y-8693150D01*
X9709150Y-8578850D02*
X9594850Y-8693150D01*
X9709150Y-8636000D02*
G75*
G03X9709150Y-8636000I-57150J0D01*
G01*
X9594850Y-8832850D02*
X9709150Y-8947150D01*
X9709150Y-8832850D02*
X9594850Y-8947150D01*
X9709150Y-8890000D02*
G75*
G03X9709150Y-8890000I-57150J0D01*
G01*
X3247600Y-9147600D02*
X3552400Y-9452400D01*
X3552400Y-9147600D02*
X3247600Y-9452400D01*
X3400000Y-9147600D02*
X3400000Y-9452400D01*
X3247600Y-9300000D02*
X3552400Y-9300000D01*
X3847600Y-2947600D02*
X4152400Y-3252400D01*
X4152400Y-2947600D02*
X3847600Y-3252400D01*
X4000000Y-2947600D02*
X4000000Y-3252400D01*
X3847600Y-3100000D02*
X4152400Y-3100000D01*
X11047600Y-2947600D02*
X11352400Y-3252400D01*
X11352400Y-2947600D02*
X11047600Y-3252400D01*
X11200000Y-2947600D02*
X11200000Y-3252400D01*
X11047600Y-3100000D02*
X11352400Y-3100000D01*
X11047600Y-9147600D02*
X11352400Y-9452400D01*
X11352400Y-9147600D02*
X11047600Y-9452400D01*
X11200000Y-9147600D02*
X11200000Y-9452400D01*
X11047600Y-9300000D02*
X11352400Y-9300000D01*
D13*
X2663929Y-10773214D02*
X2663929Y-10473214D01*
X2735357Y-10473214D01*
X2778214Y-10487500D01*
X2806786Y-10516072D01*
X2821071Y-10544643D01*
X2835357Y-10601786D01*
X2835357Y-10644643D01*
X2821071Y-10701786D01*
X2806786Y-10730357D01*
X2778214Y-10758929D01*
X2735357Y-10773214D01*
X2663929Y-10773214D01*
X2963928Y-10773214D02*
X2963928Y-10573214D01*
X2963928Y-10630357D02*
X2978214Y-10601786D01*
X2992500Y-10587500D01*
X3021071Y-10573214D01*
X3049643Y-10573214D01*
X3149643Y-10773214D02*
X3149643Y-10573214D01*
X3149643Y-10473214D02*
X3135357Y-10487500D01*
X3149643Y-10501786D01*
X3163928Y-10487500D01*
X3149643Y-10473214D01*
X3149643Y-10501786D01*
X3335357Y-10773214D02*
X3306786Y-10758929D01*
X3292500Y-10730357D01*
X3292500Y-10473214D01*
X3492500Y-10773214D02*
X3463928Y-10758929D01*
X3449643Y-10730357D01*
X3449643Y-10473214D01*
X3835357Y-10773214D02*
X3835357Y-10473214D01*
X3935357Y-10687500D01*
X4035357Y-10473214D01*
X4035357Y-10773214D01*
X4306786Y-10773214D02*
X4306786Y-10616072D01*
X4292500Y-10587500D01*
X4263929Y-10573214D01*
X4206786Y-10573214D01*
X4178214Y-10587500D01*
X4306786Y-10758929D02*
X4278214Y-10773214D01*
X4206786Y-10773214D01*
X4178214Y-10758929D01*
X4163928Y-10730357D01*
X4163928Y-10701786D01*
X4178214Y-10673214D01*
X4206786Y-10658929D01*
X4278214Y-10658929D01*
X4306786Y-10644643D01*
X4449643Y-10573214D02*
X4449643Y-10873214D01*
X4449643Y-10587500D02*
X4478214Y-10573214D01*
X4535357Y-10573214D01*
X4563929Y-10587500D01*
X4578214Y-10601786D01*
X4592500Y-10630357D01*
X4592500Y-10716072D01*
X4578214Y-10744643D01*
X4563929Y-10758929D01*
X4535357Y-10773214D01*
X4478214Y-10773214D01*
X4449643Y-10758929D01*
X4721071Y-10744643D02*
X4735357Y-10758929D01*
X4721071Y-10773214D01*
X4706786Y-10758929D01*
X4721071Y-10744643D01*
X4721071Y-10773214D01*
X4721071Y-10587500D02*
X4735357Y-10601786D01*
X4721071Y-10616072D01*
X4706786Y-10601786D01*
X4721071Y-10587500D01*
X4721071Y-10616072D01*
X2352500Y-11247500D02*
X2392500Y-11287500D01*
X2392500Y-11247500D02*
X2352500Y-11287500D01*
X2721071Y-11103214D02*
X2749643Y-11103214D01*
X2778214Y-11117500D01*
X2792500Y-11131786D01*
X2806786Y-11160357D01*
X2821071Y-11217500D01*
X2821071Y-11288929D01*
X2806786Y-11346071D01*
X2792500Y-11374643D01*
X2778214Y-11388929D01*
X2749643Y-11403214D01*
X2721071Y-11403214D01*
X2692500Y-11388929D01*
X2678214Y-11374643D01*
X2663929Y-11346071D01*
X2649643Y-11288929D01*
X2649643Y-11217500D01*
X2663929Y-11160357D01*
X2678214Y-11131786D01*
X2692500Y-11117500D01*
X2721071Y-11103214D01*
X2949643Y-11374643D02*
X2963928Y-11388929D01*
X2949643Y-11403214D01*
X2935357Y-11388929D01*
X2949643Y-11374643D01*
X2949643Y-11403214D01*
X3221071Y-11203214D02*
X3221071Y-11403214D01*
X3149643Y-11088929D02*
X3078214Y-11303214D01*
X3263928Y-11303214D01*
X3435357Y-11103214D02*
X3463928Y-11103214D01*
X3492500Y-11117500D01*
X3506786Y-11131786D01*
X3521071Y-11160357D01*
X3535357Y-11217500D01*
X3535357Y-11288929D01*
X3521071Y-11346071D01*
X3506786Y-11374643D01*
X3492500Y-11388929D01*
X3463928Y-11403214D01*
X3435357Y-11403214D01*
X3406786Y-11388929D01*
X3392500Y-11374643D01*
X3378214Y-11346071D01*
X3363928Y-11288929D01*
X3363928Y-11217500D01*
X3378214Y-11160357D01*
X3392500Y-11131786D01*
X3406786Y-11117500D01*
X3435357Y-11103214D01*
X3663928Y-11403214D02*
X3663928Y-11203214D01*
X3663928Y-11231786D02*
X3678214Y-11217500D01*
X3706786Y-11203214D01*
X3749643Y-11203214D01*
X3778214Y-11217500D01*
X3792500Y-11246071D01*
X3792500Y-11403214D01*
X3792500Y-11246071D02*
X3806786Y-11217500D01*
X3835357Y-11203214D01*
X3878214Y-11203214D01*
X3906786Y-11217500D01*
X3921071Y-11246071D01*
X3921071Y-11403214D01*
X4063928Y-11403214D02*
X4063928Y-11203214D01*
X4063928Y-11231786D02*
X4078214Y-11217500D01*
X4106786Y-11203214D01*
X4149643Y-11203214D01*
X4178214Y-11217500D01*
X4192500Y-11246071D01*
X4192500Y-11403214D01*
X4192500Y-11246071D02*
X4206786Y-11217500D01*
X4235357Y-11203214D01*
X4278214Y-11203214D01*
X4306786Y-11217500D01*
X4321071Y-11246071D01*
X4321071Y-11403214D01*
X4906786Y-11088929D02*
X4649643Y-11474643D01*
X5292500Y-11103214D02*
X5321071Y-11103214D01*
X5349643Y-11117500D01*
X5363928Y-11131786D01*
X5378214Y-11160357D01*
X5392500Y-11217500D01*
X5392500Y-11288929D01*
X5378214Y-11346071D01*
X5363928Y-11374643D01*
X5349643Y-11388929D01*
X5321071Y-11403214D01*
X5292500Y-11403214D01*
X5263928Y-11388929D01*
X5249643Y-11374643D01*
X5235357Y-11346071D01*
X5221071Y-11288929D01*
X5221071Y-11217500D01*
X5235357Y-11160357D01*
X5249643Y-11131786D01*
X5263928Y-11117500D01*
X5292500Y-11103214D01*
X5521071Y-11374643D02*
X5535357Y-11388929D01*
X5521071Y-11403214D01*
X5506786Y-11388929D01*
X5521071Y-11374643D01*
X5521071Y-11403214D01*
X5721071Y-11103214D02*
X5749643Y-11103214D01*
X5778214Y-11117500D01*
X5792500Y-11131786D01*
X5806785Y-11160357D01*
X5821071Y-11217500D01*
X5821071Y-11288929D01*
X5806785Y-11346071D01*
X5792500Y-11374643D01*
X5778214Y-11388929D01*
X5749643Y-11403214D01*
X5721071Y-11403214D01*
X5692500Y-11388929D01*
X5678214Y-11374643D01*
X5663928Y-11346071D01*
X5649643Y-11288929D01*
X5649643Y-11217500D01*
X5663928Y-11160357D01*
X5678214Y-11131786D01*
X5692500Y-11117500D01*
X5721071Y-11103214D01*
X6106785Y-11403214D02*
X5935357Y-11403214D01*
X6021071Y-11403214D02*
X6021071Y-11103214D01*
X5992500Y-11146072D01*
X5963928Y-11174643D01*
X5935357Y-11188929D01*
X6363928Y-11103214D02*
X6306785Y-11103214D01*
X6278214Y-11117500D01*
X6263928Y-11131786D01*
X6235357Y-11174643D01*
X6221071Y-11231786D01*
X6221071Y-11346071D01*
X6235357Y-11374643D01*
X6249643Y-11388929D01*
X6278214Y-11403214D01*
X6335357Y-11403214D01*
X6363928Y-11388929D01*
X6378214Y-11374643D01*
X6392500Y-11346071D01*
X6392500Y-11274643D01*
X6378214Y-11246071D01*
X6363928Y-11231786D01*
X6335357Y-11217500D01*
X6278214Y-11217500D01*
X6249643Y-11231786D01*
X6235357Y-11246071D01*
X6221071Y-11274643D01*
X6506786Y-11103214D02*
X6506786Y-11160357D01*
X6621071Y-11103214D02*
X6621071Y-11160357D01*
X7063928Y-11517500D02*
X7049643Y-11503214D01*
X7021071Y-11460357D01*
X7006785Y-11431786D01*
X6992500Y-11388929D01*
X6978214Y-11317500D01*
X6978214Y-11260357D01*
X6992500Y-11188929D01*
X7006785Y-11146072D01*
X7021071Y-11117500D01*
X7049643Y-11074643D01*
X7063928Y-11060357D01*
X7163928Y-11131786D02*
X7178214Y-11117500D01*
X7206785Y-11103214D01*
X7278214Y-11103214D01*
X7306785Y-11117500D01*
X7321071Y-11131786D01*
X7335357Y-11160357D01*
X7335357Y-11188929D01*
X7321071Y-11231786D01*
X7149643Y-11403214D01*
X7335357Y-11403214D01*
X7692500Y-11403214D02*
X7692500Y-11103214D01*
X7821071Y-11403214D02*
X7821071Y-11246071D01*
X7806785Y-11217500D01*
X7778214Y-11203214D01*
X7735357Y-11203214D01*
X7706785Y-11217500D01*
X7692500Y-11231786D01*
X8006785Y-11403214D02*
X7978214Y-11388929D01*
X7963928Y-11374643D01*
X7949643Y-11346071D01*
X7949643Y-11260357D01*
X7963928Y-11231786D01*
X7978214Y-11217500D01*
X8006785Y-11203214D01*
X8049643Y-11203214D01*
X8078214Y-11217500D01*
X8092500Y-11231786D01*
X8106785Y-11260357D01*
X8106785Y-11346071D01*
X8092500Y-11374643D01*
X8078214Y-11388929D01*
X8049643Y-11403214D01*
X8006785Y-11403214D01*
X8278214Y-11403214D02*
X8249643Y-11388929D01*
X8235357Y-11360357D01*
X8235357Y-11103214D01*
X8506786Y-11388929D02*
X8478214Y-11403214D01*
X8421071Y-11403214D01*
X8392500Y-11388929D01*
X8378214Y-11360357D01*
X8378214Y-11246071D01*
X8392500Y-11217500D01*
X8421071Y-11203214D01*
X8478214Y-11203214D01*
X8506786Y-11217500D01*
X8521071Y-11246071D01*
X8521071Y-11274643D01*
X8378214Y-11303214D01*
X8635357Y-11388929D02*
X8663929Y-11403214D01*
X8721071Y-11403214D01*
X8749643Y-11388929D01*
X8763929Y-11360357D01*
X8763929Y-11346071D01*
X8749643Y-11317500D01*
X8721071Y-11303214D01*
X8678214Y-11303214D01*
X8649643Y-11288929D01*
X8635357Y-11260357D01*
X8635357Y-11246071D01*
X8649643Y-11217500D01*
X8678214Y-11203214D01*
X8721071Y-11203214D01*
X8749643Y-11217500D01*
X8863928Y-11517500D02*
X8878214Y-11503214D01*
X8906786Y-11460357D01*
X8921071Y-11431786D01*
X8935357Y-11388929D01*
X8949643Y-11317500D01*
X8949643Y-11260357D01*
X8935357Y-11188929D01*
X8921071Y-11146072D01*
X8906786Y-11117500D01*
X8878214Y-11074643D01*
X8863928Y-11060357D01*
X2392500Y-11663500D02*
G75*
G03X2392500Y-11663500I-40000J0D01*
G01*
X2721071Y-11499214D02*
X2749643Y-11499214D01*
X2778214Y-11513500D01*
X2792500Y-11527786D01*
X2806786Y-11556357D01*
X2821071Y-11613500D01*
X2821071Y-11684929D01*
X2806786Y-11742071D01*
X2792500Y-11770643D01*
X2778214Y-11784929D01*
X2749643Y-11799214D01*
X2721071Y-11799214D01*
X2692500Y-11784929D01*
X2678214Y-11770643D01*
X2663929Y-11742071D01*
X2649643Y-11684929D01*
X2649643Y-11613500D01*
X2663929Y-11556357D01*
X2678214Y-11527786D01*
X2692500Y-11513500D01*
X2721071Y-11499214D01*
X2949643Y-11770643D02*
X2963928Y-11784929D01*
X2949643Y-11799214D01*
X2935357Y-11784929D01*
X2949643Y-11770643D01*
X2949643Y-11799214D01*
X3135357Y-11627786D02*
X3106786Y-11613500D01*
X3092500Y-11599214D01*
X3078214Y-11570643D01*
X3078214Y-11556357D01*
X3092500Y-11527786D01*
X3106786Y-11513500D01*
X3135357Y-11499214D01*
X3192500Y-11499214D01*
X3221071Y-11513500D01*
X3235357Y-11527786D01*
X3249643Y-11556357D01*
X3249643Y-11570643D01*
X3235357Y-11599214D01*
X3221071Y-11613500D01*
X3192500Y-11627786D01*
X3135357Y-11627786D01*
X3106786Y-11642071D01*
X3092500Y-11656357D01*
X3078214Y-11684929D01*
X3078214Y-11742071D01*
X3092500Y-11770643D01*
X3106786Y-11784929D01*
X3135357Y-11799214D01*
X3192500Y-11799214D01*
X3221071Y-11784929D01*
X3235357Y-11770643D01*
X3249643Y-11742071D01*
X3249643Y-11684929D01*
X3235357Y-11656357D01*
X3221071Y-11642071D01*
X3192500Y-11627786D01*
X3435357Y-11499214D02*
X3463928Y-11499214D01*
X3492500Y-11513500D01*
X3506786Y-11527786D01*
X3521071Y-11556357D01*
X3535357Y-11613500D01*
X3535357Y-11684929D01*
X3521071Y-11742071D01*
X3506786Y-11770643D01*
X3492500Y-11784929D01*
X3463928Y-11799214D01*
X3435357Y-11799214D01*
X3406786Y-11784929D01*
X3392500Y-11770643D01*
X3378214Y-11742071D01*
X3363928Y-11684929D01*
X3363928Y-11613500D01*
X3378214Y-11556357D01*
X3392500Y-11527786D01*
X3406786Y-11513500D01*
X3435357Y-11499214D01*
X3663928Y-11799214D02*
X3663928Y-11599214D01*
X3663928Y-11627786D02*
X3678214Y-11613500D01*
X3706786Y-11599214D01*
X3749643Y-11599214D01*
X3778214Y-11613500D01*
X3792500Y-11642071D01*
X3792500Y-11799214D01*
X3792500Y-11642071D02*
X3806786Y-11613500D01*
X3835357Y-11599214D01*
X3878214Y-11599214D01*
X3906786Y-11613500D01*
X3921071Y-11642071D01*
X3921071Y-11799214D01*
X4063928Y-11799214D02*
X4063928Y-11599214D01*
X4063928Y-11627786D02*
X4078214Y-11613500D01*
X4106786Y-11599214D01*
X4149643Y-11599214D01*
X4178214Y-11613500D01*
X4192500Y-11642071D01*
X4192500Y-11799214D01*
X4192500Y-11642071D02*
X4206786Y-11613500D01*
X4235357Y-11599214D01*
X4278214Y-11599214D01*
X4306786Y-11613500D01*
X4321071Y-11642071D01*
X4321071Y-11799214D01*
X4906786Y-11484929D02*
X4649643Y-11870643D01*
X5292500Y-11499214D02*
X5321071Y-11499214D01*
X5349643Y-11513500D01*
X5363928Y-11527786D01*
X5378214Y-11556357D01*
X5392500Y-11613500D01*
X5392500Y-11684929D01*
X5378214Y-11742071D01*
X5363928Y-11770643D01*
X5349643Y-11784929D01*
X5321071Y-11799214D01*
X5292500Y-11799214D01*
X5263928Y-11784929D01*
X5249643Y-11770643D01*
X5235357Y-11742071D01*
X5221071Y-11684929D01*
X5221071Y-11613500D01*
X5235357Y-11556357D01*
X5249643Y-11527786D01*
X5263928Y-11513500D01*
X5292500Y-11499214D01*
X5521071Y-11770643D02*
X5535357Y-11784929D01*
X5521071Y-11799214D01*
X5506786Y-11784929D01*
X5521071Y-11770643D01*
X5521071Y-11799214D01*
X5721071Y-11499214D02*
X5749643Y-11499214D01*
X5778214Y-11513500D01*
X5792500Y-11527786D01*
X5806785Y-11556357D01*
X5821071Y-11613500D01*
X5821071Y-11684929D01*
X5806785Y-11742071D01*
X5792500Y-11770643D01*
X5778214Y-11784929D01*
X5749643Y-11799214D01*
X5721071Y-11799214D01*
X5692500Y-11784929D01*
X5678214Y-11770643D01*
X5663928Y-11742071D01*
X5649643Y-11684929D01*
X5649643Y-11613500D01*
X5663928Y-11556357D01*
X5678214Y-11527786D01*
X5692500Y-11513500D01*
X5721071Y-11499214D01*
X5921071Y-11499214D02*
X6106785Y-11499214D01*
X6006785Y-11613500D01*
X6049643Y-11613500D01*
X6078214Y-11627786D01*
X6092500Y-11642071D01*
X6106785Y-11670643D01*
X6106785Y-11742071D01*
X6092500Y-11770643D01*
X6078214Y-11784929D01*
X6049643Y-11799214D01*
X5963928Y-11799214D01*
X5935357Y-11784929D01*
X5921071Y-11770643D01*
X6392500Y-11799214D02*
X6221071Y-11799214D01*
X6306785Y-11799214D02*
X6306785Y-11499214D01*
X6278214Y-11542071D01*
X6249643Y-11570643D01*
X6221071Y-11584929D01*
X6506786Y-11499214D02*
X6506786Y-11556357D01*
X6621071Y-11499214D02*
X6621071Y-11556357D01*
X7063928Y-11913500D02*
X7049643Y-11899214D01*
X7021071Y-11856357D01*
X7006785Y-11827786D01*
X6992500Y-11784929D01*
X6978214Y-11713500D01*
X6978214Y-11656357D01*
X6992500Y-11584929D01*
X7006785Y-11542071D01*
X7021071Y-11513500D01*
X7049643Y-11470643D01*
X7063928Y-11456357D01*
X7306785Y-11599214D02*
X7306785Y-11799214D01*
X7235357Y-11484929D02*
X7163928Y-11699214D01*
X7349643Y-11699214D01*
X7449643Y-11527786D02*
X7463928Y-11513500D01*
X7492500Y-11499214D01*
X7563928Y-11499214D01*
X7592500Y-11513500D01*
X7606785Y-11527786D01*
X7621071Y-11556357D01*
X7621071Y-11584929D01*
X7606785Y-11627786D01*
X7435357Y-11799214D01*
X7621071Y-11799214D01*
X7978214Y-11799214D02*
X7978214Y-11499214D01*
X8106785Y-11799214D02*
X8106785Y-11642071D01*
X8092500Y-11613500D01*
X8063928Y-11599214D01*
X8021071Y-11599214D01*
X7992500Y-11613500D01*
X7978214Y-11627786D01*
X8292500Y-11799214D02*
X8263928Y-11784929D01*
X8249643Y-11770643D01*
X8235357Y-11742071D01*
X8235357Y-11656357D01*
X8249643Y-11627786D01*
X8263928Y-11613500D01*
X8292500Y-11599214D01*
X8335357Y-11599214D01*
X8363928Y-11613500D01*
X8378214Y-11627786D01*
X8392500Y-11656357D01*
X8392500Y-11742071D01*
X8378214Y-11770643D01*
X8363928Y-11784929D01*
X8335357Y-11799214D01*
X8292500Y-11799214D01*
X8563928Y-11799214D02*
X8535357Y-11784929D01*
X8521071Y-11756357D01*
X8521071Y-11499214D01*
X8792500Y-11784929D02*
X8763929Y-11799214D01*
X8706786Y-11799214D01*
X8678214Y-11784929D01*
X8663929Y-11756357D01*
X8663929Y-11642071D01*
X8678214Y-11613500D01*
X8706786Y-11599214D01*
X8763929Y-11599214D01*
X8792500Y-11613500D01*
X8806786Y-11642071D01*
X8806786Y-11670643D01*
X8663929Y-11699214D01*
X8921071Y-11784929D02*
X8949643Y-11799214D01*
X9006786Y-11799214D01*
X9035357Y-11784929D01*
X9049643Y-11756357D01*
X9049643Y-11742071D01*
X9035357Y-11713500D01*
X9006786Y-11699214D01*
X8963929Y-11699214D01*
X8935357Y-11684929D01*
X8921071Y-11656357D01*
X8921071Y-11642071D01*
X8935357Y-11613500D01*
X8963929Y-11599214D01*
X9006786Y-11599214D01*
X9035357Y-11613500D01*
X9149643Y-11913500D02*
X9163929Y-11899214D01*
X9192500Y-11856357D01*
X9206786Y-11827786D01*
X9221071Y-11784929D01*
X9235357Y-11713500D01*
X9235357Y-11656357D01*
X9221071Y-11584929D01*
X9206786Y-11542071D01*
X9192500Y-11513500D01*
X9163929Y-11470643D01*
X9149643Y-11456357D01*
X2347500Y-12014500D02*
X2347500Y-12104500D01*
X2302500Y-12059500D02*
X2392500Y-12059500D01*
X2721071Y-11895214D02*
X2749643Y-11895214D01*
X2778214Y-11909500D01*
X2792500Y-11923786D01*
X2806786Y-11952357D01*
X2821071Y-12009500D01*
X2821071Y-12080929D01*
X2806786Y-12138071D01*
X2792500Y-12166643D01*
X2778214Y-12180929D01*
X2749643Y-12195214D01*
X2721071Y-12195214D01*
X2692500Y-12180929D01*
X2678214Y-12166643D01*
X2663929Y-12138071D01*
X2649643Y-12080929D01*
X2649643Y-12009500D01*
X2663929Y-11952357D01*
X2678214Y-11923786D01*
X2692500Y-11909500D01*
X2721071Y-11895214D01*
X2949643Y-12166643D02*
X2963928Y-12180929D01*
X2949643Y-12195214D01*
X2935357Y-12180929D01*
X2949643Y-12166643D01*
X2949643Y-12195214D01*
X3106786Y-12195214D02*
X3163928Y-12195214D01*
X3192500Y-12180929D01*
X3206786Y-12166643D01*
X3235357Y-12123786D01*
X3249643Y-12066643D01*
X3249643Y-11952357D01*
X3235357Y-11923786D01*
X3221071Y-11909500D01*
X3192500Y-11895214D01*
X3135357Y-11895214D01*
X3106786Y-11909500D01*
X3092500Y-11923786D01*
X3078214Y-11952357D01*
X3078214Y-12023786D01*
X3092500Y-12052357D01*
X3106786Y-12066643D01*
X3135357Y-12080929D01*
X3192500Y-12080929D01*
X3221071Y-12066643D01*
X3235357Y-12052357D01*
X3249643Y-12023786D01*
X3435357Y-11895214D02*
X3463928Y-11895214D01*
X3492500Y-11909500D01*
X3506786Y-11923786D01*
X3521071Y-11952357D01*
X3535357Y-12009500D01*
X3535357Y-12080929D01*
X3521071Y-12138071D01*
X3506786Y-12166643D01*
X3492500Y-12180929D01*
X3463928Y-12195214D01*
X3435357Y-12195214D01*
X3406786Y-12180929D01*
X3392500Y-12166643D01*
X3378214Y-12138071D01*
X3363928Y-12080929D01*
X3363928Y-12009500D01*
X3378214Y-11952357D01*
X3392500Y-11923786D01*
X3406786Y-11909500D01*
X3435357Y-11895214D01*
X3663928Y-12195214D02*
X3663928Y-11995214D01*
X3663928Y-12023786D02*
X3678214Y-12009500D01*
X3706786Y-11995214D01*
X3749643Y-11995214D01*
X3778214Y-12009500D01*
X3792500Y-12038071D01*
X3792500Y-12195214D01*
X3792500Y-12038071D02*
X3806786Y-12009500D01*
X3835357Y-11995214D01*
X3878214Y-11995214D01*
X3906786Y-12009500D01*
X3921071Y-12038071D01*
X3921071Y-12195214D01*
X4063928Y-12195214D02*
X4063928Y-11995214D01*
X4063928Y-12023786D02*
X4078214Y-12009500D01*
X4106786Y-11995214D01*
X4149643Y-11995214D01*
X4178214Y-12009500D01*
X4192500Y-12038071D01*
X4192500Y-12195214D01*
X4192500Y-12038071D02*
X4206786Y-12009500D01*
X4235357Y-11995214D01*
X4278214Y-11995214D01*
X4306786Y-12009500D01*
X4321071Y-12038071D01*
X4321071Y-12195214D01*
X4906786Y-11880929D02*
X4649643Y-12266643D01*
X5292500Y-11895214D02*
X5321071Y-11895214D01*
X5349643Y-11909500D01*
X5363928Y-11923786D01*
X5378214Y-11952357D01*
X5392500Y-12009500D01*
X5392500Y-12080929D01*
X5378214Y-12138071D01*
X5363928Y-12166643D01*
X5349643Y-12180929D01*
X5321071Y-12195214D01*
X5292500Y-12195214D01*
X5263928Y-12180929D01*
X5249643Y-12166643D01*
X5235357Y-12138071D01*
X5221071Y-12080929D01*
X5221071Y-12009500D01*
X5235357Y-11952357D01*
X5249643Y-11923786D01*
X5263928Y-11909500D01*
X5292500Y-11895214D01*
X5521071Y-12166643D02*
X5535357Y-12180929D01*
X5521071Y-12195214D01*
X5506786Y-12180929D01*
X5521071Y-12166643D01*
X5521071Y-12195214D01*
X5721071Y-11895214D02*
X5749643Y-11895214D01*
X5778214Y-11909500D01*
X5792500Y-11923786D01*
X5806785Y-11952357D01*
X5821071Y-12009500D01*
X5821071Y-12080929D01*
X5806785Y-12138071D01*
X5792500Y-12166643D01*
X5778214Y-12180929D01*
X5749643Y-12195214D01*
X5721071Y-12195214D01*
X5692500Y-12180929D01*
X5678214Y-12166643D01*
X5663928Y-12138071D01*
X5649643Y-12080929D01*
X5649643Y-12009500D01*
X5663928Y-11952357D01*
X5678214Y-11923786D01*
X5692500Y-11909500D01*
X5721071Y-11895214D01*
X5921071Y-11895214D02*
X6106785Y-11895214D01*
X6006785Y-12009500D01*
X6049643Y-12009500D01*
X6078214Y-12023786D01*
X6092500Y-12038071D01*
X6106785Y-12066643D01*
X6106785Y-12138071D01*
X6092500Y-12166643D01*
X6078214Y-12180929D01*
X6049643Y-12195214D01*
X5963928Y-12195214D01*
X5935357Y-12180929D01*
X5921071Y-12166643D01*
X6378214Y-11895214D02*
X6235357Y-11895214D01*
X6221071Y-12038071D01*
X6235357Y-12023786D01*
X6263928Y-12009500D01*
X6335357Y-12009500D01*
X6363928Y-12023786D01*
X6378214Y-12038071D01*
X6392500Y-12066643D01*
X6392500Y-12138071D01*
X6378214Y-12166643D01*
X6363928Y-12180929D01*
X6335357Y-12195214D01*
X6263928Y-12195214D01*
X6235357Y-12180929D01*
X6221071Y-12166643D01*
X6506786Y-11895214D02*
X6506786Y-11952357D01*
X6621071Y-11895214D02*
X6621071Y-11952357D01*
X7063928Y-12309500D02*
X7049643Y-12295214D01*
X7021071Y-12252357D01*
X7006785Y-12223786D01*
X6992500Y-12180929D01*
X6978214Y-12109500D01*
X6978214Y-12052357D01*
X6992500Y-11980929D01*
X7006785Y-11938071D01*
X7021071Y-11909500D01*
X7049643Y-11866643D01*
X7063928Y-11852357D01*
X7306785Y-11895214D02*
X7249643Y-11895214D01*
X7221071Y-11909500D01*
X7206785Y-11923786D01*
X7178214Y-11966643D01*
X7163928Y-12023786D01*
X7163928Y-12138071D01*
X7178214Y-12166643D01*
X7192500Y-12180929D01*
X7221071Y-12195214D01*
X7278214Y-12195214D01*
X7306785Y-12180929D01*
X7321071Y-12166643D01*
X7335357Y-12138071D01*
X7335357Y-12066643D01*
X7321071Y-12038071D01*
X7306785Y-12023786D01*
X7278214Y-12009500D01*
X7221071Y-12009500D01*
X7192500Y-12023786D01*
X7178214Y-12038071D01*
X7163928Y-12066643D01*
X7692500Y-12195214D02*
X7692500Y-11895214D01*
X7821071Y-12195214D02*
X7821071Y-12038071D01*
X7806785Y-12009500D01*
X7778214Y-11995214D01*
X7735357Y-11995214D01*
X7706785Y-12009500D01*
X7692500Y-12023786D01*
X8006785Y-12195214D02*
X7978214Y-12180929D01*
X7963928Y-12166643D01*
X7949643Y-12138071D01*
X7949643Y-12052357D01*
X7963928Y-12023786D01*
X7978214Y-12009500D01*
X8006785Y-11995214D01*
X8049643Y-11995214D01*
X8078214Y-12009500D01*
X8092500Y-12023786D01*
X8106785Y-12052357D01*
X8106785Y-12138071D01*
X8092500Y-12166643D01*
X8078214Y-12180929D01*
X8049643Y-12195214D01*
X8006785Y-12195214D01*
X8278214Y-12195214D02*
X8249643Y-12180929D01*
X8235357Y-12152357D01*
X8235357Y-11895214D01*
X8506786Y-12180929D02*
X8478214Y-12195214D01*
X8421071Y-12195214D01*
X8392500Y-12180929D01*
X8378214Y-12152357D01*
X8378214Y-12038071D01*
X8392500Y-12009500D01*
X8421071Y-11995214D01*
X8478214Y-11995214D01*
X8506786Y-12009500D01*
X8521071Y-12038071D01*
X8521071Y-12066643D01*
X8378214Y-12095214D01*
X8635357Y-12180929D02*
X8663929Y-12195214D01*
X8721071Y-12195214D01*
X8749643Y-12180929D01*
X8763929Y-12152357D01*
X8763929Y-12138071D01*
X8749643Y-12109500D01*
X8721071Y-12095214D01*
X8678214Y-12095214D01*
X8649643Y-12080929D01*
X8635357Y-12052357D01*
X8635357Y-12038071D01*
X8649643Y-12009500D01*
X8678214Y-11995214D01*
X8721071Y-11995214D01*
X8749643Y-12009500D01*
X8863928Y-12309500D02*
X8878214Y-12295214D01*
X8906786Y-12252357D01*
X8921071Y-12223786D01*
X8935357Y-12180929D01*
X8949643Y-12109500D01*
X8949643Y-12052357D01*
X8935357Y-11980929D01*
X8921071Y-11938071D01*
X8906786Y-11909500D01*
X8878214Y-11866643D01*
X8863928Y-11852357D01*
X2377856Y-12490856D02*
X2377856Y-12420144D01*
X2307144Y-12420144D01*
X2307144Y-12490856D01*
X2377856Y-12490856D01*
X2821071Y-12591214D02*
X2649643Y-12591214D01*
X2735357Y-12591214D02*
X2735357Y-12291214D01*
X2706786Y-12334071D01*
X2678214Y-12362643D01*
X2649643Y-12376929D01*
X2949643Y-12562643D02*
X2963928Y-12576929D01*
X2949643Y-12591214D01*
X2935357Y-12576929D01*
X2949643Y-12562643D01*
X2949643Y-12591214D01*
X3149643Y-12291214D02*
X3178214Y-12291214D01*
X3206786Y-12305500D01*
X3221071Y-12319786D01*
X3235357Y-12348357D01*
X3249643Y-12405500D01*
X3249643Y-12476929D01*
X3235357Y-12534071D01*
X3221071Y-12562643D01*
X3206786Y-12576929D01*
X3178214Y-12591214D01*
X3149643Y-12591214D01*
X3121071Y-12576929D01*
X3106786Y-12562643D01*
X3092500Y-12534071D01*
X3078214Y-12476929D01*
X3078214Y-12405500D01*
X3092500Y-12348357D01*
X3106786Y-12319786D01*
X3121071Y-12305500D01*
X3149643Y-12291214D01*
X3435357Y-12291214D02*
X3463928Y-12291214D01*
X3492500Y-12305500D01*
X3506786Y-12319786D01*
X3521071Y-12348357D01*
X3535357Y-12405500D01*
X3535357Y-12476929D01*
X3521071Y-12534071D01*
X3506786Y-12562643D01*
X3492500Y-12576929D01*
X3463928Y-12591214D01*
X3435357Y-12591214D01*
X3406786Y-12576929D01*
X3392500Y-12562643D01*
X3378214Y-12534071D01*
X3363928Y-12476929D01*
X3363928Y-12405500D01*
X3378214Y-12348357D01*
X3392500Y-12319786D01*
X3406786Y-12305500D01*
X3435357Y-12291214D01*
X3663928Y-12591214D02*
X3663928Y-12391214D01*
X3663928Y-12419786D02*
X3678214Y-12405500D01*
X3706786Y-12391214D01*
X3749643Y-12391214D01*
X3778214Y-12405500D01*
X3792500Y-12434071D01*
X3792500Y-12591214D01*
X3792500Y-12434071D02*
X3806786Y-12405500D01*
X3835357Y-12391214D01*
X3878214Y-12391214D01*
X3906786Y-12405500D01*
X3921071Y-12434071D01*
X3921071Y-12591214D01*
X4063928Y-12591214D02*
X4063928Y-12391214D01*
X4063928Y-12419786D02*
X4078214Y-12405500D01*
X4106786Y-12391214D01*
X4149643Y-12391214D01*
X4178214Y-12405500D01*
X4192500Y-12434071D01*
X4192500Y-12591214D01*
X4192500Y-12434071D02*
X4206786Y-12405500D01*
X4235357Y-12391214D01*
X4278214Y-12391214D01*
X4306786Y-12405500D01*
X4321071Y-12434071D01*
X4321071Y-12591214D01*
X4906786Y-12276929D02*
X4649643Y-12662643D01*
X5292500Y-12291214D02*
X5321071Y-12291214D01*
X5349643Y-12305500D01*
X5363928Y-12319786D01*
X5378214Y-12348357D01*
X5392500Y-12405500D01*
X5392500Y-12476929D01*
X5378214Y-12534071D01*
X5363928Y-12562643D01*
X5349643Y-12576929D01*
X5321071Y-12591214D01*
X5292500Y-12591214D01*
X5263928Y-12576929D01*
X5249643Y-12562643D01*
X5235357Y-12534071D01*
X5221071Y-12476929D01*
X5221071Y-12405500D01*
X5235357Y-12348357D01*
X5249643Y-12319786D01*
X5263928Y-12305500D01*
X5292500Y-12291214D01*
X5521071Y-12562643D02*
X5535357Y-12576929D01*
X5521071Y-12591214D01*
X5506786Y-12576929D01*
X5521071Y-12562643D01*
X5521071Y-12591214D01*
X5721071Y-12291214D02*
X5749643Y-12291214D01*
X5778214Y-12305500D01*
X5792500Y-12319786D01*
X5806785Y-12348357D01*
X5821071Y-12405500D01*
X5821071Y-12476929D01*
X5806785Y-12534071D01*
X5792500Y-12562643D01*
X5778214Y-12576929D01*
X5749643Y-12591214D01*
X5721071Y-12591214D01*
X5692500Y-12576929D01*
X5678214Y-12562643D01*
X5663928Y-12534071D01*
X5649643Y-12476929D01*
X5649643Y-12405500D01*
X5663928Y-12348357D01*
X5678214Y-12319786D01*
X5692500Y-12305500D01*
X5721071Y-12291214D01*
X5921071Y-12291214D02*
X6106785Y-12291214D01*
X6006785Y-12405500D01*
X6049643Y-12405500D01*
X6078214Y-12419786D01*
X6092500Y-12434071D01*
X6106785Y-12462643D01*
X6106785Y-12534071D01*
X6092500Y-12562643D01*
X6078214Y-12576929D01*
X6049643Y-12591214D01*
X5963928Y-12591214D01*
X5935357Y-12576929D01*
X5921071Y-12562643D01*
X6249643Y-12591214D02*
X6306785Y-12591214D01*
X6335357Y-12576929D01*
X6349643Y-12562643D01*
X6378214Y-12519786D01*
X6392500Y-12462643D01*
X6392500Y-12348357D01*
X6378214Y-12319786D01*
X6363928Y-12305500D01*
X6335357Y-12291214D01*
X6278214Y-12291214D01*
X6249643Y-12305500D01*
X6235357Y-12319786D01*
X6221071Y-12348357D01*
X6221071Y-12419786D01*
X6235357Y-12448357D01*
X6249643Y-12462643D01*
X6278214Y-12476929D01*
X6335357Y-12476929D01*
X6363928Y-12462643D01*
X6378214Y-12448357D01*
X6392500Y-12419786D01*
X6506786Y-12291214D02*
X6506786Y-12348357D01*
X6621071Y-12291214D02*
X6621071Y-12348357D01*
X7063928Y-12705500D02*
X7049643Y-12691214D01*
X7021071Y-12648357D01*
X7006785Y-12619786D01*
X6992500Y-12576929D01*
X6978214Y-12505500D01*
X6978214Y-12448357D01*
X6992500Y-12376929D01*
X7006785Y-12334071D01*
X7021071Y-12305500D01*
X7049643Y-12262643D01*
X7063928Y-12248357D01*
X7335357Y-12591214D02*
X7163928Y-12591214D01*
X7249643Y-12591214D02*
X7249643Y-12291214D01*
X7221071Y-12334071D01*
X7192500Y-12362643D01*
X7163928Y-12376929D01*
X7621071Y-12591214D02*
X7449643Y-12591214D01*
X7535357Y-12591214D02*
X7535357Y-12291214D01*
X7506785Y-12334071D01*
X7478214Y-12362643D01*
X7449643Y-12376929D01*
X7892500Y-12291214D02*
X7749643Y-12291214D01*
X7735357Y-12434071D01*
X7749643Y-12419786D01*
X7778214Y-12405500D01*
X7849643Y-12405500D01*
X7878214Y-12419786D01*
X7892500Y-12434071D01*
X7906785Y-12462643D01*
X7906785Y-12534071D01*
X7892500Y-12562643D01*
X7878214Y-12576929D01*
X7849643Y-12591214D01*
X7778214Y-12591214D01*
X7749643Y-12576929D01*
X7735357Y-12562643D01*
X8263928Y-12591214D02*
X8263928Y-12291214D01*
X8392500Y-12591214D02*
X8392500Y-12434071D01*
X8378214Y-12405500D01*
X8349643Y-12391214D01*
X8306785Y-12391214D01*
X8278214Y-12405500D01*
X8263928Y-12419786D01*
X8578214Y-12591214D02*
X8549643Y-12576929D01*
X8535357Y-12562643D01*
X8521071Y-12534071D01*
X8521071Y-12448357D01*
X8535357Y-12419786D01*
X8549643Y-12405500D01*
X8578214Y-12391214D01*
X8621071Y-12391214D01*
X8649643Y-12405500D01*
X8663928Y-12419786D01*
X8678214Y-12448357D01*
X8678214Y-12534071D01*
X8663928Y-12562643D01*
X8649643Y-12576929D01*
X8621071Y-12591214D01*
X8578214Y-12591214D01*
X8849643Y-12591214D02*
X8821071Y-12576929D01*
X8806786Y-12548357D01*
X8806786Y-12291214D01*
X9078214Y-12576929D02*
X9049643Y-12591214D01*
X8992500Y-12591214D01*
X8963929Y-12576929D01*
X8949643Y-12548357D01*
X8949643Y-12434071D01*
X8963929Y-12405500D01*
X8992500Y-12391214D01*
X9049643Y-12391214D01*
X9078214Y-12405500D01*
X9092500Y-12434071D01*
X9092500Y-12462643D01*
X8949643Y-12491214D01*
X9206786Y-12576929D02*
X9235357Y-12591214D01*
X9292500Y-12591214D01*
X9321071Y-12576929D01*
X9335357Y-12548357D01*
X9335357Y-12534071D01*
X9321071Y-12505500D01*
X9292500Y-12491214D01*
X9249643Y-12491214D01*
X9221071Y-12476929D01*
X9206786Y-12448357D01*
X9206786Y-12434071D01*
X9221071Y-12405500D01*
X9249643Y-12391214D01*
X9292500Y-12391214D01*
X9321071Y-12405500D01*
X9435357Y-12705500D02*
X9449643Y-12691214D01*
X9478214Y-12648357D01*
X9492500Y-12619786D01*
X9506786Y-12576929D01*
X9521071Y-12505500D01*
X9521071Y-12448357D01*
X9506786Y-12376929D01*
X9492500Y-12334071D01*
X9478214Y-12305500D01*
X9449643Y-12262643D01*
X9435357Y-12248357D01*
X2337500Y-12906500D02*
X2392500Y-12851500D01*
X2337500Y-12796500D01*
X2282500Y-12851500D01*
X2337500Y-12906500D01*
X2821071Y-12987214D02*
X2649643Y-12987214D01*
X2735357Y-12987214D02*
X2735357Y-12687214D01*
X2706786Y-12730071D01*
X2678214Y-12758643D01*
X2649643Y-12772929D01*
X2949643Y-12958643D02*
X2963928Y-12972929D01*
X2949643Y-12987214D01*
X2935357Y-12972929D01*
X2949643Y-12958643D01*
X2949643Y-12987214D01*
X3249643Y-12987214D02*
X3078214Y-12987214D01*
X3163928Y-12987214D02*
X3163928Y-12687214D01*
X3135357Y-12730071D01*
X3106786Y-12758643D01*
X3078214Y-12772929D01*
X3435357Y-12687214D02*
X3463928Y-12687214D01*
X3492500Y-12701500D01*
X3506786Y-12715786D01*
X3521071Y-12744357D01*
X3535357Y-12801500D01*
X3535357Y-12872929D01*
X3521071Y-12930071D01*
X3506786Y-12958643D01*
X3492500Y-12972929D01*
X3463928Y-12987214D01*
X3435357Y-12987214D01*
X3406786Y-12972929D01*
X3392500Y-12958643D01*
X3378214Y-12930071D01*
X3363928Y-12872929D01*
X3363928Y-12801500D01*
X3378214Y-12744357D01*
X3392500Y-12715786D01*
X3406786Y-12701500D01*
X3435357Y-12687214D01*
X3663928Y-12987214D02*
X3663928Y-12787214D01*
X3663928Y-12815786D02*
X3678214Y-12801500D01*
X3706786Y-12787214D01*
X3749643Y-12787214D01*
X3778214Y-12801500D01*
X3792500Y-12830071D01*
X3792500Y-12987214D01*
X3792500Y-12830071D02*
X3806786Y-12801500D01*
X3835357Y-12787214D01*
X3878214Y-12787214D01*
X3906786Y-12801500D01*
X3921071Y-12830071D01*
X3921071Y-12987214D01*
X4063928Y-12987214D02*
X4063928Y-12787214D01*
X4063928Y-12815786D02*
X4078214Y-12801500D01*
X4106786Y-12787214D01*
X4149643Y-12787214D01*
X4178214Y-12801500D01*
X4192500Y-12830071D01*
X4192500Y-12987214D01*
X4192500Y-12830071D02*
X4206786Y-12801500D01*
X4235357Y-12787214D01*
X4278214Y-12787214D01*
X4306786Y-12801500D01*
X4321071Y-12830071D01*
X4321071Y-12987214D01*
X4906786Y-12672929D02*
X4649643Y-13058643D01*
X5292500Y-12687214D02*
X5321071Y-12687214D01*
X5349643Y-12701500D01*
X5363928Y-12715786D01*
X5378214Y-12744357D01*
X5392500Y-12801500D01*
X5392500Y-12872929D01*
X5378214Y-12930071D01*
X5363928Y-12958643D01*
X5349643Y-12972929D01*
X5321071Y-12987214D01*
X5292500Y-12987214D01*
X5263928Y-12972929D01*
X5249643Y-12958643D01*
X5235357Y-12930071D01*
X5221071Y-12872929D01*
X5221071Y-12801500D01*
X5235357Y-12744357D01*
X5249643Y-12715786D01*
X5263928Y-12701500D01*
X5292500Y-12687214D01*
X5521071Y-12958643D02*
X5535357Y-12972929D01*
X5521071Y-12987214D01*
X5506786Y-12972929D01*
X5521071Y-12958643D01*
X5521071Y-12987214D01*
X5721071Y-12687214D02*
X5749643Y-12687214D01*
X5778214Y-12701500D01*
X5792500Y-12715786D01*
X5806785Y-12744357D01*
X5821071Y-12801500D01*
X5821071Y-12872929D01*
X5806785Y-12930071D01*
X5792500Y-12958643D01*
X5778214Y-12972929D01*
X5749643Y-12987214D01*
X5721071Y-12987214D01*
X5692500Y-12972929D01*
X5678214Y-12958643D01*
X5663928Y-12930071D01*
X5649643Y-12872929D01*
X5649643Y-12801500D01*
X5663928Y-12744357D01*
X5678214Y-12715786D01*
X5692500Y-12701500D01*
X5721071Y-12687214D01*
X6078214Y-12787214D02*
X6078214Y-12987214D01*
X6006785Y-12672929D02*
X5935357Y-12887214D01*
X6121071Y-12887214D01*
X6206785Y-12687214D02*
X6392500Y-12687214D01*
X6292500Y-12801500D01*
X6335357Y-12801500D01*
X6363928Y-12815786D01*
X6378214Y-12830071D01*
X6392500Y-12858643D01*
X6392500Y-12930071D01*
X6378214Y-12958643D01*
X6363928Y-12972929D01*
X6335357Y-12987214D01*
X6249643Y-12987214D01*
X6221071Y-12972929D01*
X6206785Y-12958643D01*
X6506786Y-12687214D02*
X6506786Y-12744357D01*
X6621071Y-12687214D02*
X6621071Y-12744357D01*
X7063928Y-13101500D02*
X7049643Y-13087214D01*
X7021071Y-13044357D01*
X7006785Y-13015786D01*
X6992500Y-12972929D01*
X6978214Y-12901500D01*
X6978214Y-12844357D01*
X6992500Y-12772929D01*
X7006785Y-12730071D01*
X7021071Y-12701500D01*
X7049643Y-12658643D01*
X7063928Y-12644357D01*
X7335357Y-12987214D02*
X7163928Y-12987214D01*
X7249643Y-12987214D02*
X7249643Y-12687214D01*
X7221071Y-12730071D01*
X7192500Y-12758643D01*
X7163928Y-12772929D01*
X7449643Y-12715786D02*
X7463928Y-12701500D01*
X7492500Y-12687214D01*
X7563928Y-12687214D01*
X7592500Y-12701500D01*
X7606785Y-12715786D01*
X7621071Y-12744357D01*
X7621071Y-12772929D01*
X7606785Y-12815786D01*
X7435357Y-12987214D01*
X7621071Y-12987214D01*
X7978214Y-12987214D02*
X7978214Y-12687214D01*
X8106785Y-12987214D02*
X8106785Y-12830071D01*
X8092500Y-12801500D01*
X8063928Y-12787214D01*
X8021071Y-12787214D01*
X7992500Y-12801500D01*
X7978214Y-12815786D01*
X8292500Y-12987214D02*
X8263928Y-12972929D01*
X8249643Y-12958643D01*
X8235357Y-12930071D01*
X8235357Y-12844357D01*
X8249643Y-12815786D01*
X8263928Y-12801500D01*
X8292500Y-12787214D01*
X8335357Y-12787214D01*
X8363928Y-12801500D01*
X8378214Y-12815786D01*
X8392500Y-12844357D01*
X8392500Y-12930071D01*
X8378214Y-12958643D01*
X8363928Y-12972929D01*
X8335357Y-12987214D01*
X8292500Y-12987214D01*
X8563928Y-12987214D02*
X8535357Y-12972929D01*
X8521071Y-12944357D01*
X8521071Y-12687214D01*
X8792500Y-12972929D02*
X8763929Y-12987214D01*
X8706786Y-12987214D01*
X8678214Y-12972929D01*
X8663929Y-12944357D01*
X8663929Y-12830071D01*
X8678214Y-12801500D01*
X8706786Y-12787214D01*
X8763929Y-12787214D01*
X8792500Y-12801500D01*
X8806786Y-12830071D01*
X8806786Y-12858643D01*
X8663929Y-12887214D01*
X8921071Y-12972929D02*
X8949643Y-12987214D01*
X9006786Y-12987214D01*
X9035357Y-12972929D01*
X9049643Y-12944357D01*
X9049643Y-12930071D01*
X9035357Y-12901500D01*
X9006786Y-12887214D01*
X8963929Y-12887214D01*
X8935357Y-12872929D01*
X8921071Y-12844357D01*
X8921071Y-12830071D01*
X8935357Y-12801500D01*
X8963929Y-12787214D01*
X9006786Y-12787214D01*
X9035357Y-12801500D01*
X9149643Y-13101500D02*
X9163929Y-13087214D01*
X9192500Y-13044357D01*
X9206786Y-13015786D01*
X9221071Y-12972929D01*
X9235357Y-12901500D01*
X9235357Y-12844357D01*
X9221071Y-12772929D01*
X9206786Y-12730071D01*
X9192500Y-12701500D01*
X9163929Y-12658643D01*
X9149643Y-12644357D01*
X2278200Y-13190350D02*
X2392500Y-13304650D01*
X2392500Y-13190350D02*
X2278200Y-13304650D01*
X2392500Y-13247500D02*
G75*
G03X2392500Y-13247500I-57150J0D01*
G01*
X2821071Y-13383214D02*
X2649643Y-13383214D01*
X2735357Y-13383214D02*
X2735357Y-13083214D01*
X2706786Y-13126071D01*
X2678214Y-13154643D01*
X2649643Y-13168929D01*
X2949643Y-13354643D02*
X2963928Y-13368929D01*
X2949643Y-13383214D01*
X2935357Y-13368929D01*
X2949643Y-13354643D01*
X2949643Y-13383214D01*
X3249643Y-13383214D02*
X3078214Y-13383214D01*
X3163928Y-13383214D02*
X3163928Y-13083214D01*
X3135357Y-13126071D01*
X3106786Y-13154643D01*
X3078214Y-13168929D01*
X3506786Y-13183214D02*
X3506786Y-13383214D01*
X3435357Y-13068929D02*
X3363928Y-13283214D01*
X3549643Y-13283214D01*
X3663928Y-13383214D02*
X3663928Y-13183214D01*
X3663928Y-13211786D02*
X3678214Y-13197500D01*
X3706786Y-13183214D01*
X3749643Y-13183214D01*
X3778214Y-13197500D01*
X3792500Y-13226071D01*
X3792500Y-13383214D01*
X3792500Y-13226071D02*
X3806786Y-13197500D01*
X3835357Y-13183214D01*
X3878214Y-13183214D01*
X3906786Y-13197500D01*
X3921071Y-13226071D01*
X3921071Y-13383214D01*
X4063928Y-13383214D02*
X4063928Y-13183214D01*
X4063928Y-13211786D02*
X4078214Y-13197500D01*
X4106786Y-13183214D01*
X4149643Y-13183214D01*
X4178214Y-13197500D01*
X4192500Y-13226071D01*
X4192500Y-13383214D01*
X4192500Y-13226071D02*
X4206786Y-13197500D01*
X4235357Y-13183214D01*
X4278214Y-13183214D01*
X4306786Y-13197500D01*
X4321071Y-13226071D01*
X4321071Y-13383214D01*
X4906786Y-13068929D02*
X4649643Y-13454643D01*
X5292500Y-13083214D02*
X5321071Y-13083214D01*
X5349643Y-13097500D01*
X5363928Y-13111786D01*
X5378214Y-13140357D01*
X5392500Y-13197500D01*
X5392500Y-13268929D01*
X5378214Y-13326071D01*
X5363928Y-13354643D01*
X5349643Y-13368929D01*
X5321071Y-13383214D01*
X5292500Y-13383214D01*
X5263928Y-13368929D01*
X5249643Y-13354643D01*
X5235357Y-13326071D01*
X5221071Y-13268929D01*
X5221071Y-13197500D01*
X5235357Y-13140357D01*
X5249643Y-13111786D01*
X5263928Y-13097500D01*
X5292500Y-13083214D01*
X5521071Y-13354643D02*
X5535357Y-13368929D01*
X5521071Y-13383214D01*
X5506786Y-13368929D01*
X5521071Y-13354643D01*
X5521071Y-13383214D01*
X5721071Y-13083214D02*
X5749643Y-13083214D01*
X5778214Y-13097500D01*
X5792500Y-13111786D01*
X5806785Y-13140357D01*
X5821071Y-13197500D01*
X5821071Y-13268929D01*
X5806785Y-13326071D01*
X5792500Y-13354643D01*
X5778214Y-13368929D01*
X5749643Y-13383214D01*
X5721071Y-13383214D01*
X5692500Y-13368929D01*
X5678214Y-13354643D01*
X5663928Y-13326071D01*
X5649643Y-13268929D01*
X5649643Y-13197500D01*
X5663928Y-13140357D01*
X5678214Y-13111786D01*
X5692500Y-13097500D01*
X5721071Y-13083214D01*
X6078214Y-13183214D02*
X6078214Y-13383214D01*
X6006785Y-13068929D02*
X5935357Y-13283214D01*
X6121071Y-13283214D01*
X6378214Y-13083214D02*
X6235357Y-13083214D01*
X6221071Y-13226071D01*
X6235357Y-13211786D01*
X6263928Y-13197500D01*
X6335357Y-13197500D01*
X6363928Y-13211786D01*
X6378214Y-13226071D01*
X6392500Y-13254643D01*
X6392500Y-13326071D01*
X6378214Y-13354643D01*
X6363928Y-13368929D01*
X6335357Y-13383214D01*
X6263928Y-13383214D01*
X6235357Y-13368929D01*
X6221071Y-13354643D01*
X6506786Y-13083214D02*
X6506786Y-13140357D01*
X6621071Y-13083214D02*
X6621071Y-13140357D01*
X7063928Y-13497500D02*
X7049643Y-13483214D01*
X7021071Y-13440357D01*
X7006785Y-13411786D01*
X6992500Y-13368929D01*
X6978214Y-13297500D01*
X6978214Y-13240357D01*
X6992500Y-13168929D01*
X7006785Y-13126071D01*
X7021071Y-13097500D01*
X7049643Y-13054643D01*
X7063928Y-13040357D01*
X7306785Y-13083214D02*
X7249643Y-13083214D01*
X7221071Y-13097500D01*
X7206785Y-13111786D01*
X7178214Y-13154643D01*
X7163928Y-13211786D01*
X7163928Y-13326071D01*
X7178214Y-13354643D01*
X7192500Y-13368929D01*
X7221071Y-13383214D01*
X7278214Y-13383214D01*
X7306785Y-13368929D01*
X7321071Y-13354643D01*
X7335357Y-13326071D01*
X7335357Y-13254643D01*
X7321071Y-13226071D01*
X7306785Y-13211786D01*
X7278214Y-13197500D01*
X7221071Y-13197500D01*
X7192500Y-13211786D01*
X7178214Y-13226071D01*
X7163928Y-13254643D01*
X7692500Y-13383214D02*
X7692500Y-13083214D01*
X7821071Y-13383214D02*
X7821071Y-13226071D01*
X7806785Y-13197500D01*
X7778214Y-13183214D01*
X7735357Y-13183214D01*
X7706785Y-13197500D01*
X7692500Y-13211786D01*
X8006785Y-13383214D02*
X7978214Y-13368929D01*
X7963928Y-13354643D01*
X7949643Y-13326071D01*
X7949643Y-13240357D01*
X7963928Y-13211786D01*
X7978214Y-13197500D01*
X8006785Y-13183214D01*
X8049643Y-13183214D01*
X8078214Y-13197500D01*
X8092500Y-13211786D01*
X8106785Y-13240357D01*
X8106785Y-13326071D01*
X8092500Y-13354643D01*
X8078214Y-13368929D01*
X8049643Y-13383214D01*
X8006785Y-13383214D01*
X8278214Y-13383214D02*
X8249643Y-13368929D01*
X8235357Y-13340357D01*
X8235357Y-13083214D01*
X8506786Y-13368929D02*
X8478214Y-13383214D01*
X8421071Y-13383214D01*
X8392500Y-13368929D01*
X8378214Y-13340357D01*
X8378214Y-13226071D01*
X8392500Y-13197500D01*
X8421071Y-13183214D01*
X8478214Y-13183214D01*
X8506786Y-13197500D01*
X8521071Y-13226071D01*
X8521071Y-13254643D01*
X8378214Y-13283214D01*
X8635357Y-13368929D02*
X8663929Y-13383214D01*
X8721071Y-13383214D01*
X8749643Y-13368929D01*
X8763929Y-13340357D01*
X8763929Y-13326071D01*
X8749643Y-13297500D01*
X8721071Y-13283214D01*
X8678214Y-13283214D01*
X8649643Y-13268929D01*
X8635357Y-13240357D01*
X8635357Y-13226071D01*
X8649643Y-13197500D01*
X8678214Y-13183214D01*
X8721071Y-13183214D01*
X8749643Y-13197500D01*
X8863928Y-13497500D02*
X8878214Y-13483214D01*
X8906786Y-13440357D01*
X8921071Y-13411786D01*
X8935357Y-13368929D01*
X8949643Y-13297500D01*
X8949643Y-13240357D01*
X8935357Y-13168929D01*
X8921071Y-13126071D01*
X8906786Y-13097500D01*
X8878214Y-13054643D01*
X8863928Y-13040357D01*
X2087700Y-13491100D02*
X2392500Y-13795900D01*
X2392500Y-13491100D02*
X2087700Y-13795900D01*
X2240100Y-13491100D02*
X2240100Y-13795900D01*
X2087700Y-13643500D02*
X2392500Y-13643500D01*
X2635357Y-13479214D02*
X2821071Y-13479214D01*
X2721071Y-13593500D01*
X2763929Y-13593500D01*
X2792500Y-13607786D01*
X2806786Y-13622071D01*
X2821071Y-13650643D01*
X2821071Y-13722071D01*
X2806786Y-13750643D01*
X2792500Y-13764929D01*
X2763929Y-13779214D01*
X2678214Y-13779214D01*
X2649643Y-13764929D01*
X2635357Y-13750643D01*
X2949643Y-13750643D02*
X2963928Y-13764929D01*
X2949643Y-13779214D01*
X2935357Y-13764929D01*
X2949643Y-13750643D01*
X2949643Y-13779214D01*
X3149643Y-13479214D02*
X3178214Y-13479214D01*
X3206786Y-13493500D01*
X3221071Y-13507786D01*
X3235357Y-13536357D01*
X3249643Y-13593500D01*
X3249643Y-13664929D01*
X3235357Y-13722071D01*
X3221071Y-13750643D01*
X3206786Y-13764929D01*
X3178214Y-13779214D01*
X3149643Y-13779214D01*
X3121071Y-13764929D01*
X3106786Y-13750643D01*
X3092500Y-13722071D01*
X3078214Y-13664929D01*
X3078214Y-13593500D01*
X3092500Y-13536357D01*
X3106786Y-13507786D01*
X3121071Y-13493500D01*
X3149643Y-13479214D01*
X3521071Y-13479214D02*
X3378214Y-13479214D01*
X3363928Y-13622071D01*
X3378214Y-13607786D01*
X3406786Y-13593500D01*
X3478214Y-13593500D01*
X3506786Y-13607786D01*
X3521071Y-13622071D01*
X3535357Y-13650643D01*
X3535357Y-13722071D01*
X3521071Y-13750643D01*
X3506786Y-13764929D01*
X3478214Y-13779214D01*
X3406786Y-13779214D01*
X3378214Y-13764929D01*
X3363928Y-13750643D01*
X3663928Y-13779214D02*
X3663928Y-13579214D01*
X3663928Y-13607786D02*
X3678214Y-13593500D01*
X3706786Y-13579214D01*
X3749643Y-13579214D01*
X3778214Y-13593500D01*
X3792500Y-13622071D01*
X3792500Y-13779214D01*
X3792500Y-13622071D02*
X3806786Y-13593500D01*
X3835357Y-13579214D01*
X3878214Y-13579214D01*
X3906786Y-13593500D01*
X3921071Y-13622071D01*
X3921071Y-13779214D01*
X4063928Y-13779214D02*
X4063928Y-13579214D01*
X4063928Y-13607786D02*
X4078214Y-13593500D01*
X4106786Y-13579214D01*
X4149643Y-13579214D01*
X4178214Y-13593500D01*
X4192500Y-13622071D01*
X4192500Y-13779214D01*
X4192500Y-13622071D02*
X4206786Y-13593500D01*
X4235357Y-13579214D01*
X4278214Y-13579214D01*
X4306786Y-13593500D01*
X4321071Y-13622071D01*
X4321071Y-13779214D01*
X4906786Y-13464929D02*
X4649643Y-13850643D01*
X5292500Y-13479214D02*
X5321071Y-13479214D01*
X5349643Y-13493500D01*
X5363928Y-13507786D01*
X5378214Y-13536357D01*
X5392500Y-13593500D01*
X5392500Y-13664929D01*
X5378214Y-13722071D01*
X5363928Y-13750643D01*
X5349643Y-13764929D01*
X5321071Y-13779214D01*
X5292500Y-13779214D01*
X5263928Y-13764929D01*
X5249643Y-13750643D01*
X5235357Y-13722071D01*
X5221071Y-13664929D01*
X5221071Y-13593500D01*
X5235357Y-13536357D01*
X5249643Y-13507786D01*
X5263928Y-13493500D01*
X5292500Y-13479214D01*
X5521071Y-13750643D02*
X5535357Y-13764929D01*
X5521071Y-13779214D01*
X5506786Y-13764929D01*
X5521071Y-13750643D01*
X5521071Y-13779214D01*
X5821071Y-13779214D02*
X5649643Y-13779214D01*
X5735357Y-13779214D02*
X5735357Y-13479214D01*
X5706785Y-13522071D01*
X5678214Y-13550643D01*
X5649643Y-13564929D01*
X5935357Y-13507786D02*
X5949643Y-13493500D01*
X5978214Y-13479214D01*
X6049643Y-13479214D01*
X6078214Y-13493500D01*
X6092500Y-13507786D01*
X6106785Y-13536357D01*
X6106785Y-13564929D01*
X6092500Y-13607786D01*
X5921071Y-13779214D01*
X6106785Y-13779214D01*
X6292500Y-13479214D02*
X6321071Y-13479214D01*
X6349643Y-13493500D01*
X6363928Y-13507786D01*
X6378214Y-13536357D01*
X6392500Y-13593500D01*
X6392500Y-13664929D01*
X6378214Y-13722071D01*
X6363928Y-13750643D01*
X6349643Y-13764929D01*
X6321071Y-13779214D01*
X6292500Y-13779214D01*
X6263928Y-13764929D01*
X6249643Y-13750643D01*
X6235357Y-13722071D01*
X6221071Y-13664929D01*
X6221071Y-13593500D01*
X6235357Y-13536357D01*
X6249643Y-13507786D01*
X6263928Y-13493500D01*
X6292500Y-13479214D01*
X6506786Y-13479214D02*
X6506786Y-13536357D01*
X6621071Y-13479214D02*
X6621071Y-13536357D01*
X7063928Y-13893500D02*
X7049643Y-13879214D01*
X7021071Y-13836357D01*
X7006785Y-13807786D01*
X6992500Y-13764929D01*
X6978214Y-13693500D01*
X6978214Y-13636357D01*
X6992500Y-13564929D01*
X7006785Y-13522071D01*
X7021071Y-13493500D01*
X7049643Y-13450643D01*
X7063928Y-13436357D01*
X7306785Y-13579214D02*
X7306785Y-13779214D01*
X7235357Y-13464929D02*
X7163928Y-13679214D01*
X7349643Y-13679214D01*
X7692500Y-13779214D02*
X7692500Y-13479214D01*
X7821071Y-13779214D02*
X7821071Y-13622071D01*
X7806785Y-13593500D01*
X7778214Y-13579214D01*
X7735357Y-13579214D01*
X7706785Y-13593500D01*
X7692500Y-13607786D01*
X8006785Y-13779214D02*
X7978214Y-13764929D01*
X7963928Y-13750643D01*
X7949643Y-13722071D01*
X7949643Y-13636357D01*
X7963928Y-13607786D01*
X7978214Y-13593500D01*
X8006785Y-13579214D01*
X8049643Y-13579214D01*
X8078214Y-13593500D01*
X8092500Y-13607786D01*
X8106785Y-13636357D01*
X8106785Y-13722071D01*
X8092500Y-13750643D01*
X8078214Y-13764929D01*
X8049643Y-13779214D01*
X8006785Y-13779214D01*
X8278214Y-13779214D02*
X8249643Y-13764929D01*
X8235357Y-13736357D01*
X8235357Y-13479214D01*
X8506786Y-13764929D02*
X8478214Y-13779214D01*
X8421071Y-13779214D01*
X8392500Y-13764929D01*
X8378214Y-13736357D01*
X8378214Y-13622071D01*
X8392500Y-13593500D01*
X8421071Y-13579214D01*
X8478214Y-13579214D01*
X8506786Y-13593500D01*
X8521071Y-13622071D01*
X8521071Y-13650643D01*
X8378214Y-13679214D01*
X8635357Y-13764929D02*
X8663929Y-13779214D01*
X8721071Y-13779214D01*
X8749643Y-13764929D01*
X8763929Y-13736357D01*
X8763929Y-13722071D01*
X8749643Y-13693500D01*
X8721071Y-13679214D01*
X8678214Y-13679214D01*
X8649643Y-13664929D01*
X8635357Y-13636357D01*
X8635357Y-13622071D01*
X8649643Y-13593500D01*
X8678214Y-13579214D01*
X8721071Y-13579214D01*
X8749643Y-13593500D01*
X8863928Y-13893500D02*
X8878214Y-13879214D01*
X8906786Y-13836357D01*
X8921071Y-13807786D01*
X8935357Y-13764929D01*
X8949643Y-13693500D01*
X8949643Y-13636357D01*
X8935357Y-13564929D01*
X8921071Y-13522071D01*
X8906786Y-13493500D01*
X8878214Y-13450643D01*
X8863928Y-13436357D01*
M02*
