M48
;DRILL file {KiCad 4.0.7} date 03/14/18 00:32:25
;FORMAT={-:-/ absolute / metric / decimal}
FMAT,2
METRIC,TZ
T1C0.400
T2C0.800
T3C0.900
T4C1.000
T5C1.100
T6C1.143
T7C3.048
%
G90
G05
M71
T1
X54.864Y-69.85
X107.95Y-30.48
T2
X48.26Y-76.2
X48.26Y-78.74
X48.26Y-81.28
X53.34Y-48.26
X53.34Y-50.8
X53.34Y-53.34
X53.34Y-55.88
X53.34Y-58.42
X53.34Y-60.96
X53.34Y-63.5
X53.34Y-66.04
X53.34Y-68.58
X53.34Y-71.12
X55.88Y-76.2
X55.88Y-78.74
X55.88Y-81.28
X60.96Y-48.26
X60.96Y-50.8
X60.96Y-53.34
X60.96Y-55.88
X60.96Y-58.42
X60.96Y-60.96
X60.96Y-63.5
X60.96Y-66.04
X60.96Y-68.58
X60.96Y-71.12
X68.58Y-55.88
X68.58Y-58.42
X68.58Y-60.96
X73.66Y-25.4
X73.66Y-33.02
X76.2Y-55.88
X76.2Y-58.42
X76.2Y-60.96
X91.44Y-78.74
X91.44Y-86.4
X91.44Y-88.9
X93.94Y-78.74
X96.52Y-63.5
X96.52Y-78.74
X99.02Y-63.5
X99.02Y-78.74
T3
X71.12Y-68.58
X73.66Y-68.58
X78.74Y-68.58
X81.28Y-68.58
X86.36Y-68.58
X88.9Y-68.58
T4
X27.94Y-25.4
X27.94Y-27.94
X27.94Y-30.48
X27.94Y-33.02
X27.94Y-35.56
X27.94Y-38.1
X27.94Y-40.64
X27.94Y-43.18
X27.94Y-96.52
X27.94Y-99.06
X40.26Y-100.
X42.8Y-100.
X43.81Y-45.48
X43.81Y-48.02
X43.81Y-50.56
X43.81Y-53.1
X43.81Y-55.64
X43.81Y-58.18
X43.81Y-60.72
X43.81Y-63.26
X43.81Y-65.8
X43.81Y-68.34
X43.86Y-73.4
X43.86Y-75.94
X43.86Y-78.48
X43.86Y-81.02
X43.86Y-83.56
X43.86Y-86.1
X43.86Y-88.64
X43.86Y-91.18
X45.34Y-100.
X47.88Y-100.
X48.26Y-58.42
X48.26Y-60.96
X48.26Y-63.5
X48.26Y-66.04
X48.26Y-68.58
X48.26Y-71.12
X50.42Y-100.
X50.8Y-88.9
X50.8Y-91.44
X52.96Y-100.
X53.34Y-88.9
X53.34Y-91.44
X55.5Y-100.
X65.08Y-27.02
X65.08Y-29.56
X65.08Y-32.1
X65.08Y-34.64
X67.62Y-27.02
X67.62Y-29.56
X67.62Y-32.1
X67.62Y-34.64
X68.58Y-48.26
X71.12Y-48.26
X71.12Y-88.9
X71.12Y-91.44
X73.66Y-48.26
X73.66Y-88.9
X73.66Y-91.44
X79.81Y-31.64
X79.81Y-34.18
X79.81Y-36.72
X79.81Y-39.26
X82.35Y-31.64
X82.35Y-34.18
X82.35Y-36.72
X82.35Y-39.26
X83.82Y-45.72
X83.82Y-48.26
X83.82Y-50.8
X83.82Y-53.34
X83.82Y-55.88
X83.82Y-58.42
X84.89Y-31.64
X84.89Y-34.18
X84.89Y-36.72
X84.89Y-39.26
X90.4Y-100.
X92.94Y-100.
X93.98Y-25.4
X93.98Y-27.94
X95.48Y-100.
X96.52Y-45.72
X96.52Y-48.26
X96.52Y-50.8
X96.52Y-53.34
X96.52Y-55.88
X96.52Y-58.42
X98.02Y-100.
X100.56Y-100.
X102.19Y-78.45
X102.19Y-80.99
X102.19Y-83.53
X102.19Y-86.07
X102.19Y-88.61
X102.19Y-91.15
X102.22Y-55.59
X102.22Y-58.13
X102.22Y-60.67
X102.22Y-63.21
X102.22Y-65.75
X102.22Y-68.29
X102.22Y-70.83
X102.22Y-73.37
X103.1Y-100.
X105.64Y-100.
X116.84Y-25.4
X116.84Y-27.94
X116.84Y-30.48
X116.84Y-33.02
X116.84Y-91.44
X116.84Y-93.98
X116.84Y-96.52
X116.84Y-99.06
T5
X60.96Y-76.2
X60.96Y-80.7
X67.46Y-76.2
X67.46Y-80.7
X71.12Y-76.2
X71.12Y-80.7
X77.62Y-76.2
X77.62Y-80.7
X81.28Y-76.2
X81.28Y-80.7
X87.78Y-76.2
X87.78Y-80.7
T6
X96.52Y-68.58
X96.52Y-71.12
X96.52Y-73.66
X96.52Y-83.82
X96.52Y-86.36
X96.52Y-88.9
T7
X34.Y-93.
X40.Y-31.
X112.Y-31.
X112.Y-93.
T0
M30
